<svg id="图层_1" data-name="图层 1" xmlns="http://www.w3.org/2000/svg" viewBox="0 0 441.03 111.15"><defs><style>.cls-1,.cls-2{fill:#fff;}.cls-2{fill-rule:evenodd;}</style></defs><path class="cls-1" d="M71.55,108.24c-38.28,0-69.42-23.66-69.42-52.75S33.27,2.74,71.55,2.74,141,26.41,141,55.49,109.83,108.24,71.55,108.24Zm0-103.45C34.4,4.79,4.17,27.53,4.17,55.49S34.4,106.2,71.55,106.2s67.38-22.75,67.38-50.71S108.7,4.79,71.55,4.79Z"/><polyline class="cls-2" points="46.9 59.34 50.01 48.78 54.2 48.78 52.39 55.28 53.79 55.28 55.73 48.78 59.94 48.78 56.95 59.34 52.66 59.34 53.4 56.53 51.98 56.53 51.23 59.34 46.9 59.34"/><polyline class="cls-2" points="61.44 48.82 58.26 59.44 68.27 59.44 71.2 48.82 67.09 48.82 64.32 58.12 62.87 58.12 65.53 48.82 61.44 48.82"/><path class="cls-2" d="M41.83,62.7l34.67.07c2.36-1.67,4.78-5.26,4.15-7.79-.84-1.63-2.42-2.64-5.27-4.93-1-1.1-2-2.16-3.12-3.18q-4.47-2.86-8.84-6c-1.7-1.3-1-3.1,2.52-2.66a76.38,76.38,0,0,1,25.63,6.18c1.55.85,1.07,1.25-.2,1.4l-7.94-.07c-1.87.13-3.1,1.15-4.33,3.19h4.54L79.57,62.77h5.12l4-13.79h3a44.2,44.2,0,0,0,5-5.58c1.29-2.2,1.2-4.73-1.2-6-5.36-2.51-11.33-3-15.76-3.21-7.29.2-12.8.76-15.54,2.34l-1.44,1.22c-4.54,0-6.81,1.83-4.94,4.17C59.05,43.5,64,45.3,70,47.72c4.61,1.54,5.78,5.11,3.17,8.6-1.8,2.58-5.3,4-10.35,4.44a91.93,91.93,0,0,1-16.25-.28,21.45,21.45,0,0,0-4.73,2.22"/><path class="cls-2" d="M54,72.79s-.1,0-.21.16a1.33,1.33,0,0,1-.3.15.39.39,0,0,0-.2.06h0c-.06,0-.12-.06-.19-.16a1,1,0,0,1-.22-.41c0-.1-.08-.15-.14-.15s-.09,0-.1,0a.22.22,0,0,0,0,.14,1.22,1.22,0,0,0,.12.67q.18.24,1.08.24a.79.79,0,0,0,.41-.09.23.23,0,0,0,.07-.13.85.85,0,0,0-.16-.44C54,72.82,54,72.79,54,72.79Zm-.85-.18a6.24,6.24,0,0,0,.66,0s0,0,0,0l0-.06-.25-.21-.51.1s0,0,0,0a.75.75,0,0,0,.11.14Zm-8.58-2.48a.34.34,0,0,0-.09-.27.23.23,0,0,0-.17-.08.36.36,0,0,0-.24.13.3.3,0,0,0-.07.16c0,.16,0,.26.1.32a.7.7,0,0,1,.29.24.61.61,0,0,1,.06.25.11.11,0,0,1-.09.09.87.87,0,0,1-.31.1c-.13,0-.19.1-.2.17s0,.15,0,.21,0,0,0,.06,0,0,0,.06l.2-.1.24-.14s0,0,.06,0a.38.38,0,0,0,.27-.32,4,4,0,0,1,0-.71A.25.25,0,0,1,44.54,70.13Zm15.91.6,0,0,1.21-.15a.79.79,0,0,1,.15.12h0a.68.68,0,0,0,.16-.54q0-.19-.09-.24a.43.43,0,0,0-.24-.06,1.36,1.36,0,0,0-.6.08l-.27.09-.31.12-.14.06a1.19,1.19,0,0,0,0,.46S60.45,70.72,60.45,70.73Zm.12-.43.15,0,.09,0a2.93,2.93,0,0,1,.66-.15.13.13,0,0,1,.15.15.24.24,0,0,1-.06.18,1.23,1.23,0,0,1-.67.16.72.72,0,0,1-.25,0l0,0a.8.8,0,0,1-.09-.14A.1.1,0,0,1,60.57,70.3ZM53.8,71.43l.08,0,.11,0a.63.63,0,0,0,.24-.51.16.16,0,0,0-.12-.18H54c-.11,0-.18,0-.2.12a.85.85,0,0,1-.06.19.43.43,0,0,1,0,0s0,.07,0,.11a.59.59,0,0,0,0,.14C53.68,71.39,53.72,71.43,53.8,71.43Zm-9.36.33h0s0,0,0,0a2.19,2.19,0,0,0-.35.24c-.05,0-.08.06-.08.07l0,0a1.24,1.24,0,0,0,.47.1c.06,0,.09,0,.09-.1a.62.62,0,0,0-.07-.37Zm39-2.33a.28.28,0,0,0-.21-.11.61.61,0,0,0-.38.15q-.12.12-.12.15l0,.06.32-.06h.06a.1.1,0,0,1,.09,0,.45.45,0,0,1,0,.32,2.05,2.05,0,0,1-.47.22c-.08,0-.13.08-.13.13s0,.05.1.06h0c.34,0,.51,0,.52,0s.06.22.09.23l.08,0a.09.09,0,0,0,.08-.1A4.46,4.46,0,0,0,83.45,69.43Zm-31,2h.11c.05,0,.07,0,.07-.06l-.08-.2a.19.19,0,0,0-.18-.14.38.38,0,0,0-.13,0,.12.12,0,0,0,0,.09.32.32,0,0,0,.07.2A.23.23,0,0,0,52.43,71.45Zm.66-.11s.09,0,.15-.1a.61.61,0,0,0,.09-.4.32.32,0,0,0-.17,0,.26.26,0,0,0-.21.12v.25C53,71.29,53,71.34,53.09,71.34Zm29.58.27a.18.18,0,0,0-.17.07.29.29,0,0,0,0,.41.77.77,0,0,0,.38.19.05.05,0,0,0,0-.06l0-.37C82.86,71.69,82.79,71.61,82.67,71.61ZM96,72.12l-.15,0c-.08,0-.12,0-.13,0s0,.11,0,.25a.64.64,0,0,0,0,.07,2.34,2.34,0,0,0,0,.26v0a.24.24,0,0,0,.1.08.65.65,0,0,0,.26,0,.39.39,0,0,0,.23,0,.13.13,0,0,0,.05-.11,1.35,1.35,0,0,0-.06-.67Zm-6.68-.39a.37.37,0,0,1,.3.08.49.49,0,0,1,0,.13s0,.07.14.07A.28.28,0,0,0,90,72a.6.6,0,0,0,.12-.34,1.09,1.09,0,0,1,0-.18.22.22,0,0,0,0-.08.48.48,0,0,0-.31,0,2.4,2.4,0,0,0-.58.35.05.05,0,0,0,0,0Zm-54.6-4.48a25.42,25.42,0,0,0,5.45,8h63.06a35.55,35.55,0,0,0,5.5-8Zm61.84,1.27a.3.3,0,0,1,.22-.1l0,0,.09.12a.92.92,0,0,1,.27.81.85.85,0,0,1-.23.06.69.69,0,0,1-.49-.19c-.08-.08-.12-.14-.12-.2A.62.62,0,0,1,96.59,68.52Zm-5,2h0a1.68,1.68,0,0,1,.59.15s0,0,0,0a2.5,2.5,0,0,0-.14.65.53.53,0,0,1-.15.42.41.41,0,0,1-.19,0,.16.16,0,0,1-.13-.08.78.78,0,0,1-.13-.39l0-.64a.19.19,0,0,1,0-.07C91.43,70.59,91.48,70.55,91.58,70.55Zm-14-1.1s0,0,.1-.07l0,0a.72.72,0,0,1,.21.12,1.41,1.41,0,0,1,.53.28.28.28,0,0,1,.1.25s0,0,0,0a1.82,1.82,0,0,1-.33,0l-.26,0,0,0H77.8c-.12,0-.2,0-.23-.1C77.58,69.64,77.58,69.48,77.59,69.45ZM66.82,69l.38-.12h0a3.59,3.59,0,0,1,.55-.13s0,0,0,0a1.42,1.42,0,0,0,0,.16,2.46,2.46,0,0,0-.32.55.12.12,0,0,1-.1,0,.64.64,0,0,1-.38-.15c-.17-.1-.26-.2-.26-.31S66.76,69.05,66.82,69Zm-1,.28a.38.38,0,0,1,.23-.08s.15.07.32.2.43.35.43.43-.1.16-.29.16a1.86,1.86,0,0,0-.42,0c-.2,0-.3,0-.3-.11Q65.67,69.45,65.8,69.31Zm-14,1.45a4.4,4.4,0,0,0,.91-.25.17.17,0,0,0,.07-.14s0-.05-.08-.05a4.32,4.32,0,0,0-.8.11.12.12,0,0,1-.11-.08.56.56,0,0,1,0-.08l-.08-.15a.09.09,0,0,1,0-.05s0-.07.12-.14l.1.1h0a2.86,2.86,0,0,1,.61-.19.88.88,0,0,0,.39-.12l.09-.3a.38.38,0,0,0,0-.16A.89.89,0,0,0,53,69a1,1,0,0,1,.06-.21.4.4,0,0,1,.16-.06.68.68,0,0,1,.26.07s.06,0,.06,0a1,1,0,0,0-.06.22l-.1.49s0,.07.08.07l.1,0a4.14,4.14,0,0,1,.5,0l.1,0h0a.65.65,0,0,1,.2-.06s.11,0,.2.14a.66.66,0,0,1,.11.16v.25a.12.12,0,0,1-.1,0h-.76a1.19,1.19,0,0,0-.3,0l-.16,0c-.08,0-.12,0-.12.11s0,.08.09.08l.15,0a3.32,3.32,0,0,1,1.45.18q.18.09.18.15a.58.58,0,0,1-.07.11.94.94,0,0,0-.27.41,1.88,1.88,0,0,0-.18.24c-.13.16-.21.28-.27.34l0,0a.37.37,0,0,1-.47,0c-.17-.18-.53-.18-1.09,0l-.4.12a1,1,0,0,1-.23-.13l-.21-.17a1.76,1.76,0,0,1-.42-.72C51.53,70.85,51.61,70.8,51.77,70.76Zm-1.64-.23a1.72,1.72,0,0,0,.13-.27,1.19,1.19,0,0,1,.21-.31,1.21,1.21,0,0,1,.26-.34l.12-.16a.28.28,0,0,1,.21-.13c.07,0,.16.06.29.18s.17.15.17.19-.15.18-.4.39c0,0,0,0,.07,0l-.08.06h0a3.09,3.09,0,0,0-.36.26,1.22,1.22,0,0,1-.57.31s-.07,0-.07-.07A.43.43,0,0,0,50.13,70.53Zm-1.86-1.28A2,2,0,0,0,48,70.42c0,.18,0,.35,0,.53a3,3,0,0,1,0,.46,14.89,14.89,0,0,0,.12,2.17,1.43,1.43,0,0,0,0,.26.09.09,0,0,1,0,.06q0,.09-.12.09a.83.83,0,0,1-.27-.06,4.66,4.66,0,0,0-.72-.22,3.18,3.18,0,0,1-.92-.42.4.4,0,0,1-.06-.11s.14-.05.43,0a1.77,1.77,0,0,0,.74,0,.3.3,0,0,0,0-.18c0-.22,0-.48,0-.79s0-1,0-2.14v0c0-.33-.08-.51-.14-.55a.31.31,0,0,0-.17,0,1.3,1.3,0,0,0-.33.07.29.29,0,0,0-.22.28V70c0,.05,0,.08.05.08a2.15,2.15,0,0,1,.34-.05q.21,0,.21.18s0,0,0,.07-.18.22-.46.37a.36.36,0,0,0-.21.34s0,.07.08.07l.54-.06A.1.1,0,0,1,47,71a.34.34,0,0,1,0,.15c0,.16,0,.26,0,.3a.93.93,0,0,1-.29.09l-.05,0h0c-.31.19-.5.32-.58.38l0,0a.62.62,0,0,0-.1.17,5.17,5.17,0,0,0-.53,1,.19.19,0,0,1-.12.16,2.83,2.83,0,0,1-.93.33c-.07,0-.1,0-.1,0a.92.92,0,0,1,.13-.14s0,0,.05,0a.54.54,0,0,1,.13-.11c.27-.23.41-.36.41-.4s0,0-.13-.08a4.31,4.31,0,0,1-.88-.48.48.48,0,0,0-.16-.15.92.92,0,0,0-.25.13l-.26.2-.39.34a1,1,0,0,1-.36-.19c-.11-.08-.17-.14-.17-.18s.1-.09.28-.15l.23-.12c.23-.17.34-.27.34-.33a10.31,10.31,0,0,1-.13-2c0-.07.11-.13.32-.19a12.25,12.25,0,0,1,1.34-.3,1.17,1.17,0,0,1,.7.13s0,.13-.13.31a.76.76,0,0,0-.12.36,7.79,7.79,0,0,0,0,.89c0,.29,0,.55,0,.78a1.15,1.15,0,0,0,0,.7s0,0,0,0h0v0h0a.57.57,0,0,1,.16-.31,1.62,1.62,0,0,0,.26-.79.39.39,0,0,0,0-.14,4.31,4.31,0,0,1,.08-.68,5.31,5.31,0,0,0,0-1.26s0-.1.12-.13H46a4.13,4.13,0,0,0,.68-.1,3,3,0,0,1,.6-.12,4.05,4.05,0,0,1,1,.12.1.1,0,0,1,0,.08Zm2.54,3.68a2.82,2.82,0,0,0,0,.77c0,.13-.07.19-.18.19a.48.48,0,0,1-.27-.06.3.3,0,0,1,0-.16,3.56,3.56,0,0,1,.07-1s0-.14,0-.33a.07.07,0,0,0-.08,0H50.2l-.1.07a3.38,3.38,0,0,1-.81.34.18.18,0,0,1-.09,0c-.09,0-.14,0-.14-.06s.26-.45.77-.88l.1-.1c.08-.08.15-.16.23-.23a.83.83,0,0,1,.16-.19s.14-.18.36-.5l.39-.38a.41.41,0,0,1,.19.08c.13.11.2.18.2.22s-.13.25-.35.38l-.12.12,0,0a3.45,3.45,0,0,0-.34.33s0,0,0,0,0,.24.3.3l.17.09a2.06,2.06,0,0,1-.12.42A1,1,0,0,0,50.81,72.93Zm4.28,1a.79.79,0,0,1-.26,0h-.51L53.4,74a5.42,5.42,0,0,1-.65,0l-.11,0a1.18,1.18,0,0,1-.38-.66,1.38,1.38,0,0,0,0-.25c0-.15-.07-.23-.12-.23S52,72.81,52,73s0,0,0,0a1.05,1.05,0,0,0-.15.3.45.45,0,0,0-.06.21c0,.06,0,.09-.12.09l-.39-.12c-.14,0-.22-.1-.22-.14a.05.05,0,0,1,0,0s0-.08.15-.18a2.12,2.12,0,0,1,.37-.32.62.62,0,0,1,.18-.11c.13-.07.19-.12.19-.15a2.26,2.26,0,0,0-.19-.31s.06-.06.14-.06a1,1,0,0,0,.32,0,3.07,3.07,0,0,1,.56-.11h.06a3.12,3.12,0,0,1,.85-.12.58.58,0,0,1,.48.32s0,.06-.1.08l-.12,0s-.06,0-.06,0a.14.14,0,0,0,.08.07,1.16,1.16,0,0,1,.21.16c.26.25.39.39.39.43a.66.66,0,0,1,.24.22.64.64,0,0,0,.12.15,1,1,0,0,1,.25.54A.06.06,0,0,1,55.09,74Zm1-1c0,.08-.07.12-.11.12L55.55,73l-.33-.17a2.53,2.53,0,0,1-.67-.47c0-.06.07-.09.23-.09l.32,0a2.81,2.81,0,0,1,.5.07,1.32,1.32,0,0,0,.26.05.18.18,0,0,1,.11.07A.9.9,0,0,1,56.05,73Zm2.38-.61a.4.4,0,0,1-.07.24,1.74,1.74,0,0,1-.22.18s-.06,0-.06,0l-.65.38a1.84,1.84,0,0,1-.31.1.29.29,0,0,1-.21,0c0-.08.23-.28.67-.62a.34.34,0,0,1,.09-.08v0a5.15,5.15,0,0,0,.69-.78,4.37,4.37,0,0,1,.3-.5l0-.06a1.87,1.87,0,0,0,.12-.25h0l.26-.56a.47.47,0,0,1,.07-.17l.05-.19c0-.08,0-.13,0-.17s0-.1,0-.14a2.25,2.25,0,0,1,.13-.72s.06,0,.15,0h.11l.19.07.82-.09a6.1,6.1,0,0,1,.89-.17,2.75,2.75,0,0,1,.47-.1.22.22,0,0,1,.14.06.25.25,0,0,1,.11.12l.05.07c.08.1.13.17.13.21s0,.07-.07.07a4.89,4.89,0,0,0-1.28.2,2.4,2.4,0,0,0-.79.08l-.33.09-.06,0a1.24,1.24,0,0,0,0,.23H60a8.48,8.48,0,0,1,1.58-.29,2.15,2.15,0,0,1,1.29.1q.24.12.24.18a2.5,2.5,0,0,0-.53.94h0a.91.91,0,0,0-.1.18.3.3,0,0,1-.18,0L62,71a2.55,2.55,0,0,0-.94,0c-.5.13-.77.19-.8.19a2,2,0,0,1-.59-.7h0s0,0,0,0a.42.42,0,0,0-.1.2l-.05.06-.06.06-.21.41-.15.2a3.57,3.57,0,0,0-.27.35A1.51,1.51,0,0,0,58.43,72.41Zm5.47.2a.92.92,0,0,1-.42-.07,5.81,5.81,0,0,0-.63-.11,2.49,2.49,0,0,0-.89.07,2.27,2.27,0,0,0,0,.68h0c0,.19,0,.29,0,.31-.09.33-.14.5-.14.51a.15.15,0,0,1-.14.07l0,0-.39,0-.07,0a4.26,4.26,0,0,1-1.33-.49c-.08-.07-.13-.12-.13-.15a3.26,3.26,0,0,1,.53.06l.52.08h.24l.15,0c.12,0,.2,0,.22-.09a1.58,1.58,0,0,0,.08-.59c0-.17,0-.27-.08-.29h0a15.47,15.47,0,0,0-2.22.4.21.21,0,0,1-.12,0,.35.35,0,0,1-.13-.27s.07-.07.19-.07l.22,0c.16,0,.41-.1.73-.17s.71-.17,1.16-.3h0l0,0c-.14-.12-.21-.19-.21-.22s.15-.08.38-.08a.57.57,0,0,0,.32-.1.39.39,0,0,0,.12-.24l0,0-.24,0-.28.11a4.87,4.87,0,0,0-1.16.43.41.41,0,0,1-.19.08.17.17,0,0,1-.13-.05,3.27,3.27,0,0,1-.33-.32s0,0,0,0,0,0,.09,0l.59-.09h0a4.15,4.15,0,0,1,.48-.11l.42-.09.58-.14a1.94,1.94,0,0,1,.8.11l.14.07c.09,0,.13.08.13.12s0,.08-.1.11l-.58.26a.11.11,0,0,0-.08.1.25.25,0,0,1,0,.08l0,0H62a15.12,15.12,0,0,1,1.52,0l.08,0a3.06,3.06,0,0,0,.33.36A.17.17,0,0,1,63.9,72.61Zm1-1q-.42-.09-.42-.21h0a.8.8,0,0,1,.27-.36,1.07,1.07,0,0,1,.53-.22c.08,0,.12,0,.11.07a1.24,1.24,0,0,0,0,.64v0c0,.09-.07.13-.2.13A1.54,1.54,0,0,1,64.92,71.6ZM70.29,71h-.15a9.14,9.14,0,0,1-1.19.08,4.05,4.05,0,0,0-.35.21.59.59,0,0,1-.24.09l-.27.09c0,.06,0,.11,0,.16s.06.1.1.1a5.84,5.84,0,0,1,1.5-.06.27.27,0,0,1,.18.22l0,.17a1,1,0,0,1,0,.18c0,.09,0,.14-.13.14l-.45-.12a3,3,0,0,0-.68,0,1.18,1.18,0,0,0-.44,0,2,2,0,0,0-.13.79,2.3,2.3,0,0,1-.28,1,.17.17,0,0,1-.12.06h0a5.43,5.43,0,0,1-1.27-.4c-.23-.1-.34-.19-.34-.28a0,0,0,0,1,0,0,6.19,6.19,0,0,0,.65.13h0l.43,0a.57.57,0,0,1,.13-.08,2,2,0,0,1,.12-.34v-.56c0-.07,0-.1-.07-.1h0a9.51,9.51,0,0,0-2,.41c-.15-.19-.2-.31-.17-.36a9.87,9.87,0,0,1,1.07-.3,6.28,6.28,0,0,1,1-.25c.09,0,.13-.06.13-.09l-.15-.29s0-.08.1-.1a.64.64,0,0,0,.43-.15c.11-.12.16-.19.16-.23a.08.08,0,0,0-.09-.09.44.44,0,0,0-.34.17,1.59,1.59,0,0,1-.19.16,3,3,0,0,0-.53.15,1.34,1.34,0,0,1-.41.22.33.33,0,0,1-.13,0,.48.48,0,0,1-.26-.38.08.08,0,0,1,.06-.08h.06a10.37,10.37,0,0,1,1.8-.48,5.21,5.21,0,0,1,.88.25,1.07,1.07,0,0,0,.31-.14.38.38,0,0,0,.16-.29.23.23,0,0,0-.15-.2.79.79,0,0,0-.31-.08h0a7.45,7.45,0,0,0-1.28.27,11,11,0,0,0-1.1.27,2.26,2.26,0,0,0-.75.15.16.16,0,0,1-.1,0,.2.2,0,0,1-.06-.14v0c0-.06.09-.1.25-.11.5-.19.86-.33,1.11-.41a3.55,3.55,0,0,0,.68-.27,6.43,6.43,0,0,0,.83-1c.11-.15.2-.22.26-.22h0a1,1,0,0,1,.58.4s-.09.09-.27.18a2.31,2.31,0,0,0-.29.25l-.38.37s0,0,0,0l.8.1,0,0c.78.41,1.17.7,1.17.89S70.35,71,70.29,71ZM74,73.34a.56.56,0,0,1-.17-.09c-.21-.19-.32-.29-.32-.32s.11-.11.34-.19l.69-.31a0,0,0,0,1,0,0l.6-.29a1.37,1.37,0,0,1,.52-.24s.06,0,.06.05a.19.19,0,0,1-.1.1s-.3.27-.82.7l-.58.41C74.14,73.27,74.06,73.34,74,73.34Zm1.39-1.59c0,.06,0,.09,0,.1a.17.17,0,0,1-.1,0,1.68,1.68,0,0,1-.81,0,.28.28,0,0,1-.11-.23.66.66,0,0,1,.08-.33s0,0,.08,0l.07,0,0,0a.6.6,0,0,0,.08.08,2.92,2.92,0,0,1,.57.25l.14.11h0ZM79.89,73a1.13,1.13,0,0,1-.48.11c-.58,0-1,0-1.09,0s-.41-.06-.41-.16-.17-.3-.25-.33l-.26-.18-.07,0a3,3,0,0,0-.67-.29.1.1,0,0,0-.08,0v.79a4.8,4.8,0,0,0,.06.56l.06.28a.33.33,0,0,1,0,.13l-.07,0a1.41,1.41,0,0,1-.37-.11l-.2-.07a4.58,4.58,0,0,1-1-.37L75,73.28a.9.9,0,0,1-.24-.16v0h.15a2.08,2.08,0,0,0,.54.1h0a.67.67,0,0,0,.42,0l0,0a4.05,4.05,0,0,0,0-1.05,4.71,4.71,0,0,1,0-.47,2.24,2.24,0,0,1,0-.62l0,0a1.63,1.63,0,0,0-.3,0,2.66,2.66,0,0,0-.83.14.78.78,0,0,1-.22.07l-.06,0s0,0,0,0a.55.55,0,0,1-.22-.4v0s0,0,0,0l.47-.06.59-.06a1.42,1.42,0,0,1,.34-.08,1.51,1.51,0,0,0,.29-.1c.07-.47.1-.71.11-.73s0-.23,0-.34,0-.41.1-.43l.16,0h0l0,0a.94.94,0,0,1,.36.13v0l-.11.09v0a2.35,2.35,0,0,0-.09,1c0,.05,0,.07.08.07l.61-.11a.09.09,0,0,1,.08,0,1.52,1.52,0,0,1,.3.4.08.08,0,0,1-.07.07l-.21,0h0l-.62.16-.07,0c-.06,0-.09.08-.09.17a.8.8,0,0,0,0,.37.16.16,0,0,0,.15.09.94.94,0,0,0,.24-.11l.1,0c.41-.27.64-.42.68-.43l0,0a.32.32,0,0,1,.16-.08.32.32,0,0,1,.22.13.25.25,0,0,1,.08.19l-.3.1a.84.84,0,0,0-.22.11,2.56,2.56,0,0,0-.68.4,5.67,5.67,0,0,0,1.31.81h.07l.78.17h0a1.3,1.3,0,0,1,.68.25A.13.13,0,0,0,79.89,73Zm6.94.72-.44.12a2.87,2.87,0,0,0-.6,0l-.61,0a2.16,2.16,0,0,0-.48,0c-.16,0-.25,0-.26-.09a1.25,1.25,0,0,0-.11-.29.76.76,0,0,0-.1-.12A1.15,1.15,0,0,0,83.6,73a2.87,2.87,0,0,1-.77-.25c-.64-.16-1-.21-1.06-.13a.41.41,0,0,0-.18.31.26.26,0,0,1-.18.16l-.12,0a2.51,2.51,0,0,1-.89.17c-.21,0-.31,0-.31-.09s.09-.1.27-.16l.63-.23a.81.81,0,0,1,.18-.1c.21-.21.34-.33.4-.38a1,1,0,0,0,.3-.51c0-.07,0-.1-.09-.1h0a3.48,3.48,0,0,0-1.24.3.34.34,0,0,1-.2-.12s0,0,0,0c-.07-.16-.07-.23,0-.23a19.76,19.76,0,0,1,2.8-.6,2.9,2.9,0,0,0,.46-.1.8.8,0,0,0-.17-.12,1,1,0,0,0-.27-.11,4,4,0,0,0-.75.25.21.21,0,0,1-.22-.16s0-.07,0-.17a3.33,3.33,0,0,1-.17-1.31.15.15,0,0,1,.13-.11l.16,0A9,9,0,0,1,84,69c.29,0,.46.06.5.14a2.19,2.19,0,0,0-.12.33c-.11.8-.16,1.25-.16,1.35s0,.12.1.12l.61-.09a.26.26,0,0,1,.21.12.72.72,0,0,1,.14.35s0,0,0,0a.1.1,0,0,1-.12.09,6.57,6.57,0,0,0-1.36,0h-.09a.14.14,0,0,0-.14.08.25.25,0,0,0,0,.07c0,.06,0,.08.09.08h.16a2,2,0,0,1,.54,0,.16.16,0,0,1,0,.1s0,.06,0,0a.48.48,0,0,1,0,.12s0,.07-.05.08a1.73,1.73,0,0,0-.74.15.37.37,0,0,0-.17.22.32.32,0,0,0,0,.08.14.14,0,0,0,.1.13l1,.38q1.59.33,2.13.48c.12,0,.18.08.18.11S86.88,73.67,86.83,73.69ZM91,70.45a1,1,0,0,1-.26.08.47.47,0,0,1-.36-.13.61.61,0,0,0-.37-.16.41.41,0,0,0-.19.08,1.46,1.46,0,0,0-.22.2.8.8,0,0,0-.22.23,1.44,1.44,0,0,0-.33.49.05.05,0,0,0,.06.06l.35-.15a2.39,2.39,0,0,1,.33-.12,1.26,1.26,0,0,1,1,0c.07,0,.11.07.11.1a.26.26,0,0,1-.09.21.29.29,0,0,0,0,.09.66.66,0,0,1,0,.13,1.71,1.71,0,0,1-.08.23l-.12.24s0,0,0,0c-.14.21-.28.32-.43.32a1.52,1.52,0,0,0-.5,0,.51.51,0,0,0-.14.34c-.06.21-.05.36,0,.43a.43.43,0,0,0,.23.08,1.62,1.62,0,0,0,.37-.06.26.26,0,0,0,.18-.14.68.68,0,0,0,.08-.31c0-.15.07-.22.17-.22a.09.09,0,0,1,.06,0l.16.39a2.16,2.16,0,0,1,.1.42c0,.07,0,.12-.06.15a.52.52,0,0,1-.21.07h0c-.63.11-1,.13-1.1,0a.71.71,0,0,1-.44-.54s0-.45.15-1.26c0-.06,0-.1,0-.1l-.22,0h0l-.14.09a1.43,1.43,0,0,0-.28.19.38.38,0,0,1-.13.08l-.11,0a2.28,2.28,0,0,1-.39.15l-.35.09h-.08a.12.12,0,0,1-.08,0,0,0,0,0,1,0,0,.05.05,0,0,1,0,0,.64.64,0,0,0,.14-.15.34.34,0,0,1,.11-.13s0,0,0,0a11.77,11.77,0,0,0,1.44-1.39l.77-.88a.21.21,0,0,0,.06-.08c.28-.29.46-.44.52-.44s.11,0,.17.13l.06,0a1.26,1.26,0,0,1,.1.15,3.5,3.5,0,0,1-.33.38c0,.06,0,.1.15.11a.91.91,0,0,0,.35,0q.39.06.39.21C91.29,70.29,91.21,70.37,91,70.45ZM93.45,74a4.47,4.47,0,0,1-1-.27l-.11,0a2.13,2.13,0,0,1-.44-.17c-.42-.22-.62-.38-.62-.5a.6.6,0,0,1,.24.09,2,2,0,0,0,.91.21.77.77,0,0,0,.38-.06s0-.52-.06-1.51c0-.36,0-.61,0-.74a.59.59,0,0,1,0-.13V69a.16.16,0,0,1,.07-.15.19.19,0,0,1,.11,0l.41.12c.18.06.27.13.27.19s0,0,0,0h0a5.13,5.13,0,0,0-.1,2.21,10.09,10.09,0,0,0,.17,2.46A.17.17,0,0,1,93.45,74Zm3.27-.64a.2.2,0,0,1-.18.09,3.56,3.56,0,0,1-.65-.22.06.06,0,0,0,0,0l0,0c-.23-.18-.39-.17-.47.05a.22.22,0,0,1-.18.08,1.79,1.79,0,0,1-.37-.13c-.07,0-.11-.08-.11-.12s.15-.24.44-.55l.09-.1a.17.17,0,0,1,.05,0l.1-.09s0,0,0,0h0l0,0a3,3,0,0,0-.71.2h-.07a.34.34,0,0,1-.19-.15.16.16,0,0,1,0-.16.3.3,0,0,1,.17-.07c.51-.13.78-.2.83-.2l.52-.18.3-.08s0,0,0,0a.15.15,0,0,0,0-.08.06.06,0,0,0-.06,0,1.65,1.65,0,0,0-.74.15l-.13,0a.59.59,0,0,1-.18-.3c.05,0,.09-.08.12-.08h.07a.44.44,0,0,1,.15-.05,5.2,5.2,0,0,0,1-.38c.18-.16.27-.3.27-.4s0-.09-.07-.09a.51.51,0,0,0-.36.24,1,1,0,0,1-.42.39l-.07,0h0c-.08,0-.12,0-.12-.14a.23.23,0,0,1,0-.11l.22-.44a.37.37,0,0,0-.23,0l-.31.09a.66.66,0,0,1-.15-.32,7.38,7.38,0,0,1,1.37-.33,1.87,1.87,0,0,1,1.09-.08h0v0c0,.15-.1.25-.29.31a.34.34,0,0,0-.16.06s0,0,0,0l0,0,.18.08q.29.15-.06.33c-.13.06-.2.12-.2.17a.06.06,0,0,1,0,0l.09,0a.4.4,0,0,1,.2,0,.21.21,0,0,1,0,.13c0,.1-.1.18-.29.26a2.33,2.33,0,0,0-.36.14.29.29,0,0,0,0,.09.1.1,0,0,0,.07.09,2.28,2.28,0,0,1,.43-.09.29.29,0,0,1,.17.07.33.33,0,0,1,.12.23c0,.06-.1.11-.28.14l-.09,0-.4.06c-.08,0-.11,0-.11.09v0a.91.91,0,0,0,.24.11c.2.08.3.16.3.25s0,.09-.1.14h0a2.25,2.25,0,0,1-.51,0,.61.61,0,0,0,0,.21v0A1.48,1.48,0,0,1,96.72,73.4Zm4-2.07-.16,0s0,0,0,0a2,2,0,0,0-.75,0,.26.26,0,0,0-.11.17,1.75,1.75,0,0,0-.08.53,7.77,7.77,0,0,0,0,1c0,.47,0,.84,0,1.09s-.11.16-.32.16a.33.33,0,0,1-.15,0c-.09-.05-.13-.33-.13-.82s0-.55,0-.61a5.6,5.6,0,0,0-.15-1.39.09.09,0,0,0-.07,0,.54.54,0,0,0-.22,0,.71.71,0,0,0-.5.68c.05.13,0,.31-.17.54A1.13,1.13,0,0,1,97,73v0a3,3,0,0,1,.31-.38l.24-.35a.2.2,0,0,1,0-.08s.08-.21.19-.52l.07-.31c0-.13,0-.24,0-.36q0-.87,0-.9a1.6,1.6,0,0,1,.58-.15h0a4.89,4.89,0,0,1,1.11-.29.26.26,0,0,1,.2.08.36.36,0,0,1,.11.21.65.65,0,0,0,0,.11s-.16.1-.41.18a1.45,1.45,0,0,1-.29.11c-.38,0-.6.1-.68.22s-.23.32-.19.44h.08c.9-.23,1.45-.35,1.64-.37l.3,0s.1,0,.18.12a1.55,1.55,0,0,1,.2.29.57.57,0,0,1,.09.2C100.88,71.29,100.83,71.33,100.73,71.33Z"/><path class="cls-1" d="M71.26,77.12v3h-.64l-.39-1.38v1.38h-.62v-3h.62l.42,1.36V77.12h.61m-2.71,1.95c0-.34-.08-.77-.12-1.27-.07.58-.12,1-.14,1.27Zm.39-1.95.42,3H68.6l0-.54H68.3l0,.54h-.77l.38-3Zm-1.7,0v3H66.5V78.88h-.22v1.27h-.74v-3h.74V78.2h.22V77.12Zm-2.11,0v2a2.57,2.57,0,0,1,0,.48.6.6,0,0,1-.12.29.64.64,0,0,1-.27.22,1,1,0,0,1-.4.08,1.06,1.06,0,0,1-.45-.09.64.64,0,0,1-.29-.24.56.56,0,0,1-.12-.3c0-.11,0-.33,0-.68V77.12h.74v2.27a1.18,1.18,0,0,0,0,.26s0,0,.09,0a.1.1,0,0,0,.09-.06,1.4,1.4,0,0,0,0-.29V77.12Zm-2,0-.33,3h-.92c-.09-.46-.16-1-.22-1.59q0,.39-.21,1.59h-.92l-.33-3H61L61,78.18l.07,1c0-.53.1-1.22.21-2.08h.77c0,.09,0,.42.08,1l.08,1.15c0-.73.11-1.45.2-2.15Z"/><path class="cls-1" d="M82,79.07c0-.34-.07-.77-.11-1.27-.08.58-.12,1-.14,1.27H82m.4-1.95.43,3h-.77l0-.54h-.27l0,.54h-.78l.39-3Zm-1.73,0v3H80l-.4-1.38v1.38H79v-3h.62L80,78.48V77.12Zm-2.11,0v3H77.8v-3Zm-1.18,0v3h-.75V78.88H76.4v1.27h-.76v-3h.76V78.2h.22V77.12Zm-2.13,1.32h-.75v-.53a1.48,1.48,0,0,0,0-.29.12.12,0,0,0-.11-.05.11.11,0,0,0-.12.07,1.53,1.53,0,0,0,0,.3v1.41a1.57,1.57,0,0,0,0,.29.12.12,0,0,0,.12.06.11.11,0,0,0,.11-.06,1.81,1.81,0,0,0,0-.32v-.38h.75v.12a2.52,2.52,0,0,1-.06.66.62.62,0,0,1-.28.35.9.9,0,0,1-.53.15,1,1,0,0,1-.55-.13.57.57,0,0,1-.28-.35,2.19,2.19,0,0,1-.07-.66v-.89c0-.22,0-.39,0-.49a.68.68,0,0,1,.13-.32.76.76,0,0,1,.29-.24,1.12,1.12,0,0,1,1,0,.65.65,0,0,1,.29.33,2.46,2.46,0,0,1,.06.63Z"/><path class="cls-1" d="M71.69,88.23c-27.23,0-49.38-14.66-49.38-32.68S44.46,22.86,71.69,22.86s49.38,14.66,49.38,32.69S98.92,88.23,71.69,88.23Zm0-64.26C45.07,24,23.41,38.13,23.41,55.55S45.07,87.12,71.69,87.12,120,73,120,55.55,98.31,24,71.69,24Z"/><path class="cls-1" d="M71.7,87.88c-22.31,0-40.46-14.46-40.46-32.24S49.39,23.4,71.7,23.4s40.46,14.46,40.46,32.24S94,87.88,71.7,87.88Zm0-63.37c-21.7,0-39.35,14-39.35,31.13S50,86.77,71.7,86.77s39.35-14,39.35-31.13S93.4,24.51,71.7,24.51Z"/><rect class="cls-1" x="44.74" y="28.16" width="53.73" height="1.11"/><rect class="cls-1" x="45.28" y="82.05" width="52.93" height="1.11"/><path class="cls-2" d="M26,88.8l-.19.24L24,87.65l.19-.24.11.09a.36.36,0,0,0,.35,0,.94.94,0,0,0,.35-.24,7.64,7.64,0,0,0,.67-.79l4.53-5.79a9,9,0,0,0,.63-.87.93.93,0,0,0,.12-.38.33.33,0,0,0-.13-.3l-.12-.09.19-.24,1.81,1.38-.19.24-.11-.09a.39.39,0,0,0-.35,0,1.09,1.09,0,0,0-.35.24,9.06,9.06,0,0,0-.67.79l-4.53,5.79a9,9,0,0,0-.63.87,1,1,0,0,0-.12.38.36.36,0,0,0,.13.31l.12.09"/><path class="cls-2" d="M37.18,83.21l-.18.28a1.16,1.16,0,0,0-.77.35c-.25.2-.74.73-1.53,1.55l-5.65,5.86L29,91.19l3.27-7.89c.46-1.11.78-1.74.84-1.94a.5.5,0,0,0-.08-.52l.19-.28L35,81.75,34.8,82l-.06,0a.42.42,0,0,0-.45,0,.71.71,0,0,0-.28.29,3.08,3.08,0,0,0-.2.34l-.51,1.09L30.7,89.3l3.77-4.06q.69-.73.9-1a3.51,3.51,0,0,0,.35-.46,2,2,0,0,0,.23-.43A.75.75,0,0,0,36,83a.49.49,0,0,0-.23-.34l.19-.28,1.23.82"/><path class="cls-2" d="M39.21,84.77,37,88.45l.08,0c.21.13.8.75,1.34.26.34-.31.2-.25.65-.86l.28.08-2,3.39-.3-.12c.32-.49.29-.34.42-.73a1.24,1.24,0,0,0,.14-.65c0-.17-.76-.61-.94-.71L35,91.81c-.31.52-.49.84-.55,1a.94.94,0,0,0-.07.34.32.32,0,0,0,.17.26l.23.13A1.16,1.16,0,0,0,36,93.4a3,3,0,0,0,1.18-1.08l.28.3-1.75,2.15L32.4,92.83l.15-.26.13.07a.36.36,0,0,0,.36,0,.91.91,0,0,0,.31-.26,9.28,9.28,0,0,0,.56-.86l3.73-6.22c.26-.43.41-.7.46-.8a1.08,1.08,0,0,0,.12-.44.36.36,0,0,0-.17-.36l-.13-.08.15-.26,3.22,1.88-1.16,2.31-.31-.15a2.33,2.33,0,0,0,.34-1,1.5,1.5,0,0,0,0-.9c-.05-.15-.23-.3-.52-.47l-.4-.24"/><path class="cls-2" d="M42.9,86.72,40.65,91l.16.07a1,1,0,0,0,.69.07,1.54,1.54,0,0,0,.66-.53,6.43,6.43,0,0,0,.77-1.2,5.53,5.53,0,0,0,.66-1.74.7.7,0,0,0-.38-.82l-.31-.13m-2.52,4.79-1.44,2.74a9.35,9.35,0,0,0-.49,1,.77.77,0,0,0,0,.39c0,.11.12.2.29.28l-.14.26-2-.86.14-.26a.48.48,0,0,0,.43,0,1.06,1.06,0,0,0,.3-.27,7,7,0,0,0,.56-1l3.34-6.34a9.35,9.35,0,0,0,.49-1,.77.77,0,0,0,0-.39c0-.11-.12-.2-.29-.28l.14-.27,1.79.78a1.75,1.75,0,0,1,.9.7,1.77,1.77,0,0,1,0,1.13,5.79,5.79,0,0,1-.6,1.64,5.48,5.48,0,0,1-1.25,1.65,1.87,1.87,0,0,1-.9.43l-.82,3.71c-.1.48-.15.79-.16.91a.41.41,0,0,0,.14.37l-.14.26-1.21-.53,1.1-5Z"/><path class="cls-2" d="M48.32,88.07l-1.21,3.46-.13,0a6.44,6.44,0,0,0,.3-2.23c-.06-.6-.22-.94-.5-1a.64.64,0,0,0-.67.26,2.35,2.35,0,0,0-.54.9,2.56,2.56,0,0,0-.11,1.43,8,8,0,0,0,.37,1.11,5,5,0,0,1,.42,2,6.71,6.71,0,0,1-1.62,4c-.51.54-1,.74-1.42.6a.77.77,0,0,1-.35-.22,2.06,2.06,0,0,1-.32-.51c-.07-.14-.13-.21-.2-.23s-.13,0-.23.09a1.75,1.75,0,0,0-.32.42l-.12,0,1.41-3.91.12,0a8.14,8.14,0,0,0-.36,2.68c.06.66.24,1,.55,1.13a.7.7,0,0,0,.74-.29,2.87,2.87,0,0,0,.61-1,4,4,0,0,0,.17-.74,3,3,0,0,0,0-.73,5.58,5.58,0,0,0-.3-1,7,7,0,0,1-.43-1.44,4.53,4.53,0,0,1,0-1.22,6,6,0,0,1,.34-1.37,5.6,5.6,0,0,1,1.14-2c.46-.5.89-.69,1.27-.57a.77.77,0,0,1,.37.25,1.51,1.51,0,0,1,.24.45c.09.21.16.33.22.34s.11,0,.17-.08a2.25,2.25,0,0,0,.3-.56l.1,0"/><path class="cls-2" d="M55.41,90.23l-.86,2.82-.11,0a8.46,8.46,0,0,0,.19-1.46,1.63,1.63,0,0,0-.14-.77c-.05-.12-.18-.2-.39-.25l-.32-.08-2.45,8a10.36,10.36,0,0,0-.27,1,1,1,0,0,0,0,.39.34.34,0,0,0,.25.23l.15,0-.09.28-2.3-.6.08-.28.15,0a.43.43,0,0,0,.36-.08.9.9,0,0,0,.24-.34,6.47,6.47,0,0,0,.34-1l2.44-8-.32-.08a.74.74,0,0,0-.78.28,6,6,0,0,0-.9,1.69l-.12,0,.86-2.82,3.95,1"/><path class="cls-2" d="M60.63,91.2l-.05.3a.64.64,0,0,0-.41.26,12.74,12.74,0,0,0-.86,1.76l-1.7,3.77-.46,2.63a10.09,10.09,0,0,0-.14,1,1,1,0,0,0,.08.38.37.37,0,0,0,.27.2l.26,0,0,.29L55,101.5l.06-.29.24,0a.38.38,0,0,0,.35-.12.74.74,0,0,0,.21-.36,7.65,7.65,0,0,0,.22-1l.38-2.18-.28-4.8A10.48,10.48,0,0,0,56,91.09a.41.41,0,0,0-.31-.3l.05-.3,2.23.33,0,.29h-.1a.32.32,0,0,0-.31.09.65.65,0,0,0-.13.28,10.72,10.72,0,0,0,0,1.48l.21,3.72L59,93.52A7.89,7.89,0,0,0,59.57,92a.65.65,0,0,0,0-.37.52.52,0,0,0-.39-.3l.05-.3,1.42.2"/><path class="cls-2" d="M65.55,92.46c-.42,0-.8.42-1.14,1.4a17.49,17.49,0,0,0-.69,3.52,14.33,14.33,0,0,0-.08,4.1c.11.63.34,1,.69,1a.68.68,0,0,0,.62-.34,4.75,4.75,0,0,0,.66-1.57,21.55,21.55,0,0,0,.52-2.88,23.59,23.59,0,0,0,.22-3.2A4.46,4.46,0,0,0,66.1,93c-.14-.31-.33-.48-.55-.5m0-.51q1.09,0,1.59,1.68a9.92,9.92,0,0,1,.2,4.05,11.66,11.66,0,0,1-.94,3.53q-.93,2-2.16,1.86c-.82-.08-1.37-.8-1.66-2.16a11.39,11.39,0,0,1-.09-3.73,10.14,10.14,0,0,1,1.17-3.91Q64.57,91.74,65.57,92Z"/><path class="cls-2" d="M69.16,93l-.08,4.45h.13a.62.62,0,0,0,.49-.21,1.91,1.91,0,0,0,.34-.73,7.49,7.49,0,0,0,.19-1.37h.11l-.09,5.44h-.11a5.3,5.3,0,0,0-.31-2Q69.56,98,69.2,98h-.13l0,3.32a8.7,8.7,0,0,0,0,1,.82.82,0,0,0,.14.36.35.35,0,0,0,.3.16h.15v.29l-2.35,0v-.3h.15a.35.35,0,0,0,.32-.16.94.94,0,0,0,.14-.38,10,10,0,0,0,0-1l.12-7.12c0-.55,0-.9,0-1a.92.92,0,0,0-.14-.37.41.41,0,0,0-.3-.16h-.15v-.29l3.79,0,0,3.11h-.13a6,6,0,0,0-.21-1.63,1.36,1.36,0,0,0-.54-.75,1.67,1.67,0,0,0-.74-.13h-.41"/><path class="cls-2" d="M81.15,91.61l.72,3.76-.13,0a6.47,6.47,0,0,0-1-2.15c-.37-.47-.73-.68-1.07-.61s-.51.29-.67.72A4.57,4.57,0,0,0,78.79,95a16.67,16.67,0,0,0,.31,2.73,19.61,19.61,0,0,0,.66,2.62,5.61,5.61,0,0,0,.83,1.72,1,1,0,0,0,1,.45,1,1,0,0,0,.71-.59,6,6,0,0,0,.46-1.68l.18.93a4.6,4.6,0,0,1-.54,1.53,1.32,1.32,0,0,1-.89.61,1.71,1.71,0,0,1-1.43-.46A5.1,5.1,0,0,1,78.79,101,12.53,12.53,0,0,1,78,98.28a12.4,12.4,0,0,1-.22-3,6,6,0,0,1,.51-2.33,1.61,1.61,0,0,1,1.08-1,1.56,1.56,0,0,1,1.11.31,1.18,1.18,0,0,0,.45.21c.08,0,.13-.08.15-.22a1.79,1.79,0,0,0,0-.61l.13,0"/><path class="cls-2" d="M86,101.58l.05.29-2.24.46,0-.29.14,0a.36.36,0,0,0,.27-.23.84.84,0,0,0,0-.4,6.79,6.79,0,0,0-.16-1l-1.36-7a7.72,7.72,0,0,0-.23-1,.81.81,0,0,0-.21-.32.35.35,0,0,0-.32-.1l-.14,0-.05-.29L84,91.24l0,.29-.14,0a.39.39,0,0,0-.27.23.84.84,0,0,0-.05.4,8.09,8.09,0,0,0,.15,1l1.36,7a9,9,0,0,0,.24,1,.93.93,0,0,0,.21.33.3.3,0,0,0,.31.09l.15,0"/><path class="cls-2" d="M114,78.45l4.89,7a6,6,0,0,0,.5.67.43.43,0,0,0,.22.13.34.34,0,0,0,.3-.06c.34-.24.42-.67.25-1.3a12.63,12.63,0,0,0-1.84-3.43,15,15,0,0,0-2.18-2.59,2.75,2.75,0,0,0-1.28-.75,1.22,1.22,0,0,0-.86.31M118.35,88l-.17-.24.13-.1a.37.37,0,0,0,.19-.31,1,1,0,0,0-.09-.44,9.77,9.77,0,0,0-.55-.85l-4.13-5.93a8.37,8.37,0,0,0-.63-.84.88.88,0,0,0-.35-.2.39.39,0,0,0-.36.06l-.14.1-.17-.25,1.84-1.29a2,2,0,0,1,1.5-.39,4.24,4.24,0,0,1,2,1.05,12.18,12.18,0,0,1,2,2.26,12,12,0,0,1,1.07,1.85,7.23,7.23,0,0,1,.56,1.58,3.31,3.31,0,0,1,.07,1.19,2.26,2.26,0,0,1-.37,1,1.84,1.84,0,0,1-.53.49Z"/><path class="cls-2" d="M130,43.8l3.69-1,.89,3.83-.28.08,0-.14a.34.34,0,0,0-.24-.25.8.8,0,0,0-.4,0,9.57,9.57,0,0,0-1,.26l-6.82,2.1a8.61,8.61,0,0,0-1,.34,1.15,1.15,0,0,0-.32.25.37.37,0,0,0-.08.33l0,.15-.29.08-.54-2.29.29-.09,0,.19a.34.34,0,0,0,.23.25,1,1,0,0,0,.4,0,8.89,8.89,0,0,0,1-.26l6.62-2a10,10,0,0,0,1-.35.67.67,0,0,0,.29-.25.65.65,0,0,0,0-.41l-.08-.36a.69.69,0,0,0-.43-.48,2.55,2.55,0,0,0-1-.11,16.13,16.13,0,0,0-1.93.25l0-.13"/><path class="cls-2" d="M21,33.74,18.2,31.83a8.82,8.82,0,0,0-.88-.55.94.94,0,0,0-.4-.07.4.4,0,0,0-.32.2l-.1.14-.24-.17,1.51-2.21.24.17-.1.14a.45.45,0,0,0-.06.39.79.79,0,0,0,.24.34,6.37,6.37,0,0,0,.81.61l5.92,4a7.17,7.17,0,0,0,.88.55.81.81,0,0,0,.4.07.43.43,0,0,0,.32-.19l.1-.14.24.16-1.51,2.21L25,37.36l.09-.14a.43.43,0,0,0,.07-.39.87.87,0,0,0-.23-.35,6.12,6.12,0,0,0-.82-.6l-2.55-1.74-1,1.49,2.54,1.74a7,7,0,0,0,.89.55.79.79,0,0,0,.4.07.42.42,0,0,0,.32-.2l.09-.13.25.16L23.54,40l-.24-.17.09-.13a.44.44,0,0,0,.06-.4.81.81,0,0,0-.23-.34,6.37,6.37,0,0,0-.81-.61l-5.92-4a6.31,6.31,0,0,0-.89-.55.77.77,0,0,0-.39-.07.42.42,0,0,0-.33.2l-.09.13-.25-.16,1.51-2.21.25.17-.1.13a.48.48,0,0,0-.06.4.92.92,0,0,0,.23.34,6,6,0,0,0,.82.61L20,35.23l1-1.49"/><path class="cls-2" d="M23.37,40.13l-1.48,2.22-.26-.17.08-.11a.52.52,0,0,0,.12-.41.86.86,0,0,0-.22-.34,8.66,8.66,0,0,0-1-.7l-4.52-3a10.87,10.87,0,0,0-1.7-1,2.09,2.09,0,0,0-.85-.16.74.74,0,0,0-.6.33.84.84,0,0,0-.06.82,2.77,2.77,0,0,0,.68,1,13.38,13.38,0,0,0,2,1.5l3.76,2.5a5.28,5.28,0,0,0,.92.53.94.94,0,0,0,.47.09.6.6,0,0,0,.43-.3l.25.17-1,1.49-.26-.17.06-.09a.43.43,0,0,0,.05-.4,1.36,1.36,0,0,0-.35-.49,6.48,6.48,0,0,0-.76-.56l-3.5-2.33a24.72,24.72,0,0,1-2.28-1.67,3.76,3.76,0,0,1-1-1.37,1.44,1.44,0,0,1,.1-1.46,1.37,1.37,0,0,1,.89-.65,3,3,0,0,1,1.51.16,9.59,9.59,0,0,1,1.94,1l4.52,3a6.46,6.46,0,0,0,1,.61.87.87,0,0,0,.4.07.56.56,0,0,0,.36-.3l.26.16"/><path class="cls-2" d="M14.06,43.25l3.34.67-2.71-1.84-.63,1.17m-.69-.15.75-1.59-1.32-1c-.3-.23-.37-.38-.58-.48a1.15,1.15,0,0,0-.69-.15q-.15,0-.36.36l-.27-.13.61-1.5.28.13a.86.86,0,0,0,.28.61,6.24,6.24,0,0,0,1.18,1.11l7.3,5.32-.12.23-8.75-2.36A8.16,8.16,0,0,0,10,43.36c-.18,0-.49.07-.57.2l-.27-.14,1.06-2.17.27.13,0,.09a.47.47,0,0,0,0,.45.8.8,0,0,0,.31.23,1.62,1.62,0,0,0,.28.11,3.07,3.07,0,0,1,.6.17Z"/><path class="cls-2" d="M19.14,50.37,9.43,45.88l-.16.86a1.55,1.55,0,0,0,0,.89,2.2,2.2,0,0,0,.93.87,7.94,7.94,0,0,0,2,.77l0,.13-3.87-.88.75-4.15,9.73,4.5.12-.68a1.51,1.51,0,0,0,0-.52,1.06,1.06,0,0,0-.33-.51,2.56,2.56,0,0,0-.76-.49,8,8,0,0,0-1.25-.44l0-.12,3.13.68-.64,3.58"/><path class="cls-2" d="M13,51.94l-3.37-.41a8.87,8.87,0,0,0-1.05-.08,1,1,0,0,0-.39.11.38.38,0,0,0-.19.3l0,.16-.29,0,.27-2.51.29,0v.16a.41.41,0,0,0,.13.36,1,1,0,0,0,.37.19,8.75,8.75,0,0,0,1,.16l7.18.86a8.61,8.61,0,0,0,1.05.08.94.94,0,0,0,.38-.11.38.38,0,0,0,.19-.3l0-.16.3,0-.27,2.51-.3,0V53.1a.38.38,0,0,0-.13-.36,1,1,0,0,0-.37-.19,8.75,8.75,0,0,0-1-.16L13.67,52l-.18,1.7,3.09.37a8.87,8.87,0,0,0,1.05.08.8.8,0,0,0,.38-.11.38.38,0,0,0,.19-.31l0-.15.3,0-.27,2.51-.3,0L18,56a.42.42,0,0,0-.14-.36,1,1,0,0,0-.37-.19,8.35,8.35,0,0,0-1-.16l-7.17-.86a8.87,8.87,0,0,0-1-.08.89.89,0,0,0-.38.11.39.39,0,0,0-.2.31l0,.15-.29,0,.27-2.51.3,0,0,.16a.41.41,0,0,0,.13.36,1,1,0,0,0,.37.19,8.75,8.75,0,0,0,1,.16l3.38.4L13,51.94"/><path class="cls-2" d="M18.08,58.16c0-.41-.59-.7-1.64-.86a19.09,19.09,0,0,0-3.68-.06,15,15,0,0,0-4.14.64c-.62.22-.91.5-.88.85a.72.72,0,0,0,.46.55,5.26,5.26,0,0,0,1.71.36,21.33,21.33,0,0,0,3,0,23.63,23.63,0,0,0,3.26-.34,4.73,4.73,0,0,0,1.5-.52.69.69,0,0,0,.4-.62m.51-.07c.14.72-.33,1.34-1.38,1.85a10.59,10.59,0,0,1-4,.9,12.36,12.36,0,0,1-3.75-.3c-1.45-.37-2.21-1-2.29-1.77s.54-1.49,1.85-2A12,12,0,0,1,12.73,56a10.59,10.59,0,0,1,4.16.46C18,56.89,18.6,57.42,18.59,58.09Z"/><path class="cls-2" d="M19,61.46l-6,3.9,4.57-1a4.38,4.38,0,0,0,1.26-.41.6.6,0,0,0,.31-.69l.29-.06.37,1.63-.3.06a.8.8,0,0,0-.31-.37,1.22,1.22,0,0,0-.48-.07,7.3,7.3,0,0,0-1.08.18l-8.84,2,0-.13,8.1-5.31L10,62.66a2.69,2.69,0,0,0-1.19.47.58.58,0,0,0-.23.52l0,.12-.29.06L8,62.08,8.25,62a.59.59,0,0,0,.49.48A3.19,3.19,0,0,0,10,62.4l7.5-1.68.26-.17a1.74,1.74,0,0,0,.49-.4.47.47,0,0,0,.07-.38l.29-.06L19,61.46"/><path class="cls-2" d="M21.24,67.87l-3.53,1.59,0-.12a7.66,7.66,0,0,0,2-1.61c.39-.49.53-.91.4-1.24S19.6,66,19.1,66a5.94,5.94,0,0,0-1.93.35,23,23,0,0,0-2.37.91,22.07,22.07,0,0,0-2.46,1.28,4.75,4.75,0,0,0-1.42,1.17,1,1,0,0,0-.22,1,.73.73,0,0,0,.2.27,1.33,1.33,0,0,0,.35.23l3.47-1.34a3.69,3.69,0,0,0,.75-.38,1,1,0,0,0,.26-.28.37.37,0,0,0,0-.32l0-.11.27-.12.69,1.85-.27.12a.46.46,0,0,0-.27-.25.87.87,0,0,0-.44,0,5.81,5.81,0,0,0-.7.28l-3.37,1.52a2.93,2.93,0,0,1-1-.55,2,2,0,0,1-.57-.8,1.5,1.5,0,0,1,0-1.16,4.34,4.34,0,0,1,.75-1.15,7.12,7.12,0,0,1,1.24-1.11,13.14,13.14,0,0,1,2.19-1.24,10.84,10.84,0,0,1,4.07-1.05c1.21,0,1.94.3,2.2,1a1.33,1.33,0,0,1,.1.61,2,2,0,0,1-.17.59,1.4,1.4,0,0,0-.13.49s.09.08.21.09a2.75,2.75,0,0,0,.62-.12l0,.11"/><path class="cls-2" d="M23.06,70.37l1.6,2.14-.25.18-.08-.1a.51.51,0,0,0-.35-.26.87.87,0,0,0-.39.1,7.37,7.37,0,0,0-1,.67l-4.35,3.24a11.25,11.25,0,0,0-1.52,1.26,2.2,2.2,0,0,0-.44.76.75.75,0,0,0,.11.67.86.86,0,0,0,.75.33,2.88,2.88,0,0,0,1.16-.31,14.52,14.52,0,0,0,2.07-1.36L24,75a5.44,5.44,0,0,0,.8-.7.93.93,0,0,0,.25-.4.64.64,0,0,0-.14-.5l.24-.19,1.07,1.44-.24.18-.07-.09a.45.45,0,0,0-.36-.18,1.41,1.41,0,0,0-.58.17,5.93,5.93,0,0,0-.78.52l-3.38,2.52a22.39,22.39,0,0,1-2.33,1.59,3.9,3.9,0,0,1-1.62.48,1.45,1.45,0,0,1-1.35-.58,1.39,1.39,0,0,1-.31-1.06,3,3,0,0,1,.65-1.37,9.84,9.84,0,0,1,1.65-1.48l4.34-3.24a8.91,8.91,0,0,0,.93-.75A.79.79,0,0,0,23,71a.57.57,0,0,0-.16-.44l.24-.18"/><path class="cls-2" d="M28.09,76.09,24.81,82.5l3.44-3.17a4.39,4.39,0,0,0,.89-1,.61.61,0,0,0-.08-.75l.22-.2,1.13,1.23-.22.2a.79.79,0,0,0-.46-.16,1.1,1.1,0,0,0-.45.18,6.63,6.63,0,0,0-.84.69l-6.67,6.13-.09-.09L26,76.92,21,81.6a2.75,2.75,0,0,0-.8,1,.55.55,0,0,0,.07.56l.08.09-.22.2-1.21-1.32.22-.2a.58.58,0,0,0,.66.17,3.3,3.3,0,0,0,1-.71l5.65-5.19.14-.28a1.86,1.86,0,0,0,.23-.6.49.49,0,0,0-.13-.36l.22-.2,1.21,1.32"/><path class="cls-2" d="M47.57,99.1l-.09.28-2.18-.65.1-.29.13,0a.38.38,0,0,0,.35-.08.87.87,0,0,0,.25-.33,8,8,0,0,0,.35-1l2.27-6.8a9.29,9.29,0,0,0,.29-1,.84.84,0,0,0,0-.39.3.3,0,0,0-.23-.23l-.14,0,.1-.29,2.18.66-.1.28-.14,0a.39.39,0,0,0-.34.07,1.07,1.07,0,0,0-.25.33,8.84,8.84,0,0,0-.35.95l-2.27,6.8a10.31,10.31,0,0,0-.3,1,.79.79,0,0,0,0,.38.31.31,0,0,0,.23.24l.13,0"/><path class="cls-2" d="M76.23,91.93l.7,3.62-.15,0a6.07,6.07,0,0,0-.9-2.1c-.37-.5-.7-.71-1-.65a.66.66,0,0,0-.49.55,2.3,2.3,0,0,0,0,1.05,2.6,2.6,0,0,0,.19.63,2.86,2.86,0,0,0,.46.67,8.17,8.17,0,0,0,.94.79,5.54,5.54,0,0,1,1.45,1.54A5.92,5.92,0,0,1,78,99.91a5.52,5.52,0,0,1,0,2.44c-.19.72-.53,1.13-1,1.22a.82.82,0,0,1-.44,0,2.37,2.37,0,0,1-.58-.29.49.49,0,0,0-.3-.1c-.07,0-.12.08-.17.2a1.62,1.62,0,0,0-.08.52l-.13,0-.74-4.11.13,0a7.74,7.74,0,0,0,1.08,2.52q.6.81,1.11.72a.73.73,0,0,0,.54-.62,2.63,2.63,0,0,0,0-1.19,3.08,3.08,0,0,0-.22-.73,3.52,3.52,0,0,0-.4-.63,5.77,5.77,0,0,0-.8-.71,7.52,7.52,0,0,1-1.16-1A4.3,4.3,0,0,1,74.19,97a6.22,6.22,0,0,1-.41-1.36,5.52,5.52,0,0,1,0-2.3c.17-.67.47-1,.89-1.13a.88.88,0,0,1,.48,0,1.86,1.86,0,0,1,.47.27c.19.14.31.21.38.2a.19.19,0,0,0,.12-.16,3,3,0,0,0,0-.64l.11,0"/><path class="cls-2" d="M86.4,91.27l.85,4.23.09,0c.24-.06,1.1,0,1.16-.73,0-.46,0-.31-.12-1.07l.27-.13.83,3.86-.31.12c-.09-.58,0-.45-.18-.82s-.21-.46-.35-.58a3.26,3.26,0,0,0-1.17.13l.64,3a10.7,10.7,0,0,0,.27,1.09,1.09,1.09,0,0,0,.18.3.3.3,0,0,0,.3.06l.26-.06a1.12,1.12,0,0,0,.82-.92,3,3,0,0,0,.14-1.59l.4,0,.19,2.77-3.76.85-.06-.3.14,0a.37.37,0,0,0,.27-.23,1,1,0,0,0,0-.42,7.11,7.11,0,0,0-.18-1l-1.51-7.09q-.16-.74-.21-.9a1.14,1.14,0,0,0-.21-.4.36.36,0,0,0-.38-.14l-.15,0-.06-.3,3.64-.82L89,92.68l-.33.1a2.47,2.47,0,0,0-.46-1,1.57,1.57,0,0,0-.64-.64,1.09,1.09,0,0,0-.7,0l-.45.1"/><path class="cls-2" d="M90.42,89.8l4.44,5.78L93.5,91.09A3.94,3.94,0,0,0,93,89.86a.63.63,0,0,0-.72-.27l-.09-.28,1.65-.47.09.29a.84.84,0,0,0-.36.33,1,1,0,0,0,0,.49A5.89,5.89,0,0,0,93.77,91l2.65,8.7-.13,0-6-7.73,2,6.64a2.54,2.54,0,0,0,.57,1.15.55.55,0,0,0,.54.19l.12,0,.09.28-1.78.51-.09-.29a.58.58,0,0,0,.47-.51A3.08,3.08,0,0,0,92,98.72l-2.24-7.37-.2-.24a1.85,1.85,0,0,0-.44-.47.53.53,0,0,0-.4,0l-.09-.28,1.78-.51"/><path class="cls-2" d="M97.68,87.42l1.18,3.64-.12,0a6.78,6.78,0,0,0-1.25-2c-.42-.42-.8-.58-1.13-.48s-.47.36-.58.81a4.66,4.66,0,0,0,0,1.64,16.41,16.41,0,0,0,.63,2.67,22.11,22.11,0,0,0,1,2.52,5.59,5.59,0,0,0,1,1.6,1,1,0,0,0,1,.33,1,1,0,0,0,.63-.67,5.88,5.88,0,0,0,.25-1.73l.29.91a4.39,4.39,0,0,1-.34,1.58,1.32,1.32,0,0,1-.81.71A1.66,1.66,0,0,1,98,98.69,5,5,0,0,1,96.5,97a13,13,0,0,1-1.76-5.56A6.07,6.07,0,0,1,95,89.1a1.61,1.61,0,0,1,1-1.12,1.57,1.57,0,0,1,1.14.16c.26.13.42.18.47.16s.11-.1.12-.24a1.66,1.66,0,0,0-.08-.6l.12,0"/><path class="cls-2" d="M99.87,87.33l1.57,4,.08,0c.24-.1,1.09-.19,1-.92,0-.45-.08-.3-.3-1l.24-.18L104,92.84l-.27.17c-.2-.55-.1-.44-.33-.78s-.29-.41-.44-.5-.94.24-1.14.32L103,94.93a10.55,10.55,0,0,0,.45,1,.9.9,0,0,0,.23.27.31.31,0,0,0,.31,0l.24-.1a1.15,1.15,0,0,0,.66-1,3.11,3.11,0,0,0-.15-1.6l.4,0,.67,2.69-3.55,1.49-.12-.28.14-.06a.36.36,0,0,0,.22-.28.85.85,0,0,0,0-.41,8.1,8.1,0,0,0-.35-1L99.35,88.9q-.28-.69-.36-.84a1.12,1.12,0,0,0-.28-.36.38.38,0,0,0-.4-.08l-.14.06-.11-.28L101.5,86l1.15,2.31-.31.16a2.37,2.37,0,0,0-.62-.89A1.51,1.51,0,0,0,101,87a1.18,1.18,0,0,0-.69.13l-.42.18"/><path class="cls-2" d="M109.5,89.17l-2.35-2.47,1.17,3.06,1.18-.59m.49.52-1.52.87.52,1.55c.12.35.08.52.2.72a1.14,1.14,0,0,0,.48.51c.1,0,.26,0,.5-.08l.15.26L109,94.4l-.15-.27a.84.84,0,0,0,.11-.66,6.23,6.23,0,0,0-.32-1.58l-2.94-8.55.24-.11,5.81,7a7.35,7.35,0,0,0,1.16,1.2.86.86,0,0,0,.57.17l.15.26L111.48,93l-.15-.27.08,0a.44.44,0,0,0,.24-.37.83.83,0,0,0-.12-.38,1.84,1.84,0,0,0-.17-.25,2.85,2.85,0,0,1-.39-.48Z"/><path class="cls-2" d="M109,81.47l6,4.08-2.71-3.83a4.73,4.73,0,0,0-.88-1,.63.63,0,0,0-.77,0l-.18-.24,1.43-1,.17.25a.82.82,0,0,0-.24.43,1,1,0,0,0,.12.47,6.23,6.23,0,0,0,.58.93L117.84,89l-.11.07-8.16-5.44,4,5.67a2.75,2.75,0,0,0,.9.92.59.59,0,0,0,.58,0l.1-.07.17.25-1.52,1-.17-.24a.62.62,0,0,0,.28-.64,3.37,3.37,0,0,0-.57-1.1l-4.45-6.28-.26-.18a2.12,2.12,0,0,0-.58-.3.53.53,0,0,0-.39.08l-.17-.24,1.53-1"/><path class="cls-2" d="M119.48,71.31l2.35,1.8-.07.1a9.56,9.56,0,0,0-1.3-.7,1.8,1.8,0,0,0-.78-.14c-.12,0-.24.1-.37.28l-.19.27L125.8,78a6.59,6.59,0,0,0,.85.6.74.74,0,0,0,.37.1.37.37,0,0,0,.31-.15l.08-.13.24.18-1.37,2-.23-.18.08-.12a.38.38,0,0,0,.05-.36.83.83,0,0,0-.23-.35,5.78,5.78,0,0,0-.78-.65l-6.68-5.11-.18.27a.72.72,0,0,0,0,.83,5.93,5.93,0,0,0,1.27,1.43l-.08.1-2.34-1.8,2.34-3.34"/><path class="cls-2" d="M121.11,69.93l3.64,2.31,0-.07c.13-.22.76-.8.28-1.35-.31-.34-.25-.19-.85-.65l.08-.29L127.67,72l-.12.3c-.48-.33-.34-.3-.72-.44a1.39,1.39,0,0,0-.66-.14c-.17,0-.61.75-.72.93l2.64,1.64a8.78,8.78,0,0,0,1,.55.76.76,0,0,0,.34.08.29.29,0,0,0,.25-.17l.14-.23a1.16,1.16,0,0,0-.09-1.23,3,3,0,0,0-1.07-1.2l.3-.27,2.13,1.77-2,3.3-.26-.16.08-.12a.38.38,0,0,0,0-.36.92.92,0,0,0-.26-.32,7.43,7.43,0,0,0-.86-.57l-6.17-3.81a8.34,8.34,0,0,0-.79-.47,1.27,1.27,0,0,0-.43-.13.36.36,0,0,0-.37.18l-.08.12-.26-.16,1.93-3.19,2.29,1.19-.15.3a2.33,2.33,0,0,0-1-.34,1.52,1.52,0,0,0-.9,0,1.17,1.17,0,0,0-.48.52l-.24.39"/><path class="cls-2" d="M123.16,64.5l3.65,1.14,0,.13a6.78,6.78,0,0,0-2.37-.15c-.59.1-.94.32-1,.65a1,1,0,0,0,.32.93,4.36,4.36,0,0,0,1.33,1,15.08,15.08,0,0,0,2.54,1,21.36,21.36,0,0,0,2.63.65,5.53,5.53,0,0,0,1.9.08,1,1,0,0,0,.86-.64,1,1,0,0,0-.19-.9,5.66,5.66,0,0,0-1.26-1.2l.91.28a4.39,4.39,0,0,1,1.09,1.2,1.35,1.35,0,0,1,.12,1.07,1.7,1.7,0,0,1-1.08,1,5,5,0,0,1-2.22.24,12.37,12.37,0,0,1-2.79-.54,12.84,12.84,0,0,1-2.76-1.23A6,6,0,0,1,123,67.7a1.36,1.36,0,0,1,.43-2.26,1.25,1.25,0,0,0,.41-.29c0-.07,0-.15-.13-.24a1.94,1.94,0,0,0-.55-.28l0-.13"/><path class="cls-2" d="M129.3,63.67l3.31.77c.55.12.9.19,1,.2a1,1,0,0,0,.39-.08.39.39,0,0,0,.23-.28l0-.15.29.06-.54,2.47-.29-.07,0-.15a.42.42,0,0,0-.1-.37,1,1,0,0,0-.35-.23,9.82,9.82,0,0,0-1-.27L125.32,64a8.06,8.06,0,0,0-1-.2.94.94,0,0,0-.39.07.41.41,0,0,0-.23.28l0,.16-.29-.07.53-2.46.3.06,0,.16a.39.39,0,0,0,.1.37.9.9,0,0,0,.34.23c.13.05.45.14,1,.27l3,.69.37-1.66-3-.7a8.06,8.06,0,0,0-1-.2.85.85,0,0,0-.39.07.4.4,0,0,0-.23.29l0,.15-.29-.07.53-2.46.3.06,0,.16a.36.36,0,0,0,.09.37,1,1,0,0,0,.35.23,8.29,8.29,0,0,0,1,.26l7,1.63a7.65,7.65,0,0,0,1,.19.85.85,0,0,0,.39-.07.41.41,0,0,0,.23-.28l0-.15.29.06-.54,2.47-.29-.07,0-.15a.42.42,0,0,0-.1-.37A.87.87,0,0,0,134,63a5.81,5.81,0,0,0-1-.27L129.66,62l-.36,1.66"/><path class="cls-2" d="M124.68,57l6.92-2.3-4.69-.19a4.5,4.5,0,0,0-1.33.08.64.64,0,0,0-.49.6h-.3l.1-1.71h.3a1,1,0,0,0,.2.45,1.06,1.06,0,0,0,.45.19,6.41,6.41,0,0,0,1.09.11l9.08.36v.13l-9.29,3.16,6.94.27a2.76,2.76,0,0,0,1.28-.15.59.59,0,0,0,.36-.46V57.4h.3l-.11,1.84h-.3a.59.59,0,0,0-.33-.61,3.14,3.14,0,0,0-1.22-.22l-7.7-.3-.29.1a1.86,1.86,0,0,0-.59.26.56.56,0,0,0-.18.36h-.29l.1-1.84"/><path class="cls-2" d="M125,51.59c.07.42.63.67,1.68.76a18.92,18.92,0,0,0,3.65-.2,15.77,15.77,0,0,0,4.08-.93c.59-.27.86-.58.81-.92a.7.7,0,0,0-.49-.53,5.25,5.25,0,0,0-1.72-.25,21.55,21.55,0,0,0-3,.22,21.19,21.19,0,0,0-3.21.58,4.5,4.5,0,0,0-1.46.62.73.73,0,0,0-.36.65m-.5.11c-.18-.72.24-1.37,1.25-2a10.41,10.41,0,0,1,4-1.19,12.17,12.17,0,0,1,3.73,0c1.47.27,2.26.82,2.38,1.63s-.44,1.54-1.71,2.15a11.57,11.57,0,0,1-3.67,1,10.57,10.57,0,0,1-4.16-.17C125.11,52.88,124.51,52.38,124.48,51.7Z"/><path class="cls-2" d="M119,39l3.28-2.19.07.1a7.81,7.81,0,0,0-1.69,1.94q-.47.84-.18,1.29c.18.28.52.39,1,.32a6.13,6.13,0,0,0,1.89-.69,23.27,23.27,0,0,0,2.23-1.32,22.57,22.57,0,0,0,2.28-1.69,5.05,5.05,0,0,0,1.22-1.41,1,1,0,0,0,0-1,.64.64,0,0,0-.25-.24,1.67,1.67,0,0,0-.4-.16l-3.27,1.94a4,4,0,0,0-.7.5,1,1,0,0,0-.21.33.36.36,0,0,0,0,.32l.06.1-.25.17-1-1.7.25-.17a.52.52,0,0,0,.33.2,1,1,0,0,0,.44-.11,5.72,5.72,0,0,0,.65-.4l3.15-2.09a2.92,2.92,0,0,1,1.09.36,2,2,0,0,1,.72.68,1.48,1.48,0,0,1,.21,1.15,4.24,4.24,0,0,1-.55,1.26,8.2,8.2,0,0,1-1,1.32,13.22,13.22,0,0,1-2,1.61,11.11,11.11,0,0,1-3.94,1.76c-1.22.24-2,.05-2.41-.56a1.32,1.32,0,0,1-.21-.58,2,2,0,0,1,.06-.62,1.62,1.62,0,0,0,.05-.5c0-.05-.11-.07-.24-.05a3.14,3.14,0,0,0-.61.23L119,39"/><path class="cls-2" d="M115.81,34.69l.24-.19a.61.61,0,0,0,.48.1,14,14,0,0,0,1.83-.69l3.82-1.59,2.14-1.59a8.64,8.64,0,0,0,.82-.66.92.92,0,0,0,.2-.34.33.33,0,0,0-.06-.33l-.16-.21.24-.17L127,31.08l-.24.18-.15-.2a.42.42,0,0,0-.35-.15,1.06,1.06,0,0,0-.4.12,7.81,7.81,0,0,0-.84.58l-1.77,1.32-3.09,3.69a10.44,10.44,0,0,0-1,1.35.39.39,0,0,0,0,.43l-.24.18-1.4-1.76.24-.18.06.08a.32.32,0,0,0,.29.14.54.54,0,0,0,.28-.11,8.41,8.41,0,0,0,1-1.1l2.39-2.84-3.18,1.32a9.38,9.38,0,0,0-1.49.72.7.7,0,0,0-.24.29.56.56,0,0,0,.07.49l-.24.18-.89-1.12"/><path class="cls-2" d="M122.76,44.15c.18.38.78.45,1.81.22A18.45,18.45,0,0,0,128,43.1a15.45,15.45,0,0,0,3.6-2.1c.49-.44.65-.81.51-1.12a.7.7,0,0,0-.62-.36,5.12,5.12,0,0,0-1.71.28A20,20,0,0,0,127,40.88a23.4,23.4,0,0,0-2.89,1.51,4.63,4.63,0,0,0-1.2,1,.71.71,0,0,0-.15.73m-.45.25c-.38-.63-.17-1.38.62-2.24a10.43,10.43,0,0,1,3.41-2.32,12,12,0,0,1,3.56-1.07c1.47-.18,2.38.11,2.73.85s0,1.6-1,2.56a11.72,11.72,0,0,1-3.19,2.06,10.6,10.6,0,0,1-4,1.07C123.25,45.34,122.54,45,122.31,44.4Z"/><path class="cls-2" d="M57.7,11.73l.33-.07a12.23,12.23,0,0,1,2.12-1.31c.35-.14.9-.16,1.12-.5a1.21,1.21,0,0,0-.66-1.71c-.12,0-.17.07-.22.18.19.29-.92,1-1,1.2a13.19,13.19,0,0,0-1.75,2c0,.05-.33.27-.26.34S57.61,11.78,57.7,11.73Zm40.59,4.4a1.12,1.12,0,0,0-.76.11,8.59,8.59,0,0,1-1.13,0c-.14-.14.53-.88.58-1,.22-.22.77-.79,1-1a.8.8,0,0,0,.38-.39c.19-.44-.22-1.17-.35-1.6-.06-.14-.22-.75-.39-.81l-.32.08-.17.24a4,4,0,0,0-.3.75,18.21,18.21,0,0,1-2.46,3.56A21,21,0,0,1,91,15.88c-.36-.11-1-.54-1.37-.34-.12.19.13.62.21.79l.21.56c.14.28.35.73.7.78a10.23,10.23,0,0,1,2.19-.26c0,.29-.44.48-.62.59a7.57,7.57,0,0,1-2,.63,12.12,12.12,0,0,1-1.9-.12c-.16,0-.59-.19-.7,0s.75.59.79.64a4.15,4.15,0,0,0,1.21.51c2,.47,4-1.09,5.37-2.34a4.43,4.43,0,0,1,1-.09l1.57,0,1,.18.26-.13C99.18,16.87,98.73,16.26,98.29,16.13Zm18.53,5.43c-.09-.29-.23-.71-.54-.82-.74-.18-1.6-.5-2.33-.72-.21,0-.8.06-.7-.3,1.17-.09,1.61.3,1.41-1.23,0-.41-.29-.86-.73-.52-.11.21-.66.33-.86.38a.45.45,0,0,1-.37-.11c-.1-.17-.37-.57-.48-.73s-.27-.3-.5-.16,0,.59,0,.82c.17.78-.5.45-1,.47-.42-.16-.34-.21-.23-.6a3.93,3.93,0,0,0-.13-2.6c-.17-.22-.46-.27-.5.07s0,1,0,1.35-.29,1.21-.62,1.48l-.09-.07c0-.51.17-1.58-.39-1.84-.33.08-.28.82-.34,1.06l-.78,2c-.4,1.18.5.81.84.1.34-.12.26.3.26.49s0,.76.38.8a.86.86,0,0,0,.73-.46,4.37,4.37,0,0,1,.37-1c.06-.43.27-.28.59-.29s.94.11,1,.42c0,.13-.4.15-.51.17l-.55.2a2.27,2.27,0,0,0-.58.68.34.34,0,0,0,0,.26l.09.3c.34.64.6.93,1.36.92s1.4-.73,1.52-1.53c.24-.07.6.14.82.25,1.34.41,1.43,1,0,1.25a7.63,7.63,0,0,1-2.52.43c-.28-.11-.88-.31-1.16-.4-.62-.21-1.44-.54-2-.75l-.64-.24c-.16-.06-.45-.23-.49.07.14.3.31.88.7.92a4.15,4.15,0,0,0,1.26.3,6.61,6.61,0,0,0,.76.22c.23.1.82.1.71.46a4.11,4.11,0,0,1-1.89.59c-1.39-.35-2.94-.85-4.33-1.24l-1-.36a4.8,4.8,0,0,0-1.07-.46c-.21.22.07.9.08,1.16s.22,1,.57,1.26c1,.12,2.13,0,3.11,0,.33.06,1.32,0,1.57.31,0,.18-.23.34-.32.47a24.36,24.36,0,0,1-2.61,2.47c-.72.16-1.35-.75-1.82-1.17,0-.06-.14,0-.21,0,0,.36.4.87.52,1.2a7.77,7.77,0,0,0,.58,1.32l.14.22A.41.41,0,0,0,104,29l.23.08c.52.06,1-.42,1.31-.78.14-.19,1.74-2.07,1.74-2.07a20.51,20.51,0,0,1,1.58-1.52,1.75,1.75,0,0,1,.44.1.34.34,0,0,1,.14.48c-.11.16-.82.54-.46.73a3.31,3.31,0,0,1,1.33.43c.27,0,.83.18.88-.22a2.35,2.35,0,0,0-.69-1.68c-.11-.07-.39-.18-.29-.35a9.18,9.18,0,0,1,1.95.17c.12,0,.33,0,.41-.1s.07-.73.06-1a.91.91,0,0,1-.06-.36,5.53,5.53,0,0,1,2.25.23c.55.18,1.26.6,1.72,0A1.54,1.54,0,0,0,116.82,21.56Zm-4.69-.63c-.14.19-.31.48-.59.41a2.39,2.39,0,0,1-.27-.43.47.47,0,0,1,.31-.45c.11,0,.43-.1.51,0S112.17,20.8,112.13,20.93ZM66.31,11.59c0-.16-.06-.31-.19-.32s-.05.48-.05.57A2.13,2.13,0,0,1,65.51,13c-.08,0-.1-.17-.11-.22-.05-.52,0-1.24,0-1.78a.76.76,0,0,1,0-.15c.25-1.46.11-2.45-1.62-2.59-.45.38-.16,1.06,0,1.52A6,6,0,0,1,64,10.94c.17.92.18,2.18.34,3.11,0,.1,0,.38-.08.44a8.24,8.24,0,0,1-.74.61l-.06,0c0-.16.14-.38.17-.53l0-.37c0-.53-.75-.84-.71-1.37a2.81,2.81,0,0,0,.17-1.64c-.19-.41-1.81-1.67-1.73-.59a4.24,4.24,0,0,0,1.12,1.58c.17.35-.08.82-.07,1.18s.26.75.38,1.07a1.47,1.47,0,0,1,.1,1c-.09.27-.38.75-.32,1,.22.35.69.22,1,0l.51-.48c0-.06.3-.43.39-.4.18,1.43.35,3.41.52,4.86,0,.35,0,.7.46.64a1,1,0,0,0,.48-.67,17.54,17.54,0,0,0-.12-3.51c-.08-.57-.11-1.43-.19-2A.87.87,0,0,1,66,14c.16-.24,1-1,1-1.35a3.24,3.24,0,0,0-.44-.62A.88.88,0,0,1,66.31,11.59Zm-4.92,2.72c-.09.11-.48.54-.54.65-.25,0-.13-.32-.12-.46l.08-.66a5.47,5.47,0,0,1,.51-1.4c0-.24-.26-.47-.43-.61a1.18,1.18,0,0,0-.88-.46c-.32.14-.35.59-.41.89-.75,1.33-2.36,2.1-3.43,3.12a1.34,1.34,0,0,0,.83.43,1.42,1.42,0,0,0,.29,0c.92-.08,1.64-1.73,2.25-2,.12,0,.12.85.12.85s0,.51,0,.61.09,1,.09,1a1.12,1.12,0,0,1-.22.33.24.24,0,0,1-.16,0c0-.06.07-.1.07-.19s-.15-.73-.44-.5c-.25.59-.93,1.14-.84,1.82.17.28.14.74.44.91.25,0,.52-.47.68-.62s.39-.54.5-.53.11.52.15.7.38.19.52.28a.72.72,0,0,0,.57-.26c.11-.15-.06-.35-.08-.5a6,6,0,0,0-.12-1c-.08-.51.47-1.09.69-1.53a11.71,11.71,0,0,0,.59-1.24.47.47,0,0,0-.07-.4C61.79,13.57,61.57,14.1,61.39,14.31Zm22.5,3.49c-1.64.09-2.41-.61-3.44-1.75a6.12,6.12,0,0,1,.9-1.29l.26-.21c0-.06.1-.35.17-.37-.08-.38-.52-.64-.84-.79-.13,0-.3,0-.42,0a2.75,2.75,0,0,1,.58-1.33c.26-.37.54-1,1-1.21a7,7,0,0,0,.87-.43.3.3,0,0,0,.12-.31l-.26-.43a1.19,1.19,0,0,1-.25-.13c0-.51-.62-.88-1-1.14l-.22-.08-.23.09a3.24,3.24,0,0,0-.11.76l-.19.52-.23.57-.36.27c-.88.36-1.82,1-2.73,1.3-.06.37.72.56,1,.61s1-.59,1.36-.73a7.35,7.35,0,0,1-.57,1.43c-.06.1-.29.41-.26.54a.77.77,0,0,0,.12.36c0,.1.16.27.28.28a3.77,3.77,0,0,0,.57-.28l.14.07c.06.3-.48.86-.62,1.1-.17-.08-.37-.44-.56-.5s-.53-.42-.79-.28c-.1.28.23.71.33,1s.22.48.3.63-.17.44-.23.59a8.27,8.27,0,0,1-1.34,1.18c-.33.15-1.06.57-1.26.06a25.83,25.83,0,0,1,1.51-6.64,10.76,10.76,0,0,1,1-.65l.34-.22,0-.23c-.11-.11-.25-.68-.5-.37l-.08-.06c.35-.32-.69-1.22-.94-1.39s-.35.14-.45.2l-.09.41a8.5,8.5,0,0,1-.37,1.31l-1.16.59a.87.87,0,0,0-.57.12c0,.09.2.48.23.56s.35.52.56.51l.16,0c.08-.08.19-.23.32-.17a5.59,5.59,0,0,0-.29,1c-.18.54-.94.95-1.33,1.33s-1.11,1-1.49,1.34a1,1,0,0,1-.51.25c-.78.39-.66.41-.17,1a2.41,2.41,0,0,0,.49.21h.1a5.19,5.19,0,0,0,1.12-.79A.65.65,0,0,0,74,16a3.38,3.38,0,0,1,.46-.65c.23-.28.57-.8.83-1.05l.08,0c0,.19-.25,1-.31,1.2s-.15,2.32-.57,2.4l-.59-.07c-.29-.11-.54-.25-.84,0V18a14.38,14.38,0,0,1,1.58,1.1l.19.19a.25.25,0,0,0,.23.21,1.13,1.13,0,0,0,.81-.86l.08,0c.39.66.49.57,1.14.3a11.4,11.4,0,0,0,2.37-1.76,6.58,6.58,0,0,1,.83,1.18c.1.19.24.56.5.58a4.83,4.83,0,0,0,2-.33c.34-.16,1.21-.26,1.4-.6C84.18,17.77,84,17.8,83.89,17.8Zm-36.12-.1c0-.1.09-.16.21-.15s.28-.13.36-.16a12,12,0,0,1,1-1c.15-.08.27-.57.32-.71a.41.41,0,0,0,0-.18l-.2-.09c-.6-.13-.82-.1-.73-.81a4.1,4.1,0,0,1,1-1.77c.48-.64.24-1.38-.64-1.24-.16,0-.64.3-.8.37a4.33,4.33,0,0,0-.72.88c-.19.27-.54.81-.71,1.09-.09.12-.19.49-.39.29a6.69,6.69,0,0,1-.38-1.09c-.12-.42,0-1.14-.55-1.23a6.64,6.64,0,0,0-.88-.12c-.13,0-.42-.07-.52.07s-.44.85-.38,1.13a14.13,14.13,0,0,0,1,1c.27.56.77,1.31,1,1.89a11.5,11.5,0,0,1-.91,1.86,3.6,3.6,0,0,1-.91-.88,2.82,2.82,0,0,0-.36-.33,1.47,1.47,0,0,1-.28-.28c-.45,0-.38.37-.39.69A6.12,6.12,0,0,0,43,18c.07.54,0,1.28.43,1.7.49.18,1.38.57,1.81.12A14.85,14.85,0,0,1,46,17.28c.23-1.09,1.58,3.43,1.73,3.57a6.35,6.35,0,0,0,.94,2.54,2.28,2.28,0,0,0,1.06.76c.26.06.41-.16.52-.35a4,4,0,0,0-.71-2.14A40.81,40.81,0,0,1,47.77,17.7Zm-.53-1.19a5.25,5.25,0,0,0-.38-.92c0-.39.35-.9.54-1.21.05-.09.19-.33.31-.34.21.23.18.8.24,1.09a1.41,1.41,0,0,1,0,1.07C47.74,16.4,47.47,17,47.24,16.51ZM36.67,26.44c-.11-.16-.57-.89-.66-1a18.8,18.8,0,0,1,1.21-1.75c.26-.71-.31-.57-.76-.55a7.78,7.78,0,0,1-1.08,0c-.09-.15,0-.18.13-.45s.5-.78.71-1.11a9.69,9.69,0,0,0,1-1.83,1.16,1.16,0,0,0-.82-.4.84.84,0,0,0-.77.31,18,18,0,0,1-.91,1.61c-.28,0,0-1.07-.07-1.21s.29-.46.35-.69.27-.61.08-.81a.91.91,0,0,0-.67,0c-.27,0-.69-.1-1-.11s-.25.24-.25.45l.2.32a2.2,2.2,0,0,1,.18.68,1.62,1.62,0,0,1-.41.89c-.15.16-.51-.05-.69-.08s-.31,0-.31-.09l.11-.66c.07-.81.1-.81.69-1.36a6.18,6.18,0,0,0,.68-1.3,1,1,0,0,0-.31-1c-.45-.09-1.44-.5-1.88-.27a2.82,2.82,0,0,0,0,1.88c.15.6.26,1.17-.43,1.45a1.7,1.7,0,0,1-.17-.54,2.79,2.79,0,0,1-.29-.57c-.05-.07-.29-.52-.4-.56a6.94,6.94,0,0,0-1.64,0c-.36.16-.54.25-.28.66.14.13,1.17.42,1.5.58a2,2,0,0,0,1,.46l.06.09c0,.18-.57.5-.68.59-.38.26-.83.55-1.19.82a8.66,8.66,0,0,0-1,.64c-.38.67.81.68,1.21.77s.52-.18.64-.43l.52-.69c.29-.25,1.07-1.43,1.47-1.27a6.06,6.06,0,0,1,0,.75c-.06.13-.27.11-.39.13s-.27,0-.28.18-.11.35,0,.48.64.48.76.81l-.05.1a4.58,4.58,0,0,0-.74,0c-.1.15,0,.42-.08.57-.46,0-1-.17-1.52-.15-.23,0-.59-.11-.55.24.22.41.82.67,1.13,1,.08.19-.16.47-.26.62l.06.13a10.82,10.82,0,0,1,1.6.23c.58-.36.31-1.55.77-2.07.3,0,.48.55.63.75a6,6,0,0,1-.73,1,38.09,38.09,0,0,1-3.43,3.65c.07.19.13.4.37.39a3.72,3.72,0,0,0,1.72-.36c.56-.52.76-1.49,1.25-2.08.21-.38.71-1.19,1-1.53s.33-.57.61-.11c.12.42-.24.84-.42,1.2A12.43,12.43,0,0,0,32.09,29c-.18.61,0,.63.55.55.39-.08.8-.75,1-1A10.66,10.66,0,0,1,35,26.67s.4.68.49.81.28.43.41.58.83,1.29,1,1.48a2.24,2.24,0,0,1,.36.33,2.24,2.24,0,0,0,.57.08c.12,0,.21-.62.21-.7a3.49,3.49,0,0,0-.44-1.41C37.43,27.46,36.86,26.8,36.67,26.44ZM32.27,17a.4.4,0,0,1,.49.27.93.93,0,0,1-.16.54c-.06.09-.21.21-.31.11a1.82,1.82,0,0,1-.07-.62A.45.45,0,0,1,32.27,17Zm.92,4.32c-.08-.18,0-.4.21-.39s.38-.27.56-.14a2.56,2.56,0,0,1,.34,1,.81.81,0,0,1-.19.49c0,.06-.13.15-.22.11C33.59,22.13,33.44,21.61,33.19,21.33ZM34.33,26c-.19.29-.61.85-.83,1.12-.08.11-.35.51-.49.54l0-.05c.24-.76.77-1.53,1.06-2.27.16-.08.27.16.34.27A.42.42,0,0,1,34.33,26Zm0-3c.06-.43.53-.8.73-1.16.11-.2.28-.6.54-.62.07.2-.12.46-.24.6a2.29,2.29,0,0,1-.31.65C34.94,22.92,34.82,23.26,34.34,23.07Zm1.31,1.3a.59.59,0,0,1-.2.13l0,0c-.14-.06-.52-.58-.44-.76.22.08.62.16.74.35A.87.87,0,0,1,35.65,24.37Zm61.2-2.21a4.22,4.22,0,0,1-1.09-1.78,6.91,6.91,0,0,1-.25-1.62c0-.29.06-.81-.31-.9s-.34.15-.34.4-.12.6-.15.8c-.11.92-.24,2-.34,2.86.29,1,.63.58,1.41.86a12.19,12.19,0,0,0,1.86.25C97.78,22.62,97.09,22.39,96.85,22.16Z"/><path class="cls-2" d="M438.6,89.55,441,85.18h-1l-1.87,3.53-1.83-3.53h-1l2.43,4.37v3h.88v-3m-7.44-.12h2a2.45,2.45,0,0,1-.67,2,2,2,0,0,1-1.34.48c-1.43,0-2.15-1-2.15-3s.77-2.9,2.11-3A1.85,1.85,0,0,1,433,87.39h.85A2.65,2.65,0,0,0,431.12,85q-2.82.15-3.07,3.81a4.25,4.25,0,0,0,1,3.09,2.59,2.59,0,0,0,2,.76,2.55,2.55,0,0,0,2.12-1l.21.92H434V88.59h-2.82Zm-4.38-.56a5.23,5.23,0,0,0-.85-2.85,2.8,2.8,0,0,0-2.29-1,2.91,2.91,0,0,0-2.12.8,4.65,4.65,0,0,0-1,3.09,5.07,5.07,0,0,0,.74,2.65,3.16,3.16,0,0,0,4.76.08A4.85,4.85,0,0,0,426.78,88.87Zm-.89,0q-.13,2.8-2.25,3c-1.43-.08-2.19-1.07-2.26-3s.83-3,2.26-3.05C425.05,85.93,425.8,86.94,425.89,88.87Zm-9.73-3.69h-.88v7.34h4.16v-.88h-3.28Zm-2.41,3.69a5.15,5.15,0,0,0-.84-2.85,2.82,2.82,0,0,0-2.29-1,2.91,2.91,0,0,0-2.12.8,4.71,4.71,0,0,0-1.06,3.09,5.17,5.17,0,0,0,.74,2.65,2.87,2.87,0,0,0,2.44,1.12,2.81,2.81,0,0,0,2.32-1A4.7,4.7,0,0,0,413.75,88.87Zm-.88,0q-.14,2.8-2.25,3c-1.44-.08-2.19-1.07-2.26-3s.82-3,2.26-3.05C412,85.93,412.78,86.94,412.87,88.87Zm-7.8,2.25h0l-3.24-5.94h-1.06v7.34h.85V86.58h0l3.28,5.94h1V85.18h-.85Zm-7-2.93h-3.38v-3h-.89v7.34h.89V89.11h3.38v3.41h.88V85.18h-.88Zm-5.86-.84A2.51,2.51,0,0,0,389.55,85a2.66,2.66,0,0,0-2.15,1,4.43,4.43,0,0,0-.89,2.89,5,5,0,0,0,.71,2.77,2.75,2.75,0,0,0,2.19,1q2.46-.08,2.85-2.85h-.84c-.24,1.34-.85,2-1.84,2-1.43,0-2.15-1-2.15-3s.75-2.89,2.12-3a1.73,1.73,0,0,1,1.79,1.53Zm-7,4.29h-3.88V89.19h3.52v-.88h-3.52V86h3.81v-.84h-4.69v7.34h4.76ZM373.81,86H376v6.5h.85V86H379v-.84h-5.22Zm-7.55,0h1.63c1.29,0,1.95,1,2,2.85s-.68,2.77-1.9,2.85h-1.7Zm-.88,6.54H368a2.29,2.29,0,0,0,2.19-1.32,4.85,4.85,0,0,0,.56-2.45,4.28,4.28,0,0,0-.63-2.45A2.36,2.36,0,0,0,368,85.18h-2.65Zm-2.72-1.4h0l-3.24-5.94h-1.06v7.34h.85V86.58h0l3.28,5.94h1V85.18h-.85Zm-9.49-1.61,1-3.25h0l.95,3.25Zm2.33.89.63,2.12h.95l-2.32-7.34h-1l-2.43,7.34h.88l.67-2.12Zm-7.26,1.24h-3.88V89.19h3.52v-.88h-3.52V86h3.8v-.84h-4.68v7.34h4.76Zm-6.46-4.29A2.51,2.51,0,0,0,339.13,85a2.68,2.68,0,0,0-2.15,1,4.43,4.43,0,0,0-.88,2.89,4.91,4.91,0,0,0,.71,2.77,2.73,2.73,0,0,0,2.18,1c1.64,0,2.6-1,2.86-2.85H341c-.24,1.34-.85,2-1.83,2-1.44,0-2.15-1-2.15-3s.75-2.89,2.11-3a1.73,1.73,0,0,1,1.8,1.53Zm-8.08,3.77h0l-3.25-5.94h-1.06v7.34h.85V86.58h0l3.28,5.94h1V85.18h-.84Zm-5.93.52h-3.88V89.19h3.52v-.88h-3.52V86h3.8v-.84H323v7.34h4.76Zm-6.85-6.46H320v7.34h.88Zm-2.62,2.17A2.5,2.5,0,0,0,315.66,85a2.68,2.68,0,0,0-2.15,1,4.43,4.43,0,0,0-.88,2.89,5,5,0,0,0,.7,2.77,2.75,2.75,0,0,0,2.19,1q2.46-.08,2.85-2.85h-.84c-.24,1.34-.85,2-1.84,2-1.43,0-2.15-1-2.15-3s.75-2.89,2.12-3a1.73,1.73,0,0,1,1.8,1.53Zm-7.16,0a2.17,2.17,0,0,0-2.5-2.32,2.11,2.11,0,0,0-1.48.48,2.2,2.2,0,0,0-.78,1.76A1.74,1.74,0,0,0,307.75,89l1.34.32a2.64,2.64,0,0,1,1.13.48,1.15,1.15,0,0,1,.28.85c0,.8-.59,1.21-1.72,1.24A1.6,1.6,0,0,1,307,90.15h-.84a2.18,2.18,0,0,0,.67,1.85,2.46,2.46,0,0,0,1.94.64,3.42,3.42,0,0,0,1.83-.48,1.9,1.9,0,0,0,.7-1.64,1.87,1.87,0,0,0-1.44-2L308,88a.84.84,0,0,1-.78-.93c0-.82.48-1.25,1.45-1.28s1.57.55,1.62,1.48Zm-11.71,1.89h3.18v-.88h-3.18V86H303v-.84h-4.48v7.34h.88Zm-2.5-.32a5.23,5.23,0,0,0-.85-2.85,2.82,2.82,0,0,0-2.29-1,2.91,2.91,0,0,0-2.12.8,4.71,4.71,0,0,0-1.06,3.09,5.08,5.08,0,0,0,.75,2.65,2.84,2.84,0,0,0,2.43,1.12,2.81,2.81,0,0,0,2.32-1A4.77,4.77,0,0,0,296.93,88.87Zm-.89,0q-.14,2.8-2.25,3c-1.44-.08-2.19-1.07-2.26-3s.82-3,2.26-3.05C295.2,85.93,296,86.94,296,88.87Zm-10.82.68,2.43-4.37h-1l-1.87,3.53-1.83-3.53h-1l2.43,4.37v3h.88ZM275.94,86h2.19v6.5H279V86h2.19v-.84h-5.22Zm-1.45-.84h-.88v7.34h.88ZM271.7,87.3A2.18,2.18,0,0,0,269.19,85a2.14,2.14,0,0,0-1.48.48,2.23,2.23,0,0,0-.77,1.76A1.74,1.74,0,0,0,268.31,89l1.34.32a2.64,2.64,0,0,1,1.13.48,1.15,1.15,0,0,1,.28.85c0,.8-.6,1.21-1.72,1.24a1.59,1.59,0,0,1-1.77-1.73h-.84A2.18,2.18,0,0,0,267.4,92a2.46,2.46,0,0,0,1.94.64,3.42,3.42,0,0,0,1.83-.48,1.9,1.9,0,0,0,.7-1.64,1.87,1.87,0,0,0-1.44-2L268.59,88a.84.84,0,0,1-.77-.93c0-.82.48-1.25,1.45-1.28s1.57.55,1.62,1.48ZM261,86h2.19c.77,0,1.16.42,1.16,1.24a1.14,1.14,0,0,1-1.3,1.29h-2Zm0,3.37h2.12c.8,0,1.18.44,1.16,1.33a12,12,0,0,0,.14,1.84h1.1v-.16c-.24-.1-.35-.35-.32-.72l-.07-1.32q0-1.17-.78-1.41a1.92,1.92,0,0,0,.92-1.77,1.69,1.69,0,0,0-.67-1.56,2.29,2.29,0,0,0-1.48-.4h-3v7.34H261Zm-2.61,2.29h-3.88V89.19H258v-.88h-3.52V86h3.81v-.84H253.6v7.34h4.76Zm-9-.2h0l-1.84-6.26h-1l2.37,7.34h.95l2.36-7.34h-1ZM245,85.18h-.88v7.34H245Zm-3.71,5.94h0l-3.25-5.94H237v7.34h.84V86.58h0l3.28,5.94h1V85.18h-.84Zm-7-5.94v4.61c0,1.34-.57,2-1.72,2s-1.6-.71-1.62-2V85.18h-.89v4.89a2.69,2.69,0,0,0,.74,2,3.06,3.06,0,0,0,3.64-.08,3.2,3.2,0,0,0,.74-2.08V85.18Zm-10.92,4.25h2a2.45,2.45,0,0,1-.67,2,2,2,0,0,1-1.34.48c-1.43,0-2.15-1-2.15-3s.78-2.9,2.12-3a1.85,1.85,0,0,1,1.93,1.57h.85A2.64,2.64,0,0,0,223.32,85q-2.82.15-3.07,3.81a4.21,4.21,0,0,0,1,3.09,2.59,2.59,0,0,0,2,.76,2.54,2.54,0,0,0,2.11-1l.21.92h.57V88.59h-2.82Zm-5.55,1.69h0l-3.24-5.94h-1.06v7.34h.85V86.58h0l3.28,5.94h1V85.18h-.85ZM212,88.87a5.07,5.07,0,0,0-.85-2.85,2.79,2.79,0,0,0-2.29-1,2.88,2.88,0,0,0-2.11.8,4.6,4.6,0,0,0-1.06,3.09,5.07,5.07,0,0,0,.74,2.65,2.86,2.86,0,0,0,2.43,1.12,2.81,2.81,0,0,0,2.33-1A4.77,4.77,0,0,0,212,88.87Zm-.88,0c-.1,1.87-.85,2.86-2.26,3q-2.15-.12-2.25-3c.07-2,.82-3,2.25-3.05C210.26,85.93,211,86.94,211.11,88.87Zm-7.84-.68h-3.38v-3H199v7.34h.88V89.11h3.38v3.41h.88V85.18h-.88Zm-5.61,3.45h-4l4-5.62v-.84h-4.79V86h3.66l-3.94,5.7v.8h5.07Zm-9.8-2.13,1-3.25h0l1,3.25Zm2.32.89.64,2.12h1l-2.33-7.34h-1L186,92.52h.88l.67-2.12Zm-6.35-5.22v4.61c0,1.34-.58,2-1.73,2s-1.6-.71-1.62-2V85.18h-.88v4.89a2.65,2.65,0,0,0,.74,2A3,3,0,0,0,184,92a3.15,3.15,0,0,0,.74-2.08V85.18Zm-7,3h-3.39v-3h-.88v7.34h.88V89.11h3.39v3.41h.88V85.18h-.88Z"/><path class="cls-2" d="M263,35.16l1.15-.13c2.29-1.18,5.28-3.08,7.8-3.69,1.24-.35,3.16-.21,4-1.3,1.6-1.85.6-5.27-1.61-6.14-.39-.11-.61.19-.8.56.51,1-3.58,3.19-4.07,3.71a42.13,42.13,0,0,0-6.78,6.16c-.11.13-1.24.79-1,1.06S262.69,35.27,263,35.16Zm-52.67,6.26a2.88,2.88,0,0,0-2.71-.58c-1.65.76-3.78,2.22-5.52,2.75-.78-.49,1.92-3,2.08-3.45.57-.54,1.64-.75,2.25-1.25s1.87-1.19,1.72-2.1a3,3,0,0,0-1.9-1.14c-.67-.6-1.7-1.57-2.43-2.1-.72-.19-1.15.19-1.51.78l-.07,1.25a6.94,6.94,0,0,1-.75,2.19,5.54,5.54,0,0,1-2.79,1.7c-.73.17-1.33-1.09-1.76-1.51-.12-.14-.85-.57-.69-.83l1.54-1.59c1.7-2.09,1.79-2,4.42-2.46a20.65,20.65,0,0,0,4.28-2.32,3.23,3.23,0,0,0,1-3.33c-1.09-1.08-3-4-4.67-4.25-1.75,1-3,3.28-3.61,5.12s-1.45,3.71-3.88,3.18a5.76,5.76,0,0,1,.53-1.79,11.18,11.18,0,0,1,.26-2.12,8,8,0,0,0-.06-2.28,21.35,21.35,0,0,0-4.56-2.95c-1.28-.26-1.94-.32-2,1.27.15.65,2.46,3.35,3.05,4.39.25.89,1.27,2.88,2,3.19v.35c-.35.48-2.47.31-3,.34-1.52.05-3.28,0-4.8.06-1-.23-2.8,0-3.87-.07-2.29,1.17,1,3.38,1.9,4.4a2,2,0,0,0,2.55,0l2.72-.92c1.26-.13,5.59-1.93,6.39-.76a17.88,17.88,0,0,1-1.28,2.15c-.4.24-.95-.19-1.3-.36s-.82-.39-1.1-.05-1,.77-.88,1.34c.26,1.09.86,2.51.6,3.65l-.32.18a19,19,0,0,0-2-1.43c-.54.22-.67,1.24-1.25,1.42-1.27-.9-2.57-2.4-3.92-3.24-.57-.49-1.42-1.4-1.95-.36-.16,1.53,1,3.38,1.24,4.87-.15.68-1.34,1-1.9,1.24l-.06.46a35.63,35.63,0,0,1,4,3.62c2.29.08,3.75-3.71,6-4.27.87.54.32,2.41.35,3.22-.92.67-2.7.91-3.79,1.32A124.58,124.58,0,0,1,172.63,52c-.17.65-.4,1.37.28,1.77,1.33.78,3.77,2.29,5.39,2.19,2.49-.37,4.85-2.66,7.3-3.4,1.29-.63,4.17-2,5.5-2.41,1.31-.78,1.94-.94,1.87.84-.44,1.38-2.23,1.87-3.36,2.51a40.94,40.94,0,0,0-9.05,6.45c-1.63,1.32-1.22,1.69.49,2.54,1.23.48,3.58-.6,4.78-.88,1.81-.61,5.18-2.38,7.07-2.45,0,0-.16,2.61-.16,3.11s0,1.73,0,2.36c0,.91-.09,5.11-.1,5.86a8.52,8.52,0,0,0,.36,1.59,8.24,8.24,0,0,0,1.43,1.28c.38.17,1.73-1.31,1.88-1.55a11.59,11.59,0,0,0,1.42-4.69c.24-1.37-.1-4.22,0-5.57,0-.65.1-3.5.15-4.1,1.78-1.22,4.66-1.55,6.58-2.55,2-1.46.21-2.15-1.09-2.94a28.52,28.52,0,0,1-3-2c0-.58.33-.48,1.2-1,1.35-.63,2.82-1.24,4-1.76,1.72-1,4.81-1.74,6.18-3.13A3.86,3.86,0,0,0,210.37,41.42Zm-7.84-13.29a1.5,1.5,0,0,1,.71-.72,1.34,1.34,0,0,1,.85,1.67,3.15,3.15,0,0,1-1.45,1.15c-.33.16-1,.19-1.06-.26S202.39,28.4,202.53,28.13ZM193,55.06c0,.46-.5.81-.87,1-1,.45-3.25,1.21-4.34,1.54-.43.14-1.91.76-2.36.57V58c2.1-1.64,5-2.78,7.15-4.29C193.17,53.78,193,54.65,193,55.06ZM197.76,41c.1-.66.66-1.16,1.27-.69.57.12,1.56,0,1.8.65a8.67,8.67,0,0,1-.86,3.3,2.4,2.4,0,0,1-1.43,1c-.25.07-.64.17-.81-.11C197.35,43.94,197.9,42.25,197.76,41Zm1.09,12.93a1.77,1.77,0,0,1-.8,0v-.11c-.25-.42-.35-2.56.21-2.89.45.61,1.42,1.58,1.39,2.35A2.53,2.53,0,0,1,198.85,53.93Zm3.85-7.33a8.74,8.74,0,0,1-2.06,1.22c-1,.8-2,1.53-2.95.11.95-1.07,2.92-1.21,4.14-1.84.66-.34,1.9-1.13,2.64-.68C204.3,46.07,203.28,46.44,202.7,46.6ZM387.1,59.11A14.06,14.06,0,0,1,380.79,56a23.13,23.13,0,0,1-3.59-4.19c-.58-.78-1.27-2.42-2.49-2-.69.54-.68,1-.24,1.74.23.65.72,1.93,1,2.56,1.31,2.84,2.79,6,4.11,8.8,2.64,2.4,2.84.52,5.58-.06,1.78-1.08,4.2-1.27,5.76-2.6C390.58,58.77,388.19,59.37,387.1,59.11Zm47.75-30.55c.15-2-1.51-3.95-3.29-4.68-.89-.46-2.25-1.14-3.24-.64-2.19,1.36-5,2.68-7.27,3.89-.51.51-1.75,2.08-2.4,1,2.59-3.05,4.56-3.15.4-6.3-1.07-.89-2.76-1.34-3,.51.24.76-.76,2.37-1.1,3-.25.26-.75.7-1.15.61-.64-.14-2.24-.44-2.89-.57-.81-.17-1.38-.05-1.6.83s1.43,1.4,2,1.93c2.29,1.45-.09,2.26-1.13,3.42-1.39.63-1.33.31-2-.87-1.55-2.46-3.71-4.94-6.55-5.85-1-.12-1.75.46-1,1.37s2.41,2.47,3.15,3.32c.61,1.32,2.21,3.58,2.08,5l-.38.06c-1.12-1.35-3.41-4.18-5.38-3.42-.57,1,1.32,2.6,1.76,3.32.39.92,2.45,5.55,2.91,6.57,1.89,3.76,3.11.7,2.23-1.8.5-1.1,1.33.07,1.8.53.69.63,1.89,1.76,2.84,1a3,3,0,0,0,.6-2.87,14.73,14.73,0,0,1-1.51-3.21c-.87-1.17-.05-1.32.7-2.11.76-.33,2.51-2,3.39-1.41.2.43-.58,1.31-.81,1.61l-.8,1.81a7.74,7.74,0,0,0,.25,3,1.12,1.12,0,0,0,.55.72l.91.51c2.35.68,3.66.74,5.46-1.1,2.19-2,1.54-5.1-.09-7.29.42-.75,1.75-1.12,2.54-1.39,4.18-2.27,5.75-1.11,3,3-1.45,2.25-2.74,5.49-4.93,7.12-.93.38-2.83,1.35-3.72,1.84-2,1-4.71,2.18-6.68,3.15l-2.07,1c-.53.23-1.64.55-1,1.33,1.06.38,2.86,1.34,3.87.52a14.9,14.9,0,0,0,3.72-2.33,21.71,21.71,0,0,0,2.35-1.32c.76-.31,2.18-1.74,2.79-.6A13.69,13.69,0,0,1,417,48.63c-4.12,2.53-9,5.08-13.24,7.5-.74.35-2.64,1.32-3.35,1.67a14.34,14.34,0,0,0-3.64,1.48c0,1,2.33,2,3,2.56,1.18.53,3,1.93,4.4,1.6,2.59-2,5-5.22,7.47-7.38.94-.65,3.23-3.1,4.46-3.06.51.38.28,1.36.4,1.9a85,85,0,0,1-.25,12.15c-1.32,2.1-5,1.45-7.12,1.59-.29,0-.36.34-.46.55.87.86,3,1.09,4.12,1.62a26.45,26.45,0,0,0,4.56,1.74l.87.17a1.41,1.41,0,0,0,.9-.13l.75-.37c1.38-1.12,1.33-3.38,1.25-5-.14-.81-.86-9.1-.86-9.1a73.21,73.21,0,0,1,.08-7.42,5,5,0,0,1,1.27-.82,1.16,1.16,0,0,1,1.51.8c.11.66-.66,3.26.65,2.82a11.49,11.49,0,0,1,4.2-2.15c.72-.6,2.41-1.57,1.56-2.64-1.49-1.26-3.66-2.67-5.69-2.33-.43.08-1.34.49-1.54-.15,1.16-1.6,3.54-3,5.05-4.28.31-.26.8-.79.73-1.24-.06-1-1.59-1.9-2.28-2.54-.21-.12-.92-.45-1-.7a18.25,18.25,0,0,1,5.9-4.88C432.36,31.69,435.06,31,434.85,28.56ZM418.5,36.07a7.35,7.35,0,0,1-1.67-.38,1.55,1.55,0,0,1-.36-1.8c.24-.28.81-1.26,1.28-1.18.61-.31,1,.55,1.19,1C419.05,34.48,419.36,35.56,418.5,36.07Zm-37.9,7.57c.78-.33,2.46-1,3.24-1.3l.53-.85c0-1.66-2.4-2.59-3.88-2.2a3.91,3.91,0,0,0-2,1.67A28.76,28.76,0,0,1,375.29,43c-.64-.16-.05-3.47-.09-3.86.22-1,.79-3.65.94-4.67a2.84,2.84,0,0,0,.4-1.8c-.26-1.61-2.73-3-3.84-4-.43-.3-2-1.77-2.58-1.64l-.77.8-.06,1a13.58,13.58,0,0,0,.48,2.68,61.34,61.34,0,0,1-.7,14.58c-2.88,1.64-6.83,4.3-9.95,5.43-1.24.34-3.81.24-4.54,1.45,0,.77,1.48,1.56,2,1.91l1.62,1.22c.9.56,2.29,1.49,3.37,1,1.75-1.37,3.8-3.73,5.81-4.65.66.75-.41,2.16-.72,2.82-.32,1.24-3.64,4.35-4.52,5.28a39.16,39.16,0,0,1-5.64,3c-.49.29-2,.53-2,1.26,0,.54,3.18.33,3.4.43a16.56,16.56,0,0,0,4.38-.7c6.6-2.27,9.37-10.2,11.19-16.28.54-.8,1.92-1.33,2.63-2ZM345.08,55.21c-5.49,1-8.35-1-12.31-4.43.15-1.28,1.86-3.53,2.45-4.71l.79-.83c.07-.19.2-1.2.41-1.31-.42-1.25-2-1.92-3.15-2.3-.45-.06-1,.23-1.42.21-.19-1.38.74-3.53,1.39-4.71.73-1.34,1.39-3.7,2.78-4.5a18.65,18.65,0,0,0,2.73-1.8,1,1,0,0,0,.29-1.09L338,28.39a3.12,3.12,0,0,1-.9-.32c-.26-1.72-2.46-2.67-3.82-3.41l-.77-.16-.72.4a10.66,10.66,0,0,0-.05,2.59l-.44,1.84-.52,2-1.08,1c-2.81,1.58-5.68,4.1-8.61,5.53-.07,1.29,2.64,1.57,3.63,1.64,1.41-.38,3.05-2.43,4.28-3.07.09,1.35-1,3.68-1.3,5.06-.17.38-.8,1.5-.64,1.93a2.33,2.33,0,0,0,.53,1.16c.2.33.66.83,1.09.83a14.08,14.08,0,0,0,1.8-1.2l.48.18c.35,1-1.23,3.09-1.61,3.95-.6-.18-1.42-1.3-2.11-1.42-.76-.3-1.95-1.2-2.76-.61-.23,1,1.06,2.28,1.53,3,.29.51.94,1.52,1.28,2,.52.48-.41,1.57-.55,2.08-.79,1-2.89,3.89-4,4.53s-3.3,2.39-4.2.77c0-7.38.21-15.87,2.22-23,.68-.7,2.18-2,2.95-2.61l1.05-.87,0-.78c-.44-.35-1.13-2.21-1.84-1.05l-.3-.18c1-1.19-2.85-3.77-3.76-4.25-.42,0-1.12.63-1.4.88l-.14,1.42a32.78,32.78,0,0,1-.68,4.53L313,35.4a3,3,0,0,0-1.85.65c-.09.32.86,1.53,1,1.78.41.41,1.41,1.59,2.08,1.5l.55-.14c.22-.3.53-.86,1-.7a18.13,18.13,0,0,0-.52,3.49c-.4,1.89-2.77,3.6-3.92,5.05-1.07,1.3-3.29,3.88-4.41,5.14a3.18,3.18,0,0,1-1.62,1.07c-2.46,1.65-2,1.64-.11,3.53a7.79,7.79,0,0,0,1.73.51.48.48,0,0,0,.33-.07,17.19,17.19,0,0,0,3.41-3.12,2.76,2.76,0,0,0,.47-.79,10.58,10.58,0,0,1,1.26-2.37c.66-1,1.56-2.94,2.32-3.89l.31.09c-.1.67-.44,3.43-.53,4.17-.23,1,.48,7.86-.89,8.31-.49,0-1.51,0-2,0-1.05-.25-1.94-.63-2.85.25l0,.42a47.58,47.58,0,0,1,5.79,3l.74.56a.8.8,0,0,0,.85.6,3.86,3.86,0,0,0,2.35-3.25l.26-.09c1.6,2,1.9,1.69,3.95.51A38.22,38.22,0,0,0,330,54.77c1.13.71,2.43,2.61,3.29,3.61.42.6,1.05,1.78,1.92,1.74,2.22.13,4.79-1.14,6.77-2,1.07-.68,3.94-1.38,4.44-2.61C346,55,345.59,55.13,345.08,55.21ZM292.69,38c0-.54-.09-1.09-.51-1.18-.48.08-.36,1.65-.42,2-.47,1.32-1.11,3.1-2.37,3.89-.26-.09-.27-.63-.29-.83,0-1.8.49-4.25.67-6.09a3.22,3.22,0,0,1,.1-.54c1.42-4.92,1.32-8.38-4.59-9.52-1.68,1.15-.95,3.58-.58,5.23a19.37,19.37,0,0,1,.33,4c.24,3.24-.21,7.59,0,10.85,0,.32-.07,1.31-.42,1.48a32.5,32.5,0,0,1-2.8,1.82l-.2-.12c-.08-.55.63-1.24.81-1.74l.07-1.3c0-1.81-2.25-3.16-1.93-5,.69-1.66,1.66-3.73,1.22-5.57-.51-1.49-5.6-6.45-5.73-2.7.28,2.11,2,4.23,3.26,5.87.44,1.27-.58,2.8-.71,4,.36,1.11.62,2.69.91,3.82a5.17,5.17,0,0,1,0,3.45c-.4.9-1.58,2.44-1.51,3.45.64,1.31,2.31,1,3.41.57l1.93-1.49c.19-.15,1.21-1.35,1.51-1.22,0,5-.11,11.88-.1,16.91.06,1.22-.38,2.41,1.36,2.41A3.59,3.59,0,0,0,288,68.25c1.11-4.06.8-10.83.91-12.12,0-2,.17-5,.12-7,0-1.6.43-2.09,1.72-3,.64-.76,4-3.1,3.82-4.26a11.14,11.14,0,0,0-1.27-2.32A3.18,3.18,0,0,1,292.69,38Zm-17.94,7.49a27.35,27.35,0,0,0-2.13,2c-.88,0-.3-1.17-.23-1.61l.52-2.26A19.14,19.14,0,0,1,275.22,39c.1-.82-.72-1.71-1.25-2.25a4.16,4.16,0,0,0-2.85-1.95c-1.17.36-1.44,1.9-1.76,2.93-3.1,4.25-8.92,6.3-13,9.4a4.55,4.55,0,0,0,2.69,1.79,6.5,6.5,0,0,0,1,.06c3.21.08,6.3-5.32,8.51-6.17.42.06.09,3,.09,3s-.12,1.29-.18,2a1.93,1.93,0,0,0,0,.24c0,.61-.08,3.27-.12,3.43a3.17,3.17,0,0,1-.87,1.05.76.76,0,0,1-.56-.09c0-.21.3-.32.34-.64s-.25-2.55-1.35-1.88c-1.06,1.93-3.62,3.56-3.56,5.94.45,1,.18,2.59,1.16,3.3.85.09,2-1.42,2.56-1.88.23-.21,1.57-1.71,1.93-1.62.41.55.17,1.81.26,2.47.27.55,1.23.81,1.68,1.16a2.57,2.57,0,0,0,2-.69c.45-.46-.05-1.2-.07-1.74a19.48,19.48,0,0,0,0-3.58c-.06-1.81,2-3.59,3-5a42.47,42.47,0,0,0,2.52-4,1.76,1.76,0,0,0-.09-1.42C276.38,43.05,275.43,44.78,274.75,45.44ZM247.18,31.56c-.55-.06-2.33.08-2.92.08a15.37,15.37,0,0,0-3.35,1.77c-.91.56-2.7,1.77-3.57,2.4-.43.25-1.21,1.24-1.56.38a22.35,22.35,0,0,1,.24-3.82c.18-1.46,1.52-3.47-.09-4.48a18.5,18.5,0,0,0-2.53-1.5c-.38-.2-1.19-.77-1.67-.47-.68.66-2.46,2-2.65,3,.27,1.47,1.37,3,1.77,4.48.1,2.07.63,5,.54,7.05-.13,0-5,5-5.2,4.5a12.59,12.59,0,0,1-1.66-3.86,6.36,6.36,0,0,0-.65-1.49,3.41,3.41,0,0,1-.48-1.21c-1.35-.7-1.65.65-2.09,1.6a19.61,19.61,0,0,0-1,3.32c-.49,1.74-1.63,3.94-.89,5.74,1.27,1.2,3.48,3.56,5.37,2.73A48.94,48.94,0,0,1,230.3,45c2-2.85.59,10.66.63,12.86a4.29,4.29,0,0,1-.06.88c-.42,2.68-1.16,5.79-.32,8.38.11,1.27,1.38,2.79,2.24,3.69.72.54,1.45.07,2.06-.39,1.05-1.88,1-5.4.59-7.46-.06-2.19-.59-13.75-.11-14.32a.62.62,0,0,1,.81-.21,8.45,8.45,0,0,0,1.33,0,46.38,46.38,0,0,1,4.35-1.88c.56,0,1.57-1.36,1.91-1.72a1.69,1.69,0,0,0,.07-.64l-.49-.54c-1.66-1.17-2.37-1.36-1.17-3.4a13.45,13.45,0,0,1,5.4-4.09C249.84,34.84,250.07,32.27,247.18,31.56Zm-8,9.47c-.21,1.09-.49,2.59-1.52,3.21-.79.38-2.34,1.83-2.45.1a16,16,0,0,0,0-3.32c.36-1.24,2.23-2.29,3.22-3,.27-.19,1-.75,1.38-.64C240.23,38.35,239.39,40.06,239.21,41Z"/></svg>