<svg id="图层_1" data-name="图层 1" xmlns="http://www.w3.org/2000/svg" viewBox="0 0 442.46 108.25"><defs><style>.cls-1,.cls-4{fill:#0066b1;}.cls-1,.cls-10,.cls-9{fill-rule:evenodd;}.cls-2,.cls-5,.cls-6,.cls-7,.cls-8{fill:none;stroke-miterlimit:22.93;}.cls-2{stroke:#0064af;stroke-width:2.04px;}.cls-3{fill:#fff;}.cls-5,.cls-6,.cls-7,.cls-8{stroke:#0066b1;}.cls-5{stroke-width:1.11px;}.cls-6{stroke-width:1.11px;}.cls-7{stroke-width:1.11px;}.cls-8{stroke-width:1.11px;}.cls-9{fill:#646160;}.cls-10{fill:#e60a1a;}</style></defs><path class="cls-1" d="M34.36,65.35h74a35.26,35.26,0,0,1-5.51,8h-63a25.2,25.2,0,0,1-5.45-8"/><path class="cls-2" d="M71.16,1.87c37.77,0,68.4,23.16,68.4,51.73s-30.63,51.73-68.4,51.73S2.75,82.16,2.75,53.6,33.39,1.87,71.16,1.87Z"/><polyline class="cls-1" points="46.51 57.45 49.62 46.89 53.81 46.89 52 53.38 53.4 53.38 55.33 46.89 59.55 46.89 56.56 57.45 52.27 57.45 53.01 54.64 51.59 54.64 50.84 57.45 46.51 57.45"/><polyline class="cls-1" points="61.05 46.93 57.87 57.54 67.88 57.54 70.81 46.93 66.69 46.93 63.92 56.22 62.48 56.22 65.13 46.93 61.05 46.93"/><path class="cls-1" d="M41.44,60.8l34.66.08c2.37-1.67,4.79-5.26,4.16-7.79-.84-1.63-2.42-2.64-5.27-4.93C74,47.05,73,46,71.87,45c-3-1.92-5.94-3.91-8.84-6-1.7-1.31-1-3.11,2.52-2.66a76.27,76.27,0,0,1,25.62,6.18c1.56.85,1.07,1.25-.2,1.4L83,43.81C81.17,43.94,79.94,45,78.7,47h4.54L79.18,60.88h5.11l4-13.8h3a44.09,44.09,0,0,0,5-5.57c1.29-2.21,1.2-4.73-1.21-6-5.35-2.52-11.32-3-15.75-3.21-7.29.2-12.81.76-15.54,2.34l-1.45,1.22c-4.53,0-6.81,1.82-4.93,4.17,1.21,1.61,6.16,3.41,12.15,5.82,4.61,1.55,5.77,5.11,3.17,8.6-1.8,2.58-5.3,4-10.35,4.45a91.91,91.91,0,0,1-16.25-.28,21.72,21.72,0,0,0-4.73,2.21"/><path class="cls-3" d="M44.05,69.86l0,0s.07.16.07.37,0,.11-.08.11a1.24,1.24,0,0,1-.47-.1s0,0,0,0l.07-.06a1.6,1.6,0,0,1,.36-.24s0,0,0,0h0m.11-.79c0,.15-.09.25-.26.33a.09.09,0,0,0-.06,0l-.24.15a.63.63,0,0,0-.2.1.15.15,0,0,1,0-.06.2.2,0,0,1,0-.07s0-.12,0-.2.07-.13.2-.17a1,1,0,0,0,.31-.1A.1.1,0,0,0,44,69a.62.62,0,0,0-.05-.25.7.7,0,0,0-.29-.24c-.11,0-.14-.16-.1-.32a.34.34,0,0,1,.07-.16.31.31,0,0,1,.24-.12.23.23,0,0,1,.17.07.36.36,0,0,1,.09.28.51.51,0,0,0,0,.13A5.37,5.37,0,0,0,44.16,69.07Zm3.45-.54a2.1,2.1,0,0,1,.26-1.18v0a.08.08,0,0,0-.05-.08,4,4,0,0,0-1-.12,2.64,2.64,0,0,0-.6.12,5.21,5.21,0,0,1-.67.09l-.12,0c-.07,0-.11.07-.11.13a5.91,5.91,0,0,1,0,1.26,6.32,6.32,0,0,0-.09.67.34.34,0,0,1,0,.14,1.69,1.69,0,0,1-.26.79.57.57,0,0,0-.16.31v0h0v-.06c-.08-.38-.09-.61,0-.7s0-.5,0-.79a7.49,7.49,0,0,1,.05-.88.7.7,0,0,1,.12-.36c.11-.18.15-.28.13-.31a1.19,1.19,0,0,0-.71-.14,11.4,11.4,0,0,0-1.33.31c-.21,0-.32.12-.32.19a10.31,10.31,0,0,0,.13,2c0,.05-.11.16-.34.32l-.24.13c-.17,0-.27.1-.27.15s.06.09.17.18a.75.75,0,0,0,.35.18l.4-.34a1.65,1.65,0,0,0,.26-.2l.25-.13a1.11,1.11,0,0,1,.16.16,4.06,4.06,0,0,0,.88.48.21.21,0,0,1,.13.07s-.14.18-.41.41a.58.58,0,0,0-.13.1.12.12,0,0,1,0,0l-.14.15s0,0,.11,0a2.73,2.73,0,0,0,.92-.33.22.22,0,0,0,.13-.16,4.52,4.52,0,0,1,.52-1,1,1,0,0,1,.11-.18l0,0a5.76,5.76,0,0,1,.58-.38l0,0,.05,0a1.05,1.05,0,0,0,.29-.09s0-.13,0-.29,0-.14,0-.15,0,0-.08,0l-.54.05s-.08,0-.08-.06a.38.38,0,0,1,.21-.35c.28-.14.43-.26.46-.36a.15.15,0,0,1,0-.07c0-.12-.07-.18-.21-.19l-.34,0s-.05,0-.05-.08v-.18a.31.31,0,0,1,.21-.29,1,1,0,0,1,.34-.06.28.28,0,0,1,.16,0c.07,0,.11.22.14.54v0q0,1.74.06,2.13c0,.31,0,.58,0,.8a.3.3,0,0,1,0,.18,1.93,1.93,0,0,1-.75,0c-.28,0-.42,0-.42,0s0,0,.06.11a3.08,3.08,0,0,0,.92.43,6.84,6.84,0,0,1,.72.21,1.35,1.35,0,0,0,.27.07c.08,0,.12,0,.12-.1a.09.09,0,0,0,0-.06.6.6,0,0,1,0-.25,14.89,14.89,0,0,1-.12-2.17,3,3,0,0,0,0-.46C47.6,68.88,47.6,68.7,47.61,68.53Z"/><path class="cls-3" d="M54.7,70.41l-.31,0c-.16,0-.24,0-.23.1a2.85,2.85,0,0,0,.67.47,2.63,2.63,0,0,1,.33.17l.38.12c.05,0,.09,0,.11-.12a.76.76,0,0,0-.08-.52s0-.06-.11-.07l-.25-.05a3.07,3.07,0,0,0-.51-.08m-1.35-1.26a.13.13,0,0,1,0-.05l.06-.18c0-.08.09-.12.2-.13h.1a.17.17,0,0,1,.12.18c0,.27-.11.44-.25.51l-.1,0-.08,0a.11.11,0,0,1-.12-.12.35.35,0,0,1,.05-.15A.45.45,0,0,1,53.35,69.15ZM52.56,69a.28.28,0,0,1,.21-.11.54.54,0,0,1,.17,0,.65.65,0,0,1-.09.41.35.35,0,0,1-.15.1c-.1,0-.14-.06-.14-.17Zm-.61.11a.21.21,0,0,1,.19.14l.08.21s0,0-.07.05l-.12,0a.21.21,0,0,1-.16-.09.3.3,0,0,1-.07-.19.12.12,0,0,1,0-.09Zm2.29-1a.16.16,0,0,0,.11,0v-.25a.51.51,0,0,0-.11-.16A.68.68,0,0,0,54,67.6l-.2.06h0l-.09,0-.5.06-.1,0c-.05,0-.08,0-.08-.08l.09-.49a1.72,1.72,0,0,1,.07-.21s0,0-.06-.06a.92.92,0,0,0-.26-.07.35.35,0,0,0-.16.06,1,1,0,0,0-.06.21,2.42,2.42,0,0,1-.05.24.42.42,0,0,1,0,.16l-.09.3a.89.89,0,0,1-.4.12,2.9,2.9,0,0,0-.61.18h0l-.1-.1c-.08.06-.12.11-.12.13a.14.14,0,0,0,0,.06l.09.15a.56.56,0,0,0,0,.08.14.14,0,0,0,.11.08,4.62,4.62,0,0,1,.8-.12.07.07,0,0,1,.08.06.17.17,0,0,1-.07.14,4.6,4.6,0,0,1-.91.25c-.16,0-.24.08-.25.14a1.58,1.58,0,0,0,.42.71l.21.18A.54.54,0,0,0,52,70a2.16,2.16,0,0,0,.4-.12c.56-.19.92-.2,1.09,0a.37.37,0,0,0,.47,0s0,0,0,0l.26-.35.18-.24a1.18,1.18,0,0,1,.28-.41s.06-.08.06-.1-.05-.09-.17-.15a3.21,3.21,0,0,0-1.46-.19l-.15,0a.07.07,0,0,1-.08-.08q0-.11.12-.12a.4.4,0,0,0,.15,0,1.43,1.43,0,0,1,.31-.06Zm-1.55,2.5a.61.61,0,0,1-.12-.14s0,0,0,0l.52-.11.24.21,0,.06,0,0a5.16,5.16,0,0,1-.67,0Zm.37.51a.81.81,0,0,0,.3-.15,1.1,1.1,0,0,1,.22-.16s.05,0,.09.09a.85.85,0,0,1,.17.44.27.27,0,0,1-.07.13.72.72,0,0,1-.41.08c-.6,0-1-.08-1.08-.23a1.23,1.23,0,0,1-.13-.67.22.22,0,0,1,0-.14s0,0,.11,0,.11,0,.14.14a.89.89,0,0,0,.21.41c.07.1.14.16.19.16h0A.7.7,0,0,1,53.06,71.2Zm1.18.94.19,0a.51.51,0,0,0,.27,0,.05.05,0,0,0,0,0,1,1,0,0,0-.24-.55.41.41,0,0,1-.12-.14.81.81,0,0,0-.24-.23,2,2,0,0,0-.39-.43l-.21-.15a.19.19,0,0,1-.08-.07s0,0,.06,0a.23.23,0,0,0,.12,0c.07,0,.1,0,.1-.07a.56.56,0,0,0-.48-.32,3.54,3.54,0,0,0-.85.11h-.07a2.33,2.33,0,0,0-.55.11,1.57,1.57,0,0,1-.33,0c-.07,0-.12,0-.13,0s.17.28.19.32-.06.08-.19.15a.46.46,0,0,0-.18.11,1.86,1.86,0,0,0-.38.32l-.15.18a.06.06,0,0,0,0,0s.07.08.22.14l.38.11c.08,0,.12,0,.12-.08a.35.35,0,0,1,.07-.21,1.1,1.1,0,0,1,.15-.31l0,0c.08-.14.13-.22.16-.22s.08.08.12.22,0,.19,0,.26a1.26,1.26,0,0,0,.38.66l.11,0a3.93,3.93,0,0,0,.65.06l.92.06h-.14A3.54,3.54,0,0,1,54.24,72.14ZM51,67.6a.51.51,0,0,0-.3-.17.29.29,0,0,0-.2.12l-.12.16a1.27,1.27,0,0,0-.26.35,1.19,1.19,0,0,0-.21.31,2,2,0,0,1-.13.26s0,0,0,.05a.06.06,0,0,0,.07.07,1.18,1.18,0,0,0,.57-.3,2.26,2.26,0,0,1,.44-.31l-.08.06c.26-.22.39-.35.4-.4S51.07,67.69,51,67.6ZM50.42,71a1,1,0,0,1,.13-.57,2.05,2.05,0,0,0,.12-.41S50.6,70,50.51,70c-.26-.06-.36-.17-.3-.31v0a2.29,2.29,0,0,1,.35-.33l0,0,.13-.11c.22-.13.34-.26.35-.38s-.07-.12-.21-.22a.42.42,0,0,0-.18-.08,2.84,2.84,0,0,0-.4.37l-.35.51a.74.74,0,0,0-.16.18l-.23.23-.1.1c-.51.44-.77.73-.77.89s0,.06.13.06l.1,0a3.7,3.7,0,0,0,.81-.35l.1-.07h.06a.1.1,0,0,1,.08,0c0,.2.06.31,0,.34a4,4,0,0,0-.07,1,.24.24,0,0,0,0,.15.52.52,0,0,0,.27.07c.12,0,.18-.07.19-.19A2.5,2.5,0,0,1,50.42,71Z"/><path class="cls-3" d="M60.73,70.16h0c-.45.13-.84.23-1.16.3s-.57.12-.74.17l-.21,0c-.12,0-.19,0-.19.06a.32.32,0,0,0,.13.27.16.16,0,0,0,.12,0,14.18,14.18,0,0,1,2.22-.4h0s.07.13.08.29a1.54,1.54,0,0,1-.08.59.34.34,0,0,1-.22.1l-.15,0H60.3l-.52-.09a3.26,3.26,0,0,0-.53-.06s0,.08.13.16a4.42,4.42,0,0,0,1.33.49h.07l.39,0h0a.18.18,0,0,0,.15-.06s0-.19.14-.52a2.19,2.19,0,0,1,0-.3h0a3.3,3.3,0,0,1,0-.69,2.89,2.89,0,0,1,.9-.07,4.64,4.64,0,0,1,.63.12,1.08,1.08,0,0,0,.42.07.21.21,0,0,0,.05-.19,4.15,4.15,0,0,1-.33-.36l-.09,0c-.82,0-1.33,0-1.51,0h-.12l0,0a.19.19,0,0,0,0-.08s0-.08.08-.1l.58-.26c.06,0,.1-.08.1-.12s0-.08-.13-.12L62,69.36a1.71,1.71,0,0,0-.79-.11,5.45,5.45,0,0,0-.58.13l-.42.09-.49.11a0,0,0,0,0,0,0,4.63,4.63,0,0,1-.59.08l-.09,0a.11.11,0,0,0,0,0,2.69,2.69,0,0,0,.33.33.29.29,0,0,0,.13.05.53.53,0,0,0,.2-.08,4.89,4.89,0,0,1,1.16-.44,1.67,1.67,0,0,0,.27-.1l.25,0,0,0a.39.39,0,0,1-.12.23.54.54,0,0,1-.33.1c-.22,0-.35,0-.38.09s.07.1.21.22l0,0m0-2.09a1.59,1.59,0,0,1,.6-.07.47.47,0,0,1,.24,0c.05,0,.08.12.09.25a.68.68,0,0,1-.16.53h0l-.16-.12-1.2.16,0,0,0,0a1.21,1.21,0,0,1,0-.46.36.36,0,0,1,.14,0l.31-.12Zm-4.22,3.38a.35.35,0,0,0,.21,0,1.65,1.65,0,0,0,.31-.11l.65-.37s0,0,.06,0a1.46,1.46,0,0,0,.22-.17.4.4,0,0,0,.07-.24,1.33,1.33,0,0,1,.34-.6s.1-.13.28-.36l.15-.2L59,69l0-.06,0-.07a.56.56,0,0,1,.11-.2h0a1.92,1.92,0,0,0,.59.71s.3-.06.79-.19a2.22,2.22,0,0,1,1,0l.25.07a.25.25,0,0,0,.17,0,1.21,1.21,0,0,1,.11-.18h0a2.55,2.55,0,0,1,.53-.95s-.09-.1-.24-.18a2.23,2.23,0,0,0-1.29-.1,8.84,8.84,0,0,0-1.58.3h-.06a1.48,1.48,0,0,1,0-.24l.06,0,.32-.08a2.52,2.52,0,0,1,.8-.08,4.45,4.45,0,0,1,1.28-.2s.06,0,.06-.07a.44.44,0,0,0-.13-.22.43.43,0,0,1,0-.07.38.38,0,0,0-.11-.11.24.24,0,0,0-.15-.06l-.47.09a8.24,8.24,0,0,0-.89.17,6.3,6.3,0,0,1-.81.09l-.19-.06-.12,0c-.08,0-.13,0-.14.06a1.93,1.93,0,0,0-.13.72l0,.13a.51.51,0,0,1,0,.17l0,.2a.52.52,0,0,0-.07.16l-.26.56,0,0c0,.07-.08.16-.12.25l0,.06a5.49,5.49,0,0,0-.3.49,4,4,0,0,1-.68.78s0,0,0,0a.27.27,0,0,0-.08.07C56.75,71.16,56.53,71.37,56.52,71.45Zm4-2.76a1.27,1.27,0,0,0,.68-.17.3.3,0,0,0,.06-.17.14.14,0,0,0-.15-.16,2.9,2.9,0,0,0-.66.16l-.1,0-.14,0s0,0,0,.07a.77.77,0,0,0,.09.13l0,0A.59.59,0,0,0,60.49,68.69Z"/><path class="cls-3" d="M66.81,67l-.38.12c-.06,0-.09,0-.09.08s.09.22.26.32a.63.63,0,0,0,.37.15.18.18,0,0,0,.11,0,2.52,2.52,0,0,1,.31-.55.84.84,0,0,0,0-.17s0,0,0,0l-.54.12,0,0m-.85.51a.9.9,0,0,0-.32-.19.35.35,0,0,0-.23.07q-.14.14,0,.57,0,.09.3.12a1.7,1.7,0,0,1,.41,0c.2,0,.3-.06.3-.17S66.24,67.74,66,67.53Zm0,2.71q-1.05.27-1.08.3s0,.17.17.36a10.61,10.61,0,0,1,2-.41h0s.07,0,.07.1v.56a2.79,2.79,0,0,0-.12.34l-.13.09-.44,0h0c-.25,0-.47-.08-.66-.13l0,.05c0,.09.12.19.35.29a5.29,5.29,0,0,0,1.27.4h0a.14.14,0,0,0,.12-.06,2.28,2.28,0,0,0,.29-1,2.25,2.25,0,0,1,.12-.79,1.37,1.37,0,0,1,.44,0,2.07,2.07,0,0,1,.69,0l.45.11c.08,0,.12,0,.13-.14a1,1,0,0,0,0-.17s0-.11,0-.17a.25.25,0,0,0-.17-.22,6.2,6.2,0,0,0-1.5,0s-.08,0-.1-.09a.86.86,0,0,1,0-.16l.27-.09a.72.72,0,0,0,.24-.09,3,3,0,0,1,.35-.22,9.28,9.28,0,0,0,1.19-.07l.15,0A.09.09,0,0,0,70,69c0-.19-.39-.49-1.17-.89l0,0c-.07,0-.33,0-.8-.11a0,0,0,0,1,0,0,4.3,4.3,0,0,1,.38-.37,2.87,2.87,0,0,1,.29-.26c.18-.09.27-.15.27-.17a1,1,0,0,0-.58-.4h0c-.06,0-.14.07-.26.21a5.65,5.65,0,0,1-.83,1,5.4,5.4,0,0,1-.67.27c-.25.08-.62.21-1.11.41-.16,0-.25,0-.25.1v0a.22.22,0,0,0,.06.14.21.21,0,0,0,.1,0,2.4,2.4,0,0,1,.75-.14,11,11,0,0,1,1.1-.27,6.58,6.58,0,0,1,1.28-.27h0a1.06,1.06,0,0,1,.3.09c.11.05.16.11.16.19a.38.38,0,0,1-.16.3,1.2,1.2,0,0,1-.31.14,4.5,4.5,0,0,0-.88-.25,10.91,10.91,0,0,0-1.81.47l0,0a.08.08,0,0,0-.07.08c0,.13.09.25.27.37a.29.29,0,0,0,.13,0,1.52,1.52,0,0,0,.4-.23l.53-.15a1.26,1.26,0,0,0,.2-.15.45.45,0,0,1,.34-.18.08.08,0,0,1,.09.09s-.06.12-.16.24a.65.65,0,0,1-.43.14c-.06,0-.1.06-.1.1l.14.29s0,.07-.12.1A5.91,5.91,0,0,0,65.94,70.24Zm-1.83-.74q0,.1.42.21a1.31,1.31,0,0,0,.31.05c.12,0,.19,0,.19-.12v0A1.14,1.14,0,0,1,65,69s0-.06-.11-.06a1,1,0,0,0-.53.22.74.74,0,0,0-.27.35Z"/><path class="cls-3" d="M77.81,68.17a.92.92,0,0,0,.33,0s0,0,0,0a.27.27,0,0,0-.1-.24,1.65,1.65,0,0,0-.53-.29,1,1,0,0,0-.21-.11l0,0c-.06,0-.1,0-.11.07s0,.18,0,.48c0,.06.1.1.23.1l.06,0,0,0h0l.26,0M75,69.85h0a.73.73,0,0,1-.14-.11l-.57-.24a.6.6,0,0,1-.08-.08l0,0-.07,0a.1.1,0,0,0-.08,0,.57.57,0,0,0-.08.33.27.27,0,0,0,.11.22,1.61,1.61,0,0,0,.8,0c.05,0,.08,0,.1,0a.12.12,0,0,0,0-.1Zm-1.25-1a.6.6,0,0,0,.22.4l0,0,.06,0,.21-.06a3.05,3.05,0,0,1,.84-.15,1.47,1.47,0,0,1,.3,0l0,0a2,2,0,0,0,0,.62,2.74,2.74,0,0,0,0,.47,4.59,4.59,0,0,1,0,1l0,0a.74.74,0,0,1-.42,0h0a2.59,2.59,0,0,1-.55-.1h-.14v0a.88.88,0,0,0,.23.16l.09.06a4,4,0,0,0,1,.36l.2.08a1.19,1.19,0,0,0,.37.1.12.12,0,0,0,.07,0,.31.31,0,0,0,0-.12l-.06-.28A2.6,2.6,0,0,1,76.2,71v-.79a.08.08,0,0,1,.07,0,2.61,2.61,0,0,1,.68.3l.07,0,.26.17a.71.71,0,0,1,.24.34c0,.1.14.15.41.15a9.18,9.18,0,0,0,1.1,0,1.23,1.23,0,0,0,.48-.1.15.15,0,0,1,0-.07,1.4,1.4,0,0,0-.68-.25h0L78,70.59h-.08a5.59,5.59,0,0,1-1.31-.82,3.37,3.37,0,0,1,.69-.4.69.69,0,0,1,.21-.1l.31-.11a.31.31,0,0,0-.08-.19.39.39,0,0,0-.23-.13.36.36,0,0,0-.15.08l0,0a7.26,7.26,0,0,0-.69.42.24.24,0,0,1-.09.06l-.24.11a.15.15,0,0,1-.16-.1s0-.15,0-.37,0-.14.09-.16l.06,0,.63-.16s0,0,0,0h.21s.06,0,.06-.08a1.52,1.52,0,0,0-.3-.4l-.07,0-.61.12a.09.09,0,0,1-.09-.07,2.32,2.32,0,0,1,.09-1l0,0,.11-.09v0A1.21,1.21,0,0,0,76,67l0,0h0l0,0-.17,0s-.07.16-.09.43c0,.11,0,.22,0,.33s0,.27-.11.73a.78.78,0,0,1-.3.1,2,2,0,0,0-.33.08l-.59.07-.47,0,0,.05Zm1,1.4a4.75,4.75,0,0,0-.6.3s0,0,0,0c-.28.11-.51.21-.7.3s-.33.15-.33.2a1.54,1.54,0,0,0,.32.32.46.46,0,0,0,.17.09.72.72,0,0,0,.24-.2l.58-.42c.52-.42.79-.65.82-.69s.09-.07.09-.11a0,0,0,0,0,0,0A1.37,1.37,0,0,0,74.79,70.22Z"/><path class="cls-3" d="M82.35,68.48h0c-.06,0-.09,0-.09,0s0-.1.13-.14a3.08,3.08,0,0,0,.47-.21.43.43,0,0,0,0-.33s0,0-.09,0h-.06l-.31.06a.05.05,0,0,1,0,0s0-.08.12-.15a.54.54,0,0,1,.38-.15.29.29,0,0,1,.21.1,6.24,6.24,0,0,1,.06,1.12c0,.06,0,.09-.08.09a.13.13,0,0,1-.08,0s-.06-.09-.09-.23-.19,0-.52,0m.15,1.84s0,.06,0,.06a.67.67,0,0,1-.37-.19A.23.23,0,0,1,82,70a.28.28,0,0,1,.1-.23.18.18,0,0,1,.17-.07c.12,0,.19.08.2.24Zm-1.91.61-.62.23c-.18.06-.27.12-.27.16s.1.09.31.09a2.31,2.31,0,0,0,.89-.17l.11,0a.32.32,0,0,0,.18-.16.39.39,0,0,1,.18-.31c.07-.08.42,0,1.07.13a2.76,2.76,0,0,0,.77.25,1,1,0,0,1,.62.26,1.11,1.11,0,0,1,.11.11,1.51,1.51,0,0,1,.1.3s.11.07.26.08a2.16,2.16,0,0,1,.48,0l.62,0a5.28,5.28,0,0,1,.6,0l.43-.12c.06,0,.09,0,.09-.08s-.06-.07-.18-.11c-.36-.11-1.06-.27-2.12-.48l-1-.38a.15.15,0,0,1-.1-.13.28.28,0,0,1,0-.08.4.4,0,0,1,.16-.22,1.65,1.65,0,0,1,.74-.15.12.12,0,0,0,.06-.09L84,70s0,0,0,0a.3.3,0,0,0,0-.1,1.52,1.52,0,0,0-.55,0h-.15c-.06,0-.09,0-.09-.07a.11.11,0,0,1,0-.07.16.16,0,0,1,.14-.09h.09a6.45,6.45,0,0,1,1.35,0c.08,0,.12,0,.12-.08a.07.07,0,0,0,0,0,.69.69,0,0,0-.13-.36.28.28,0,0,0-.21-.11l-.61.08c-.07,0-.1,0-.11-.12s.06-.54.17-1.35a2.56,2.56,0,0,1,.12-.32c-.05-.08-.21-.12-.5-.14a8.3,8.3,0,0,0-1.82.23.45.45,0,0,0-.16,0,.14.14,0,0,0-.13.11,3.14,3.14,0,0,0,.17,1.31.52.52,0,0,0,0,.16.2.2,0,0,0,.22.16,3.51,3.51,0,0,1,.75-.24A1,1,0,0,1,83,69l.17.12-.46.1a19.19,19.19,0,0,0-2.8.59c-.06,0-.06.08,0,.23l0,0a.49.49,0,0,0,.2.12,3.57,3.57,0,0,1,1.24-.31h0c.06,0,.09,0,.09.09a1.05,1.05,0,0,1-.3.52c-.06.05-.2.17-.41.37Z"/><path class="cls-3" d="M91.09,69.5a.81.81,0,0,0,.12.38.2.2,0,0,0,.14.09.35.35,0,0,0,.19-.06.48.48,0,0,0,.14-.41,2.57,2.57,0,0,1,.15-.65s0,0,0,0a1.77,1.77,0,0,0-.59-.14h0a.13.13,0,0,0-.15.13.24.24,0,0,0,0,.08l0,.64m-.18,1.67c0,.11.21.28.63.49a1.68,1.68,0,0,0,.44.17l.11,0a3.76,3.76,0,0,0,1,.26c.12,0,.19,0,.19-.17a10.13,10.13,0,0,1-.17-2.46,5,5,0,0,1,.1-2.21l0,0v0c0-.07-.08-.13-.26-.19l-.41-.13a.3.3,0,0,0-.11,0,.17.17,0,0,0-.07.16V69a.62.62,0,0,0,0,.13c0,.13,0,.37,0,.73,0,1,.06,1.5,0,1.51s-.16.06-.37.06a2.25,2.25,0,0,1-.91-.2A.58.58,0,0,0,90.91,71.17Zm-1.16-1.63s0,.11,0,.18a.49.49,0,0,1-.12.34.29.29,0,0,1-.19,0c-.09,0-.14,0-.15-.07a.29.29,0,0,0,0-.12.43.43,0,0,0-.31-.09h-.07s0,0,0,0a2.33,2.33,0,0,1,.58-.34.45.45,0,0,1,.3,0S89.75,69.49,89.75,69.54Zm-1.08-.88A11.68,11.68,0,0,1,87.23,70s0,0,0,0a.53.53,0,0,0-.1.14.47.47,0,0,1-.14.14s0,0,0,.05,0,0,0,0l.08,0h.08l.35-.08a2.28,2.28,0,0,0,.39-.15l.11,0,.13-.08a1.09,1.09,0,0,1,.28-.19l.14-.09h0l.21,0s0,0,0,.11c-.09.81-.14,1.23-.14,1.26a.67.67,0,0,0,.44.53c.1.08.46.07,1.09,0h.06a.4.4,0,0,0,.21-.07.2.2,0,0,0,.06-.14,1.85,1.85,0,0,0-.1-.42l-.17-.39a.09.09,0,0,0-.06,0c-.09,0-.14.08-.16.23a.67.67,0,0,1-.08.3.27.27,0,0,1-.18.15,1.51,1.51,0,0,1-.37,0,.39.39,0,0,1-.23-.07c-.09-.08-.11-.22,0-.44a.6.6,0,0,1,.14-.33s.19,0,.5,0c.16,0,.3-.1.43-.31l0-.05.13-.24a2.22,2.22,0,0,0,.08-.23.45.45,0,0,0,0-.13.19.19,0,0,1,0-.08.27.27,0,0,0,.09-.22s0,0-.11-.1a1.35,1.35,0,0,0-1,0,1.28,1.28,0,0,0-.33.13l-.36.15s0,0-.06-.06.11-.23.33-.5a1,1,0,0,1,.22-.23l.23-.2a.37.37,0,0,1,.19-.07.66.66,0,0,1,.37.15.44.44,0,0,0,.36.13,1,1,0,0,0,.25-.07c.17-.09.26-.16.27-.22s-.14-.17-.4-.21a1.11,1.11,0,0,1-.34,0c-.1,0-.15,0-.16-.11a2.37,2.37,0,0,0,.33-.38.35.35,0,0,0-.1-.15l0-.06c-.07-.08-.12-.13-.17-.13s-.24.15-.52.45l-.06.08Z"/><path class="cls-3" d="M96.65,71.14a1.12,1.12,0,0,0,.86-.36c.16-.23.22-.41.17-.54a.69.69,0,0,1,.5-.67.54.54,0,0,1,.22,0,.08.08,0,0,1,.07,0,5.84,5.84,0,0,1,.15,1.4c0,.06,0,.26,0,.6,0,.5,0,.78.13.83l.15,0c.21,0,.31-.06.32-.16,0-.26,0-.62,0-1.1a6.91,6.91,0,0,1,0-1,1.77,1.77,0,0,1,.08-.54.21.21,0,0,1,.11-.16,1.84,1.84,0,0,1,.74,0h0l.16,0c.1,0,.15,0,.15-.11a.4.4,0,0,0-.08-.2,1.69,1.69,0,0,0-.2-.29c-.08-.08-.14-.12-.19-.12h-.3c-.19,0-.73.14-1.63.37H98c0-.11,0-.26.19-.43s.3-.2.68-.23a1.16,1.16,0,0,0,.29-.1,1.24,1.24,0,0,0,.41-.18s0-.07,0-.12a.29.29,0,0,0-.1-.2.28.28,0,0,0-.2-.08,5.44,5.44,0,0,0-1.12.28h0a1.49,1.49,0,0,0-.58.16,7.08,7.08,0,0,0,0,.9c0,.11,0,.23,0,.35l-.07.32c-.11.3-.18.47-.2.51l0,.08-.23.35a2.8,2.8,0,0,0-.31.38v0m-.23-4.61a.35.35,0,0,0-.23.09.67.67,0,0,0-.23.53.34.34,0,0,0,.12.2.72.72,0,0,0,.48.18.63.63,0,0,0,.23,0,.93.93,0,0,0-.26-.82l-.09-.11Zm-1.16,4.35a2,2,0,0,1,0-.26s0-.06,0-.08a.53.53,0,0,1,0-.25.23.23,0,0,1,.13-.05h.16a.49.49,0,0,1,.2,0,1.33,1.33,0,0,1,.06.66.13.13,0,0,1-.05.11.35.35,0,0,1-.24.06.58.58,0,0,1-.25,0,.19.19,0,0,1-.1-.08Zm.23-1.09L95,70s-.33.07-.84.2c-.09,0-.15,0-.16.07a.14.14,0,0,0,0,.16.45.45,0,0,0,.19.15l.07,0a3.23,3.23,0,0,1,.71-.19h0v0a0,0,0,0,0,0,0,.28.28,0,0,0-.1.09s0,0-.05,0l-.09.1c-.29.3-.44.48-.44.54s0,.08.11.13l.37.13a.2.2,0,0,0,.17-.09c.09-.21.24-.23.47,0l0,0,0,0a2.51,2.51,0,0,0,.65.21.19.19,0,0,0,.17-.08,1.49,1.49,0,0,0,0-.68s0,0,0,0a.77.77,0,0,1,0-.2,2.12,2.12,0,0,0,.51,0h0c.06-.05.09-.09.09-.14s-.09-.17-.29-.24a1.34,1.34,0,0,1-.25-.11v0s0-.07.12-.09a2.93,2.93,0,0,1,.4,0,.11.11,0,0,1,.08,0c.19,0,.28-.09.29-.14a.31.31,0,0,0-.12-.23.36.36,0,0,0-.17-.08,1.91,1.91,0,0,0-.44.1.12.12,0,0,1-.06-.1.13.13,0,0,1,0-.08,1.92,1.92,0,0,1,.36-.15c.19-.07.28-.16.29-.26a.14.14,0,0,0-.06-.12.38.38,0,0,0-.2,0l-.08,0s0,0,0,0,.07-.12.2-.17.25-.23,0-.33l-.17-.09-.06,0a.2.2,0,0,1,0-.05L97,68c.19-.05.29-.16.29-.31h0a1.79,1.79,0,0,0-1.09.08,8,8,0,0,0-1.37.32.68.68,0,0,0,.14.32l.32-.09a.44.44,0,0,1,.23,0,4.51,4.51,0,0,0-.22.44.16.16,0,0,0,0,.11c0,.09,0,.13.11.14h0l.08,0c.11,0,.25-.16.42-.4a.46.46,0,0,1,.36-.23c.05,0,.07,0,.07.09s-.09.23-.27.4a5.52,5.52,0,0,1-1,.37l-.14,0H94.8s-.08,0-.12.09a.52.52,0,0,0,.18.29l.12,0a1.55,1.55,0,0,1,.74-.16.07.07,0,0,1,.07,0,.08.08,0,0,1,0,.07.15.15,0,0,1,0,.06Z"/><path class="cls-4" d="M70.87,75.22v3h-.65l-.38-1.38v1.38h-.62v-3h.62l.41,1.37V75.22h.62m-2.72,2c0-.35-.07-.77-.11-1.28-.07.58-.12,1-.14,1.28Zm.39-2,.43,3h-.76l0-.55h-.26l0,.55H67.1l.38-3Zm-1.7,0v3h-.73V77h-.23v1.28h-.73v-3h.73v1.09h.23V75.22Zm-2.11,0v2a3.05,3.05,0,0,1,0,.49.57.57,0,0,1-.12.28.63.63,0,0,1-.28.23,1,1,0,0,1-.4.07,1.06,1.06,0,0,1-.45-.09.68.68,0,0,1-.29-.23.72.72,0,0,1-.11-.31c0-.1,0-.33,0-.67v-1.8h.74V77.5a1.07,1.07,0,0,0,0,.25.08.08,0,0,0,.08.06.08.08,0,0,0,.09-.06,1,1,0,0,0,0-.29V75.22Zm-2,0-.33,3h-.92c-.09-.47-.16-1-.23-1.59,0,.25-.09.78-.2,1.59h-.92l-.33-3h.72l.07,1.06.08,1c0-.53.09-1.23.2-2.09h.77c0,.09,0,.43.08,1l.08,1.16c0-.74.11-1.46.21-2.16Z"/><path class="cls-4" d="M81.6,77.18c0-.35-.07-.77-.11-1.28-.08.58-.13,1-.15,1.28h.26m.4-2,.43,3h-.77l0-.55h-.27l0,.55h-.78l.38-3Zm-1.73,0v3h-.66l-.39-1.38v1.38h-.63v-3h.63l.42,1.37V75.22Zm-2.11,0v3h-.75v-3Zm-1.18,0v3h-.75V77H76v1.28h-.75v-3H76v1.09h.23V75.22Zm-2.13,1.33H74.1V76a1.4,1.4,0,0,0,0-.29.11.11,0,0,0-.11-.06.13.13,0,0,0-.12.07,1.7,1.7,0,0,0,0,.3v1.41a1.48,1.48,0,0,0,0,.29.11.11,0,0,0,.11.07c.06,0,.1,0,.11-.07a1,1,0,0,0,0-.32V77h.75v.12a2.55,2.55,0,0,1-.06.67.71.71,0,0,1-.28.35,1,1,0,0,1-.54.14,1.08,1.08,0,0,1-.54-.12.66.66,0,0,1-.29-.35,2.77,2.77,0,0,1-.06-.67v-.89a3.19,3.19,0,0,1,0-.49.7.7,0,0,1,.12-.32.69.69,0,0,1,.3-.23,1,1,0,0,1,.43-.09,1,1,0,0,1,.55.13.65.65,0,0,1,.28.34,1.94,1.94,0,0,1,.07.63Z"/><ellipse class="cls-5" cx="71.3" cy="53.65" rx="48.83" ry="32.13"/><ellipse class="cls-6" cx="71.31" cy="53.75" rx="39.91" ry="31.69"/><line class="cls-7" x1="44.35" y1="26.82" x2="98.07" y2="26.82"/><line class="cls-8" x1="44.89" y1="80.71" x2="97.82" y2="80.71"/><path class="cls-9" d="M25.59,86.9l-.19.24-1.81-1.38.18-.24.12.09a.39.39,0,0,0,.35,0,1.09,1.09,0,0,0,.35-.24,8.91,8.91,0,0,0,.66-.8l4.54-5.79c.35-.45.56-.74.63-.86a.82.82,0,0,0,.11-.39.33.33,0,0,0-.13-.3l-.11-.09.19-.24,1.81,1.38-.19.25L32,78.49a.34.34,0,0,0-.35,0,.94.94,0,0,0-.35.23,8.1,8.1,0,0,0-.67.8l-4.53,5.79a9,9,0,0,0-.63.87.89.89,0,0,0-.12.38.31.31,0,0,0,.13.3l.12.09"/><path class="cls-9" d="M36.79,81.31l-.19.29a1.11,1.11,0,0,0-.76.35c-.25.2-.74.73-1.53,1.55l-5.65,5.85-.09-.06,3.27-7.88c.46-1.11.78-1.74.84-1.94a.54.54,0,0,0-.08-.53l.19-.28,1.8,1.2-.19.28-.06,0A.41.41,0,0,0,33.9,80a1,1,0,0,0-.29.29c-.06.09-.12.21-.19.34s-.24.5-.51,1.09l-2.6,5.64,3.77-4.05c.46-.49.76-.82.9-1a4.72,4.72,0,0,0,.35-.45,1.76,1.76,0,0,0,.22-.43.67.67,0,0,0,.05-.35.47.47,0,0,0-.23-.34l.19-.28,1.23.81"/><path class="cls-9" d="M38.82,82.88l-2.26,3.67.07,0c.22.12.81.75,1.35.26.34-.31.19-.25.65-.86l.28.08-2,3.39-.31-.12c.33-.49.3-.34.43-.73a1.27,1.27,0,0,0,.14-.66c0-.17-.76-.6-.94-.71l-1.6,2.67a8.78,8.78,0,0,0-.55,1,.9.9,0,0,0-.07.34.29.29,0,0,0,.17.25l.23.14a1.14,1.14,0,0,0,1.23-.11,3,3,0,0,0,1.19-1.08l.28.29-1.75,2.16L32,90.93l.16-.25.13.07a.34.34,0,0,0,.35,0,.8.8,0,0,0,.32-.27,8,8,0,0,0,.56-.86l3.73-6.22c.26-.43.41-.69.46-.79a1.12,1.12,0,0,0,.12-.44.36.36,0,0,0-.18-.37l-.13-.07.16-.26,3.22,1.88-1.16,2.31-.31-.15a2.41,2.41,0,0,0,.34-1,1.49,1.49,0,0,0,0-.9,1.17,1.17,0,0,0-.52-.48l-.4-.23"/><path class="cls-9" d="M42.51,84.82,40.26,89.1l.16.07a1,1,0,0,0,.69.08,1.69,1.69,0,0,0,.66-.53,7.18,7.18,0,0,0,.77-1.2,5.62,5.62,0,0,0,.66-1.74.69.69,0,0,0-.39-.82l-.3-.14M40,89.61l-1.44,2.74a9.13,9.13,0,0,0-.49,1,.87.87,0,0,0,0,.38.44.44,0,0,0,.3.28l-.14.27-2-.86.14-.27a.48.48,0,0,0,.43,0,.92.92,0,0,0,.31-.26,9.23,9.23,0,0,0,.56-1L41,85.62a9.13,9.13,0,0,0,.49-1,.86.86,0,0,0,0-.38c0-.11-.12-.21-.3-.28l.14-.27,1.8.78a1.74,1.74,0,0,1,.9.69,1.81,1.81,0,0,1,.05,1.14,5.79,5.79,0,0,1-.61,1.63,5.5,5.5,0,0,1-1.25,1.66,1.79,1.79,0,0,1-.9.43l-.81,3.71a6.87,6.87,0,0,0-.16.91.41.41,0,0,0,.14.36l-.14.27-1.22-.53,1.1-5Z"/><path class="cls-9" d="M47.93,86.18l-1.21,3.46-.13,0a6.22,6.22,0,0,0,.29-2.23c-.05-.6-.22-1-.5-1a.67.67,0,0,0-.67.26,2.65,2.65,0,0,0-.53.9,2.91,2.91,0,0,0-.16.63,2.72,2.72,0,0,0,0,.8A8,8,0,0,0,45.44,90a5.44,5.44,0,0,1,.42,2,6.38,6.38,0,0,1-.39,1.89A6.06,6.06,0,0,1,44.24,96c-.51.53-1,.73-1.42.6a.8.8,0,0,1-.35-.22,2.05,2.05,0,0,1-.32-.52.47.47,0,0,0-.2-.23.3.3,0,0,0-.23.1,1.42,1.42,0,0,0-.32.42l-.12,0,1.41-3.91.12,0A8,8,0,0,0,42.44,95c.06.66.25,1,.56,1.14a.73.73,0,0,0,.74-.29,3,3,0,0,0,.6-1,3.24,3.24,0,0,0,.18-.73,3,3,0,0,0,0-.73,4.27,4.27,0,0,0-.3-1,7.15,7.15,0,0,1-.42-1.45,4.44,4.44,0,0,1,0-1.21,7,7,0,0,1,.34-1.37,5.67,5.67,0,0,1,1.15-2c.46-.5.88-.69,1.27-.57a.79.79,0,0,1,.37.24,1.74,1.74,0,0,1,.24.46c.09.21.16.32.21.34s.12,0,.18-.08a3.26,3.26,0,0,0,.3-.56l.1,0"/><path class="cls-9" d="M55,88.34l-.86,2.82-.12,0a8.88,8.88,0,0,0,.2-1.46,1.74,1.74,0,0,0-.14-.77c-.05-.12-.18-.2-.39-.25l-.33-.09-2.44,8a9.63,9.63,0,0,0-.27,1,.78.78,0,0,0,0,.38.32.32,0,0,0,.25.23l.15,0-.09.29-2.3-.6.08-.28.15,0a.37.37,0,0,0,.36-.08,1.08,1.08,0,0,0,.24-.33,8.8,8.8,0,0,0,.33-1l2.45-8L52,88.21a.71.71,0,0,0-.78.28,5.47,5.47,0,0,0-.9,1.68l-.12,0,.86-2.83,4,1"/><path class="cls-9" d="M60.24,89.31l-.05.3a.6.6,0,0,0-.41.26,11.83,11.83,0,0,0-.86,1.75l-1.7,3.78L56.76,98a6.35,6.35,0,0,0-.14,1,.92.92,0,0,0,.08.38.33.33,0,0,0,.27.2l.26,0,0,.3-2.61-.38,0-.29.25,0a.39.39,0,0,0,.35-.12,1.09,1.09,0,0,0,.21-.37,6.38,6.38,0,0,0,.21-1L56,95.69l-.28-4.81a10.45,10.45,0,0,0-.18-1.68.38.38,0,0,0-.31-.3l.05-.3,2.23.32,0,.3-.1,0a.3.3,0,0,0-.31.1.57.57,0,0,0-.13.27,9.36,9.36,0,0,0,0,1.49l.21,3.71,1.41-3.15a8.65,8.65,0,0,0,.59-1.54.63.63,0,0,0,0-.37.51.51,0,0,0-.38-.31l0-.29,1.42.2"/><path class="cls-9" d="M65.16,90.56Q64.53,90.5,64,92a18,18,0,0,0-.7,3.51,15.11,15.11,0,0,0-.08,4.1c.12.63.35,1,.69,1a.68.68,0,0,0,.63-.33,4.85,4.85,0,0,0,.66-1.57,21.55,21.55,0,0,0,.52-2.88A21.79,21.79,0,0,0,66,92.6a4.29,4.29,0,0,0-.25-1.54c-.14-.31-.32-.47-.54-.5m0-.51q1.09,0,1.59,1.68a10.31,10.31,0,0,1,.2,4A12,12,0,0,1,66,99.32q-.93,2-2.16,1.86c-.82-.09-1.38-.81-1.67-2.16a11.2,11.2,0,0,1-.08-3.74,10.09,10.09,0,0,1,1.17-3.9C63.88,90.36,64.51,89.92,65.18,90.05Z"/><path class="cls-9" d="M68.76,91.08l-.07,4.45h.13a.64.64,0,0,0,.49-.21,1.73,1.73,0,0,0,.33-.72,6.82,6.82,0,0,0,.2-1.38H70l-.09,5.44h-.11a5.32,5.32,0,0,0-.31-2c-.18-.33-.39-.5-.63-.5h-.13l-.05,3.31a6.83,6.83,0,0,0,0,1,.92.92,0,0,0,.14.37.35.35,0,0,0,.3.16h.15v.3l-2.35,0V101H67a.35.35,0,0,0,.31-.17.81.81,0,0,0,.14-.38,6.7,6.7,0,0,0,.06-1l.11-7.13a6.67,6.67,0,0,0,0-1,.92.92,0,0,0-.14-.37.35.35,0,0,0-.29-.16h-.15v-.3l3.79.06,0,3.11h-.14a5.57,5.57,0,0,0-.2-1.62,1.42,1.42,0,0,0-.54-.75,1.57,1.57,0,0,0-.74-.13h-.42"/><path class="cls-9" d="M80.76,89.72l.72,3.76-.13,0a6.68,6.68,0,0,0-1-2.15c-.37-.48-.73-.68-1.07-.62s-.51.3-.67.73a4.51,4.51,0,0,0-.23,1.63,15.36,15.36,0,0,0,.3,2.72,20.74,20.74,0,0,0,.67,2.62,5.28,5.28,0,0,0,.83,1.72,1,1,0,0,0,1,.46,1,1,0,0,0,.7-.6,5.37,5.37,0,0,0,.46-1.68l.18.94a4.27,4.27,0,0,1-.53,1.52,1.32,1.32,0,0,1-.89.61,1.7,1.7,0,0,1-1.43-.45,5.1,5.1,0,0,1-1.26-1.84,12.7,12.7,0,0,1-.84-2.72,12.47,12.47,0,0,1-.22-3,6,6,0,0,1,.5-2.33,1.37,1.37,0,0,1,2.2-.69c.25.16.39.23.45.22s.12-.09.15-.22a1.85,1.85,0,0,0,0-.62l.13,0"/><path class="cls-9" d="M85.59,99.69l.06.29-2.24.45-.06-.28.15,0a.37.37,0,0,0,.26-.23,1,1,0,0,0,.06-.4,9.1,9.1,0,0,0-.16-1l-1.36-7a7.72,7.72,0,0,0-.23-1,.93.93,0,0,0-.21-.33.32.32,0,0,0-.32-.09l-.14,0-.06-.3,2.24-.45.06.29-.14,0a.34.34,0,0,0-.27.22,1,1,0,0,0-.06.41c0,.13.06.46.16,1l1.36,7a9.33,9.33,0,0,0,.23,1,1,1,0,0,0,.22.33.33.33,0,0,0,.31.1l.14,0"/><path class="cls-9" d="M113.62,76.55l4.89,7a5.47,5.47,0,0,0,.5.66.43.43,0,0,0,.21.14.33.33,0,0,0,.31-.07c.34-.23.42-.66.25-1.29a12.3,12.3,0,0,0-1.85-3.43,15.19,15.19,0,0,0-2.17-2.6,3,3,0,0,0-1.28-.75,1.26,1.26,0,0,0-.86.31M118,86.14l-.17-.24.14-.1a.38.38,0,0,0,.19-.32.92.92,0,0,0-.09-.43,8.19,8.19,0,0,0-.56-.86l-4.12-5.92a6.65,6.65,0,0,0-.64-.84.81.81,0,0,0-.34-.21.42.42,0,0,0-.37.07l-.13.09-.17-.25,1.84-1.28a2,2,0,0,1,1.5-.39,4.18,4.18,0,0,1,2,1,11.58,11.58,0,0,1,2,2.27,12.08,12.08,0,0,1,1.08,1.85,7.17,7.17,0,0,1,.56,1.57,3.36,3.36,0,0,1,.07,1.2,2.45,2.45,0,0,1-.37,1,2,2,0,0,1-.53.49Z"/><path class="cls-9" d="M129.62,41.91l3.68-1,.9,3.82-.28.09,0-.14a.36.36,0,0,0-.23-.26,1,1,0,0,0-.4,0,7.32,7.32,0,0,0-1,.26l-6.83,2.1a7.47,7.47,0,0,0-1,.34.84.84,0,0,0-.31.25.37.37,0,0,0-.08.33l0,.14-.28.09-.54-2.3.29-.08,0,.18a.34.34,0,0,0,.23.26,1,1,0,0,0,.4,0,6.93,6.93,0,0,0,1-.26l6.61-2a8.24,8.24,0,0,0,1-.35.61.61,0,0,0,.29-.25.7.7,0,0,0,0-.4l-.09-.36a.64.64,0,0,0-.42-.48,2.55,2.55,0,0,0-1-.12,16.08,16.08,0,0,0-1.93.26l0-.13"/><path class="cls-9" d="M20.6,31.84l-2.79-1.9a6.31,6.31,0,0,0-.89-.55.77.77,0,0,0-.39-.07.41.41,0,0,0-.33.19l-.09.14-.25-.16,1.51-2.21.25.16-.1.14a.48.48,0,0,0-.06.4.81.81,0,0,0,.23.34,7.57,7.57,0,0,0,.82.6l5.91,4a7.59,7.59,0,0,0,.89.56.79.79,0,0,0,.4.07.42.42,0,0,0,.32-.2l.09-.14.25.17-1.51,2.21-.24-.17.09-.14a.42.42,0,0,0,.06-.39.75.75,0,0,0-.23-.34,6.37,6.37,0,0,0-.81-.61l-2.55-1.74-1,1.49,2.55,1.74a7.59,7.59,0,0,0,.89.56.76.76,0,0,0,.39.06.41.41,0,0,0,.33-.19l.09-.14.25.17-1.51,2.21L22.9,38l.1-.14a.45.45,0,0,0,.06-.39.94.94,0,0,0-.23-.35,8.16,8.16,0,0,0-.81-.6l-5.92-4a9.4,9.4,0,0,0-.89-.56.91.91,0,0,0-.4-.06.41.41,0,0,0-.32.19l-.09.14L14.15,32l1.51-2.2.24.16-.09.14a.4.4,0,0,0-.06.39.83.83,0,0,0,.23.35,8.16,8.16,0,0,0,.81.6l2.79,1.91,1-1.5"/><path class="cls-9" d="M23,38.24l-1.48,2.22-.25-.17.08-.11a.5.5,0,0,0,.11-.42.73.73,0,0,0-.22-.34,7.27,7.27,0,0,0-1-.69l-4.51-3a11.74,11.74,0,0,0-1.7-1,2,2,0,0,0-.86-.15.73.73,0,0,0-.6.32.9.9,0,0,0-.06.82,2.88,2.88,0,0,0,.69,1,14.29,14.29,0,0,0,2,1.49L19,40.69a6.05,6.05,0,0,0,.92.53,1.05,1.05,0,0,0,.47.09.62.62,0,0,0,.42-.3l.26.17-1,1.49-.25-.17.06-.09a.45.45,0,0,0,.05-.41,1.3,1.3,0,0,0-.36-.48,6.77,6.77,0,0,0-.75-.57l-3.5-2.33A21,21,0,0,1,13,37a3.85,3.85,0,0,1-1-1.37,1.44,1.44,0,0,1,.09-1.46,1.38,1.38,0,0,1,.9-.65,2.94,2.94,0,0,1,1.5.16,9.5,9.5,0,0,1,1.95,1l4.51,3a8.59,8.59,0,0,0,1,.62.74.74,0,0,0,.4.06c.13,0,.24-.11.36-.3l.25.17"/><path class="cls-9" d="M13.67,41.36,17,42,14.3,40.19l-.63,1.17M13,41.21l.74-1.59-1.31-1c-.3-.22-.37-.38-.58-.48a1.14,1.14,0,0,0-.69-.14c-.1,0-.22.14-.36.35l-.27-.13.61-1.49.27.13a.88.88,0,0,0,.29.61,6.4,6.4,0,0,0,1.17,1.11l7.3,5.32-.12.23-8.74-2.37a7.86,7.86,0,0,0-1.64-.32.83.83,0,0,0-.57.19l-.27-.13,1-2.17.28.13,0,.09a.45.45,0,0,0,0,.44.67.67,0,0,0,.31.24l.28.11a2.43,2.43,0,0,1,.6.17Z"/><path class="cls-9" d="M18.75,48.47,9,44l-.15.86a1.4,1.4,0,0,0,0,.89,2.2,2.2,0,0,0,.93.87,8.35,8.35,0,0,0,2,.77l0,.13-3.87-.89.75-4.14L18.41,47l.12-.67a1.51,1.51,0,0,0,0-.52,1.08,1.08,0,0,0-.34-.52,2.86,2.86,0,0,0-.75-.48,9.06,9.06,0,0,0-1.25-.45l0-.12,3.14.69-.64,3.57"/><path class="cls-9" d="M12.57,50l-3.38-.4a7.46,7.46,0,0,0-1-.09.81.81,0,0,0-.38.12.36.36,0,0,0-.19.3l0,.16-.3,0,.27-2.51.3,0,0,.16a.39.39,0,0,0,.14.35.78.78,0,0,0,.37.19,6.62,6.62,0,0,0,1,.16l7.17.86a7.68,7.68,0,0,0,1.05.09.85.85,0,0,0,.39-.12.38.38,0,0,0,.19-.3v-.16l.3,0-.27,2.51-.3,0,0-.16a.4.4,0,0,0-.13-.35.84.84,0,0,0-.37-.19,5.86,5.86,0,0,0-1-.16l-3.09-.37-.18,1.69,3.09.37a7.46,7.46,0,0,0,1,.09.81.81,0,0,0,.38-.12.38.38,0,0,0,.19-.3l0-.16.3,0-.28,2.51-.29,0v-.15a.41.41,0,0,0-.13-.36,1,1,0,0,0-.37-.19,6.88,6.88,0,0,0-1-.16l-7.17-.86a7.67,7.67,0,0,0-1.06-.09.85.85,0,0,0-.38.12.38.38,0,0,0-.19.3l0,.16-.3,0,.28-2.51.29,0v.16a.38.38,0,0,0,.13.35.84.84,0,0,0,.37.19,6.62,6.62,0,0,0,1,.16l3.38.41.18-1.7"/><path class="cls-9" d="M17.68,56.27c0-.42-.58-.7-1.63-.86a19.8,19.8,0,0,0-3.68-.07A15.85,15.85,0,0,0,8.22,56c-.61.23-.9.51-.87.85a.69.69,0,0,0,.46.55,5.15,5.15,0,0,0,1.71.37,21.17,21.17,0,0,0,3,0,23.29,23.29,0,0,0,3.27-.35,4.53,4.53,0,0,0,1.5-.51.7.7,0,0,0,.39-.62m.52-.07c.13.72-.33,1.33-1.38,1.85a10.63,10.63,0,0,1-4,.9A12.36,12.36,0,0,1,9,58.65c-1.45-.37-2.22-1-2.29-1.78s.54-1.48,1.85-2a11.92,11.92,0,0,1,3.74-.74,10.81,10.81,0,0,1,4.17.46C17.64,55,18.21,55.53,18.2,56.2Z"/><path class="cls-9" d="M18.58,59.56l-6,3.91,4.57-1A4.12,4.12,0,0,0,18.36,62a.59.59,0,0,0,.31-.68l.29-.07.36,1.63L19,63a.8.8,0,0,0-.31-.37,1.08,1.08,0,0,0-.49-.07,7.44,7.44,0,0,0-1.07.18l-8.85,2,0-.12,8.1-5.31L9.64,60.77a2.68,2.68,0,0,0-1.2.47.56.56,0,0,0-.22.51l0,.12L8,61.94l-.39-1.75.29-.07a.6.6,0,0,0,.48.49,3.3,3.3,0,0,0,1.24-.11l7.49-1.67.26-.17a2,2,0,0,0,.5-.4.53.53,0,0,0,.07-.38l.29-.06.39,1.74"/><path class="cls-9" d="M20.84,66l-3.52,1.58,0-.11a7.61,7.61,0,0,0,1.95-1.61c.4-.5.53-.91.41-1.24s-.43-.48-.94-.49a5.79,5.79,0,0,0-1.92.34,23.13,23.13,0,0,0-2.37.92,22.37,22.37,0,0,0-2.47,1.27,4.82,4.82,0,0,0-1.41,1.18,1,1,0,0,0-.22,1,.66.66,0,0,0,.2.28,1.31,1.31,0,0,0,.35.22L14.32,68a3.64,3.64,0,0,0,.75-.38.86.86,0,0,0,.26-.28.38.38,0,0,0,.05-.32l-.05-.11.28-.12.69,1.85-.27.12a.56.56,0,0,0-.28-.26,1,1,0,0,0-.43,0,4.42,4.42,0,0,0-.7.28l-3.38,1.51a3,3,0,0,1-1-.54,2,2,0,0,1-.57-.8,1.5,1.5,0,0,1,0-1.16,3.89,3.89,0,0,1,.75-1.15,7.42,7.42,0,0,1,1.23-1.11,13,13,0,0,1,2.2-1.24A10.44,10.44,0,0,1,18,63.24c1.21,0,1.94.3,2.2,1a1.45,1.45,0,0,1,.1.61,2.56,2.56,0,0,1-.17.59,2,2,0,0,0-.14.48c0,.06.1.09.22.09a1.93,1.93,0,0,0,.62-.12l0,.12"/><path class="cls-9" d="M22.67,68.48l1.59,2.14L24,70.8l-.08-.11a.54.54,0,0,0-.35-.25.79.79,0,0,0-.4.09,11,11,0,0,0-1,.67l-4.34,3.24a11.16,11.16,0,0,0-1.52,1.27,2,2,0,0,0-.44.75.74.74,0,0,0,.11.68.89.89,0,0,0,.75.33,3.1,3.1,0,0,0,1.16-.31A14,14,0,0,0,20,75.79l3.62-2.7a4.72,4.72,0,0,0,.81-.69,1,1,0,0,0,.25-.41.65.65,0,0,0-.14-.5l.24-.18,1.07,1.43-.25.18-.06-.08a.43.43,0,0,0-.37-.18,1.24,1.24,0,0,0-.57.17,6.56,6.56,0,0,0-.79.52l-3.37,2.52a23.58,23.58,0,0,1-2.33,1.58,4.06,4.06,0,0,1-1.63.49,1.45,1.45,0,0,1-1.34-.59,1.34,1.34,0,0,1-.31-1.06,3,3,0,0,1,.65-1.36,9.3,9.3,0,0,1,1.64-1.48l4.35-3.24a7.42,7.42,0,0,0,.92-.75.82.82,0,0,0,.2-.36.56.56,0,0,0-.16-.44l.24-.18"/><path class="cls-9" d="M27.7,74.2l-3.29,6.4,3.45-3.17a4.27,4.27,0,0,0,.88-1,.58.58,0,0,0-.07-.74l.22-.2L30,76.72l-.22.21a.9.9,0,0,0-.46-.17,1,1,0,0,0-.45.19,5.76,5.76,0,0,0-.85.69l-6.67,6.13-.08-.09L25.65,75l-5.09,4.68a2.74,2.74,0,0,0-.8,1,.57.57,0,0,0,.06.56l.08.09-.21.2-1.21-1.32.21-.2a.62.62,0,0,0,.67.18,3.17,3.17,0,0,0,1-.71L26,74.31l.14-.28a2.23,2.23,0,0,0,.23-.59.49.49,0,0,0-.13-.36l.22-.2L27.7,74.2"/><path class="cls-9" d="M47.18,97.21l-.09.28-2.18-.66.09-.28.14,0a.38.38,0,0,0,.35-.07,1.08,1.08,0,0,0,.24-.33,7.33,7.33,0,0,0,.36-1l2.26-6.8a8,8,0,0,0,.3-1,1,1,0,0,0,0-.38.35.35,0,0,0-.23-.24l-.14,0,.1-.28,2.17.66-.09.28-.14,0a.33.33,0,0,0-.34.07.87.87,0,0,0-.25.33,9.38,9.38,0,0,0-.36.95l-2.26,6.8a8,8,0,0,0-.3,1,.84.84,0,0,0,0,.39.33.33,0,0,0,.22.24l.14,0"/><path class="cls-9" d="M75.84,90l.69,3.61-.14,0a6.1,6.1,0,0,0-.9-2.09c-.37-.5-.71-.72-1-.65s-.4.23-.49.55a2.46,2.46,0,0,0,0,1.05,2.06,2.06,0,0,0,.19.62,2.48,2.48,0,0,0,.46.68,7.11,7.11,0,0,0,.93.78A5.28,5.28,0,0,1,77,96.17,5.6,5.6,0,0,1,77.63,98a5.68,5.68,0,0,1,0,2.44c-.2.71-.53,1.12-1,1.22a1,1,0,0,1-.45,0,2.53,2.53,0,0,1-.57-.29.41.41,0,0,0-.31-.1c-.06,0-.11.07-.16.19A1.44,1.44,0,0,0,75,102l-.13,0-.74-4.1.13,0a7.78,7.78,0,0,0,1.07,2.52c.41.55.78.79,1.12.72s.44-.26.54-.62a2.58,2.58,0,0,0,0-1.18,3,3,0,0,0-.23-.73,2.55,2.55,0,0,0-.39-.63,5.71,5.71,0,0,0-.8-.71,7.16,7.16,0,0,1-1.17-1.06,4.52,4.52,0,0,1-.64-1,5.8,5.8,0,0,1-.41-1.37,5.36,5.36,0,0,1,0-2.3c.17-.66.47-1,.89-1.12a1,1,0,0,1,.48,0,2.34,2.34,0,0,1,.46.28c.19.14.32.21.38.19s.1-.06.12-.16a2.17,2.17,0,0,0,0-.63l.11,0"/><path class="cls-9" d="M86,89.38l.85,4.22.08,0c.25,0,1.11,0,1.17-.72A4.27,4.27,0,0,0,88,91.79l.27-.14.82,3.87-.3.12a2.14,2.14,0,0,0-.18-.83c-.17-.37-.22-.46-.36-.57s-1,.08-1.17.12l.65,3c.13.59.22.95.26,1.08a.74.74,0,0,0,.19.3.27.27,0,0,0,.29.07l.26-.06a1.15,1.15,0,0,0,.83-.92,2.93,2.93,0,0,0,.13-1.6l.4,0,.2,2.77-3.76.84-.06-.29.14,0a.36.36,0,0,0,.27-.24.88.88,0,0,0,0-.41c0-.13-.07-.47-.18-1l-1.52-7.09c-.1-.49-.17-.79-.2-.9a1.33,1.33,0,0,0-.21-.4.39.39,0,0,0-.39-.15l-.14,0-.06-.29,3.64-.82.72,2.47-.33.11a2.44,2.44,0,0,0-.45-1,1.54,1.54,0,0,0-.64-.63,1.15,1.15,0,0,0-.7,0l-.45.11"/><path class="cls-9" d="M90,87.91l4.44,5.77L93.11,89.2A4.44,4.44,0,0,0,92.59,88a.63.63,0,0,0-.73-.26l-.08-.29L93.43,87l.09.28a.85.85,0,0,0-.36.34,1,1,0,0,0,0,.49,6.39,6.39,0,0,0,.26,1.06L96,97.81l-.12,0-6-7.74,2,6.64a2.83,2.83,0,0,0,.57,1.16.57.57,0,0,0,.55.19l.12,0,.09.28-1.78.5-.09-.28a.6.6,0,0,0,.47-.52,3.09,3.09,0,0,0-.2-1.22l-2.24-7.37-.19-.25a2,2,0,0,0-.45-.47.56.56,0,0,0-.39,0l-.09-.29,1.78-.5"/><path class="cls-9" d="M97.29,85.52l1.18,3.64-.13,0a6.4,6.4,0,0,0-1.24-2c-.42-.43-.8-.59-1.13-.48s-.47.35-.58.8a4.42,4.42,0,0,0,0,1.64A16,16,0,0,0,96,91.82a22.17,22.17,0,0,0,1,2.52A5.65,5.65,0,0,0,98,96a1,1,0,0,0,1,.33,1,1,0,0,0,.63-.68,5.82,5.82,0,0,0,.24-1.72l.3.9a4.39,4.39,0,0,1-.34,1.58,1.33,1.33,0,0,1-.81.72,1.71,1.71,0,0,1-1.48-.28,5,5,0,0,1-1.47-1.67,12.23,12.23,0,0,1-1.17-2.59,11.86,11.86,0,0,1-.59-3,6,6,0,0,1,.21-2.38,1.63,1.63,0,0,1,1-1.12,1.58,1.58,0,0,1,1.14.17c.26.12.42.18.47.16s.11-.1.12-.24a2.06,2.06,0,0,0-.09-.61l.13,0"/><path class="cls-9" d="M99.47,85.44l1.58,4,.08,0c.23-.1,1.09-.19,1-.92a4.23,4.23,0,0,0-.3-1l.23-.17L103.57,91l-.28.17c-.19-.56-.09-.44-.32-.78s-.29-.42-.44-.5-.94.24-1.14.32L102.56,93q.34.84.45,1a.85.85,0,0,0,.23.26.29.29,0,0,0,.3,0l.25-.11a1.14,1.14,0,0,0,.65-1,2.87,2.87,0,0,0-.15-1.59l.4,0,.68,2.69-3.56,1.49-.11-.27.14-.06a.37.37,0,0,0,.22-.28.89.89,0,0,0,0-.42q0-.18-.36-1L99,87q-.28-.69-.36-.84a1.12,1.12,0,0,0-.28-.36.37.37,0,0,0-.4-.08l-.14,0-.11-.28,3.44-1.44,1.14,2.31-.3.16a2.42,2.42,0,0,0-.62-.88,1.45,1.45,0,0,0-.74-.52,1.1,1.1,0,0,0-.69.13l-.43.18"/><path class="cls-9" d="M109.11,87.27l-2.35-2.46,1.17,3.06,1.18-.6m.48.52-1.52.88.52,1.54a4.55,4.55,0,0,0,.21.73,1.09,1.09,0,0,0,.48.51.78.78,0,0,0,.5-.08l.15.26-1.36.87-.15-.26a.91.91,0,0,0,.11-.67,6.31,6.31,0,0,0-.32-1.58l-2.94-8.54.23-.12,5.82,7a7.45,7.45,0,0,0,1.15,1.2c.16.11.44.23.58.17l.15.27-2.12,1.17-.14-.26.08,0a.47.47,0,0,0,.24-.38.79.79,0,0,0-.12-.37,2.2,2.2,0,0,0-.17-.25,3.14,3.14,0,0,1-.4-.48Z"/><path class="cls-9" d="M108.64,79.57l6,4.08L112,79.83a4.23,4.23,0,0,0-.88-1,.62.62,0,0,0-.77,0l-.17-.25,1.42-1,.18.24a.84.84,0,0,0-.24.44,1,1,0,0,0,.12.47,6.23,6.23,0,0,0,.58.93l5.25,7.41-.11.08-8.16-5.44,4,5.66a2.75,2.75,0,0,0,.91.92.57.57,0,0,0,.58,0l.1-.07.17.24-1.53,1-.17-.24a.6.6,0,0,0,.28-.64,2.93,2.93,0,0,0-.57-1.1l-4.45-6.29-.26-.17a2.07,2.07,0,0,0-.57-.31.59.59,0,0,0-.39.09l-.17-.25,1.53-1"/><path class="cls-9" d="M119.09,69.42l2.34,1.79-.07.1a9.51,9.51,0,0,0-1.3-.7,1.71,1.71,0,0,0-.77-.13c-.13,0-.25.1-.37.27l-.19.28,6.67,5.11a10.14,10.14,0,0,0,.85.61,1.07,1.07,0,0,0,.38.1.33.33,0,0,0,.3-.16l.09-.12.23.18-1.36,2-.24-.18.09-.13a.38.38,0,0,0,.05-.36,1,1,0,0,0-.23-.35c-.09-.09-.35-.31-.78-.64l-6.68-5.12-.19.27a.74.74,0,0,0,0,.83,5.64,5.64,0,0,0,1.26,1.43l-.07.11-2.34-1.8,2.34-3.34"/><path class="cls-9" d="M120.72,68l3.64,2.31,0-.08c.13-.21.76-.79.27-1.34-.3-.34-.24-.2-.85-.66l.09-.28,3.36,2.08-.12.3c-.49-.34-.34-.3-.72-.44s-.48-.17-.66-.14-.61.75-.72.93l2.64,1.63c.52.32.84.51,1,.56A.78.78,0,0,0,129,73a.29.29,0,0,0,.25-.16l.14-.23a1.16,1.16,0,0,0-.1-1.24,2.87,2.87,0,0,0-1.06-1.19l.3-.28,2.13,1.78-2,3.3-.25-.16.07-.13a.34.34,0,0,0,0-.35.89.89,0,0,0-.27-.32,6.93,6.93,0,0,0-.85-.57l-6.17-3.82c-.42-.26-.69-.42-.79-.47A1.08,1.08,0,0,0,120,69a.37.37,0,0,0-.37.17l-.08.13-.26-.16,1.93-3.2,2.29,1.19-.16.31a2.58,2.58,0,0,0-1-.35,1.5,1.5,0,0,0-.9,0,1.08,1.08,0,0,0-.48.51l-.24.4"/><path class="cls-9" d="M122.76,62.61l3.65,1.14,0,.13a6.28,6.28,0,0,0-2.36-.15c-.59.1-.94.31-1.05.64a1,1,0,0,0,.33.94,4.34,4.34,0,0,0,1.32,1,16.11,16.11,0,0,0,2.55,1,20.09,20.09,0,0,0,2.62.66,5.59,5.59,0,0,0,1.91.08,1,1,0,0,0,.86-.64,1,1,0,0,0-.19-.9,5.44,5.44,0,0,0-1.26-1.2l.91.28a4.52,4.52,0,0,1,1.09,1.19,1.31,1.31,0,0,1,.11,1.07,1.71,1.71,0,0,1-1.08,1,5.21,5.21,0,0,1-2.21.24,13.14,13.14,0,0,1-5.55-1.77,6,6,0,0,1-1.81-1.55,1.63,1.63,0,0,1-.37-1.43,1.58,1.58,0,0,1,.8-.83c.25-.15.39-.24.4-.3s0-.15-.12-.23a2.06,2.06,0,0,0-.55-.29l0-.12"/><path class="cls-9" d="M128.91,61.78l3.31.76a6.56,6.56,0,0,0,1,.2.85.85,0,0,0,.39-.07.39.39,0,0,0,.22-.28l0-.16.29.07-.54,2.47-.29-.07,0-.16a.42.42,0,0,0-.09-.37A1,1,0,0,0,133,64a6.05,6.05,0,0,0-1-.27l-7-1.62a6.56,6.56,0,0,0-1-.2.85.85,0,0,0-.39.07.37.37,0,0,0-.22.28l0,.16-.3-.07.54-2.47.29.07,0,.16a.39.39,0,0,0,.09.36.84.84,0,0,0,.35.23,6.05,6.05,0,0,0,1,.27l3,.7.36-1.67-3-.7a7.61,7.61,0,0,0-1-.19.75.75,0,0,0-.4.07.39.39,0,0,0-.22.28l0,.15-.3-.06L124.1,57l.3.07,0,.15a.41.41,0,0,0,.09.37,1.05,1.05,0,0,0,.35.23,6.05,6.05,0,0,0,1,.27l7,1.62a8.08,8.08,0,0,0,1,.2.85.85,0,0,0,.39-.07.37.37,0,0,0,.22-.29l0-.15.29.07L134.27,62,134,61.9l0-.16a.41.41,0,0,0-.09-.37,1.1,1.1,0,0,0-.35-.23,8.1,8.1,0,0,0-1-.26l-3.31-.77-.36,1.67"/><path class="cls-9" d="M124.29,55.08l6.92-2.29-4.69-.19a4.17,4.17,0,0,0-1.33.08.62.62,0,0,0-.49.6h-.3l.1-1.72h.3a.76.76,0,0,0,.2.45,1.05,1.05,0,0,0,.45.2,6.29,6.29,0,0,0,1.09.11l9.08.36v.13L126.32,56l6.93.28a2.68,2.68,0,0,0,1.28-.16.59.59,0,0,0,.36-.45V55.5l.3,0-.11,1.84h-.3a.63.63,0,0,0-.33-.62,3.18,3.18,0,0,0-1.22-.21l-7.7-.31-.3.1a2.22,2.22,0,0,0-.59.27.56.56,0,0,0-.17.36h-.3l.11-1.85"/><path class="cls-9" d="M124.59,49.7q.09.63,1.68.75a18.76,18.76,0,0,0,3.65-.19,15.2,15.2,0,0,0,4.07-.94c.6-.27.87-.57.82-.92a.7.7,0,0,0-.49-.52,5,5,0,0,0-1.72-.25,23,23,0,0,0-3,.21,24.31,24.31,0,0,0-3.22.58,4.49,4.49,0,0,0-1.45.63.72.72,0,0,0-.36.65m-.51.11c-.17-.72.25-1.37,1.26-2a10.53,10.53,0,0,1,3.95-1.2,12.2,12.2,0,0,1,3.74,0c1.47.27,2.26.81,2.38,1.63s-.45,1.53-1.71,2.15a11.92,11.92,0,0,1-3.67,1,10.75,10.75,0,0,1-4.16-.17C124.71,51,124.12,50.49,124.08,49.81Z"/><path class="cls-9" d="M118.59,37.14,121.88,35l.07.1A7.76,7.76,0,0,0,120.26,37c-.31.56-.37,1-.19,1.29s.53.4,1,.32a6.28,6.28,0,0,0,1.9-.68,24.57,24.57,0,0,0,2.23-1.32,22.29,22.29,0,0,0,2.27-1.7,4.85,4.85,0,0,0,1.23-1.41,1,1,0,0,0,0-1,.7.7,0,0,0-.25-.23,1.45,1.45,0,0,0-.4-.16L124.85,34a3.8,3.8,0,0,0-.69.51.85.85,0,0,0-.21.32.35.35,0,0,0,0,.33l.06.09-.26.17-1-1.69.25-.17a.54.54,0,0,0,.33.2,1,1,0,0,0,.43-.11,6.16,6.16,0,0,0,.66-.4l3.15-2.1a3.06,3.06,0,0,1,1.08.37,2,2,0,0,1,.73.68,1.5,1.5,0,0,1,.2,1.14,4.14,4.14,0,0,1-.54,1.27A7.71,7.71,0,0,1,128,36a13.11,13.11,0,0,1-2,1.61A11,11,0,0,1,122,39.32c-1.22.24-2,.06-2.41-.55a1.52,1.52,0,0,1-.22-.59,2.88,2.88,0,0,1,.06-.61,1.5,1.5,0,0,0,.06-.5s-.12-.07-.24,0a2.57,2.57,0,0,0-.61.23l-.07-.11"/><path class="cls-9" d="M115.42,32.79l.24-.18a.62.62,0,0,0,.47.09A11.23,11.23,0,0,0,118,32l3.83-1.59,2.13-1.59a7.53,7.53,0,0,0,.83-.67.94.94,0,0,0,.2-.33.32.32,0,0,0-.06-.33l-.16-.21.24-.18,1.64,2.06-.24.18-.16-.19a.37.37,0,0,0-.34-.15.76.76,0,0,0-.4.12,6.47,6.47,0,0,0-.84.58L122.86,31l-3.09,3.69a9.69,9.69,0,0,0-1,1.34.41.41,0,0,0,0,.44l-.24.18-1.4-1.76.24-.18.06.07a.32.32,0,0,0,.29.15.55.55,0,0,0,.28-.12,8.81,8.81,0,0,0,1-1.09l2.39-2.85-3.19,1.33a8.57,8.57,0,0,0-1.49.72.69.69,0,0,0-.23.29.51.51,0,0,0,.07.48l-.24.18-.89-1.12"/><path class="cls-9" d="M122.37,42.26c.18.38.78.45,1.81.22a18.45,18.45,0,0,0,3.41-1.27,14.75,14.75,0,0,0,3.59-2.11q.73-.65.51-1.11a.68.68,0,0,0-.61-.36,5.05,5.05,0,0,0-1.71.27,28.85,28.85,0,0,0-5.65,2.6,4.51,4.51,0,0,0-1.21,1,.72.72,0,0,0-.14.73m-.45.25c-.38-.63-.17-1.38.62-2.25A10.57,10.57,0,0,1,126,38a11.92,11.92,0,0,1,3.56-1.07q2.2-.27,2.73.84c.36.75,0,1.6-1,2.57a11.7,11.7,0,0,1-3.19,2.05,10.42,10.42,0,0,1-4,1.07C122.86,43.45,122.15,43.15,121.92,42.51Z"/><path class="cls-10" d="M97.9,14.23a1.19,1.19,0,0,0-.76.12,8.7,8.7,0,0,1-1.14,0c-.13-.14.53-.88.59-1s.77-.8,1-1a.87.87,0,0,0,.39-.39c.18-.45-.22-1.18-.35-1.6-.06-.15-.22-.76-.39-.82l-.32.08-.18.25a4,4,0,0,0-.29.75A18.65,18.65,0,0,1,94,14.18,23.41,23.41,0,0,1,90.59,14c-.36-.11-1-.54-1.37-.35-.12.2.13.62.2.79l.22.57c.14.28.34.73.7.77a10.15,10.15,0,0,1,2.19-.25c0,.29-.44.47-.63.59a7.48,7.48,0,0,1-2,.62,11,11,0,0,1-1.9-.12c-.17,0-.59-.18-.71,0s.75.58.79.64a5,5,0,0,0,1.22.51c2,.47,4-1.1,5.37-2.35a5,5,0,0,1,1-.08l1.58,0,1,.18.26-.13C98.78,15,98.33,14.37,97.9,14.23ZM57.31,9.84l.33-.08a11.27,11.27,0,0,1,2.12-1.3c.34-.14.9-.16,1.11-.51a1.19,1.19,0,0,0-.66-1.71c-.11,0-.17.08-.21.19.18.28-.93,1-1,1.19a12.29,12.29,0,0,0-1.75,2s-.33.27-.26.34S57.21,9.88,57.31,9.84Zm59.11,9.82c-.08-.28-.22-.71-.53-.81-.74-.18-1.61-.5-2.33-.73-.21,0-.8.07-.71-.3,1.18-.09,1.61.31,1.41-1.22,0-.41-.29-.86-.73-.53-.11.21-.65.33-.85.39s-.31,0-.37-.12l-.48-.72c-.13-.21-.28-.3-.51-.17s0,.59,0,.82c.17.79-.5.46-1,.48-.42-.16-.34-.22-.23-.61a3.9,3.9,0,0,0-.13-2.59c-.18-.23-.46-.27-.5.07s0,1,0,1.35-.29,1.21-.62,1.48l-.09-.07c0-.52.17-1.59-.4-1.84-.32.08-.27.81-.33,1.05s-.66,1.67-.78,2c-.4,1.18.49.8.84.1.33-.13.26.29.26.49s0,.76.38.8a.87.87,0,0,0,.73-.47,4.48,4.48,0,0,1,.37-1c.06-.43.26-.29.58-.29s1,.1,1,.42c0,.13-.39.15-.5.16l-.55.21a2.36,2.36,0,0,0-.58.67.36.36,0,0,0,0,.27l.09.3c.34.63.6.92,1.36.92s1.39-.74,1.52-1.53c.24-.07.6.13.81.24,1.35.41,1.43,1,0,1.25a7.92,7.92,0,0,1-2.53.44,11.33,11.33,0,0,0-1.16-.4c-.61-.21-1.43-.54-2-.75l-.63-.24c-.16-.06-.46-.23-.49.06.14.3.31.88.69.93a4.2,4.2,0,0,0,1.27.29,5.11,5.11,0,0,0,.76.23c.23.09.82.09.71.46a4,4,0,0,1-1.89.58c-1.39-.34-2.94-.84-4.33-1.23-.23-.09-.83-.28-1-.36a4,4,0,0,0-1.06-.46c-.21.21.06.9.07,1.16s.22,1,.58,1.25c1,.13,2.13,0,3.1.05.34.06,1.33,0,1.57.3,0,.19-.22.34-.31.48a26.48,26.48,0,0,1-2.61,2.47c-.72.16-1.35-.76-1.82-1.17-.06-.06-.14,0-.21,0,0,.36.4.86.51,1.2a7.09,7.09,0,0,0,.59,1.32l.14.22a.41.41,0,0,0,.21.16l.24.08c.52.06,1-.42,1.31-.77.14-.2,1.74-2.07,1.74-2.07a20.51,20.51,0,0,1,1.58-1.52,1.27,1.27,0,0,1,.43.09.35.35,0,0,1,.15.49c-.12.16-.83.54-.46.72a3.54,3.54,0,0,1,1.33.44c.27,0,.83.18.87-.22a2.24,2.24,0,0,0-.69-1.68c-.1-.08-.38-.18-.28-.36a8.64,8.64,0,0,1,1.95.18c.12,0,.33,0,.41-.11s.07-.72.06-1c0-.07-.1-.29-.06-.36a5.38,5.38,0,0,1,2.25.23c.55.17,1.25.59,1.72,0A1.53,1.53,0,0,0,116.42,19.66ZM111.74,19c-.15.19-.31.48-.59.4a1.94,1.94,0,0,1-.27-.43.47.47,0,0,1,.3-.45c.11,0,.44-.09.52,0S111.78,18.9,111.74,19ZM61,12.42a5.47,5.47,0,0,0-.54.65c-.26,0-.13-.33-.12-.46l.07-.66a5.75,5.75,0,0,1,.52-1.4c0-.24-.26-.47-.43-.61a1.25,1.25,0,0,0-.88-.47c-.33.14-.35.6-.41.9-.76,1.32-2.36,2.09-3.43,3.12a1.33,1.33,0,0,0,.83.42,1.43,1.43,0,0,0,.29,0c.92-.08,1.63-1.73,2.24-2,.12,0,.12.85.12.85s0,.5,0,.6.09,1,.09,1a.91.91,0,0,1-.22.33.23.23,0,0,1-.17,0c0-.07.08-.11.08-.2s-.15-.72-.45-.5c-.24.59-.92,1.14-.83,1.83.16.27.14.73.44.9.25,0,.52-.46.67-.62s.4-.54.51-.52.1.51.15.7.38.19.52.28a.75.75,0,0,0,.56-.27c.12-.14,0-.34-.07-.49a5.91,5.91,0,0,0-.12-1c-.08-.52.47-1.1.68-1.53a10.1,10.1,0,0,0,.6-1.24.5.5,0,0,0-.07-.41C61.39,11.68,61.18,12.21,61,12.42Zm22.5,3.49c-1.65.09-2.41-.62-3.44-1.76A6.4,6.4,0,0,1,81,12.87l.26-.22c0-.05.11-.34.17-.37-.07-.38-.51-.63-.83-.79-.13,0-.3,0-.43,0a2.85,2.85,0,0,1,.59-1.33c.26-.36.54-1,1-1.21a5.8,5.8,0,0,0,.87-.42.31.31,0,0,0,.12-.31l-.26-.44a1,1,0,0,1-.25-.12c0-.52-.62-.88-1-1.14L81,6.45l-.23.09a3.09,3.09,0,0,0-.11.75l-.2.53-.23.57-.35.27C79,9,78,9.65,77.11,10c-.07.38.72.56,1,.62.43-.06,1-.6,1.37-.74a7.48,7.48,0,0,1-.57,1.43c-.06.11-.29.41-.26.54a.7.7,0,0,0,.11.36c0,.11.16.27.29.29a3.81,3.81,0,0,0,.57-.29l.14.07c.06.31-.48.86-.62,1.1-.17-.07-.37-.43-.57-.49s-.52-.43-.78-.29.22.71.33.95.22.48.3.64-.18.44-.24.58a7.13,7.13,0,0,1-1.34,1.18c-.32.16-1,.58-1.25.07A25.83,25.83,0,0,1,77.1,9.33a10.85,10.85,0,0,1,1-.66l.34-.21,0-.23c-.12-.12-.25-.69-.5-.38l-.08-.06c.35-.31-.7-1.21-1-1.38s-.35.14-.44.2L76.38,7A10.83,10.83,0,0,1,76,8.32l-1.17.59a.91.91,0,0,0-.56.12c0,.09.2.48.23.56s.35.52.55.52l.17,0c.07-.08.18-.23.31-.17a5.7,5.7,0,0,0-.28,1c-.19.54-1,.95-1.34,1.34s-1.1,1-1.48,1.33a.93.93,0,0,1-.51.26c-.78.39-.66.4-.17,1a2.78,2.78,0,0,0,.49.21.12.12,0,0,0,.1,0,4.86,4.86,0,0,0,1.11-.78.87.87,0,0,0,.17-.22,3.18,3.18,0,0,1,.46-.64,12.36,12.36,0,0,1,.83-1l.08,0c0,.2-.26,1-.31,1.2s-.15,2.32-.57,2.4L73.53,16c-.3-.11-.54-.26-.84,0v.12a15.5,15.5,0,0,1,1.58,1.11l.19.19c0,.13.09.19.23.2a1.13,1.13,0,0,0,.81-.86h.08c.39.65.49.56,1.13.29a11.41,11.41,0,0,0,2.38-1.75,5.78,5.78,0,0,1,.82,1.18c.11.19.25.56.5.58a4.86,4.86,0,0,0,2.06-.34c.34-.16,1.21-.25,1.4-.59C83.79,15.88,83.65,15.91,83.5,15.91ZM65.92,9.69c0-.15-.07-.31-.19-.32s0,.49-.06.58a2.19,2.19,0,0,1-.55,1.19c-.08,0-.1-.17-.11-.23-.06-.51,0-1.23,0-1.77A1,1,0,0,1,65,9c.25-1.46.11-2.45-1.63-2.59-.44.39-.15,1.06,0,1.53A5.3,5.3,0,0,1,63.62,9c.17.93.18,2.19.33,3.12,0,.09,0,.38-.07.44a8.35,8.35,0,0,1-.75.61l-.06,0c0-.15.14-.37.18-.52l0-.38c0-.52-.75-.83-.71-1.37a2.88,2.88,0,0,0,.17-1.64c-.2-.41-1.82-1.67-1.73-.59a4,4,0,0,0,1.12,1.58c.17.35-.08.83-.07,1.19s.26.75.38,1.06a1.56,1.56,0,0,1,.1,1c-.09.27-.38.75-.33,1,.23.35.7.22,1,0l.51-.49s.3-.43.39-.4c.17,1.43.35,3.42.51,4.86.06.35,0,.71.47.65a1,1,0,0,0,.48-.67A16.62,16.62,0,0,0,65.39,15c-.07-.57-.1-1.43-.18-2a.85.85,0,0,1,.4-.9c.16-.24,1-1,1-1.35a3.38,3.38,0,0,0-.44-.62A1,1,0,0,1,65.92,9.69ZM47.38,15.81c0-.1.09-.17.2-.16a1.73,1.73,0,0,0,.37-.16c.28-.3.67-.76,1-1,.15-.08.28-.56.33-.7a.55.55,0,0,0-.06-.19L49,13.48c-.6-.13-.82-.1-.73-.8a4,4,0,0,1,1-1.77c.48-.64.24-1.38-.64-1.24-.17.05-.64.3-.8.37a4.44,4.44,0,0,0-.73.88c-.18.26-.54.81-.7,1.09-.09.12-.19.48-.39.29a6.72,6.72,0,0,1-.39-1.09c-.11-.43,0-1.14-.55-1.23a5.2,5.2,0,0,0-.87-.12c-.13,0-.42-.08-.52.06s-.45.85-.39,1.14c.25.38.74.68,1,1,.27.57.76,1.32,1,1.9,0,0-.81,2-.91,1.85a3.76,3.76,0,0,1-.92-.87,1.88,1.88,0,0,0-.35-.34.93.93,0,0,1-.28-.28c-.46,0-.38.38-.39.69a6.12,6.12,0,0,0,.1,1.05c.07.53,0,1.28.43,1.69.5.18,1.39.58,1.81.13a15.55,15.55,0,0,1,.75-2.52c.23-1.09,1.58,3.43,1.73,3.56a6.24,6.24,0,0,0,.94,2.54,2.24,2.24,0,0,0,1.05.76c.27.07.41-.15.53-.35a4.08,4.08,0,0,0-.71-2.14A37.2,37.2,0,0,1,47.38,15.81Zm-.53-1.19a5,5,0,0,0-.38-.93c0-.38.35-.89.54-1.21.05-.08.19-.32.31-.34.21.23.17.8.24,1.1a1.34,1.34,0,0,1-.05,1.06C47.34,14.5,47.08,15.09,46.85,14.62Zm49.61,5.64a4.12,4.12,0,0,1-1.09-1.78,6.36,6.36,0,0,1-.25-1.62c0-.29.06-.81-.32-.89s-.33.15-.33.4-.12.6-.15.8c-.12.92-.24,1.94-.34,2.86.28,1,.63.58,1.41.86a13.58,13.58,0,0,0,1.86.25C97.39,20.72,96.69,20.5,96.46,20.26ZM36.27,24.55c-.1-.17-.56-.89-.65-1.05a20.08,20.08,0,0,1,1.21-1.74c.26-.71-.31-.58-.77-.55-.24,0-.84,0-1.07,0s0-.18.13-.45.49-.79.7-1.12a9.67,9.67,0,0,0,1-1.82,1.17,1.17,0,0,0-.82-.41.85.85,0,0,0-.77.32,17.12,17.12,0,0,1-.92,1.61c-.28,0,0-1.07-.06-1.21s.28-.47.35-.69.27-.61.08-.82a.91.91,0,0,0-.67,0,7.84,7.84,0,0,0-1-.11.38.38,0,0,0-.25.44l.2.33a2.14,2.14,0,0,1,.18.67,1.66,1.66,0,0,1-.41.89c-.15.17-.52,0-.69-.07s-.31,0-.32-.1l.12-.65a1.44,1.44,0,0,1,.68-1.36,6.18,6.18,0,0,0,.68-1.3,1,1,0,0,0-.3-1c-.46-.08-1.44-.49-1.88-.27A2.79,2.79,0,0,0,31,16c.15.59.26,1.17-.43,1.44a1.84,1.84,0,0,1-.18-.53,4.37,4.37,0,0,1-.29-.57c-.05-.07-.28-.52-.4-.56a6.37,6.37,0,0,0-1.63,0c-.37.15-.54.25-.29.66.15.13,1.18.41,1.5.58a2.13,2.13,0,0,0,1,.46l.06.09c0,.17-.57.49-.69.58-.37.27-.82.55-1.19.82-.29.12-.69.49-1,.64-.37.68.82.68,1.22.78s.52-.19.63-.44l.53-.69c.29-.24,1.07-1.42,1.46-1.26a5.9,5.9,0,0,1,.05.75c-.06.13-.27.11-.39.13s-.27,0-.28.17-.11.35,0,.48.64.48.77.81l-.05.1a6.23,6.23,0,0,0-.75,0c-.1.14,0,.42-.07.56-.47,0-1.05-.16-1.52-.15-.23,0-.59-.1-.55.25.22.4.82.67,1.13,1,.08.2-.17.48-.27.63l.06.13a11.15,11.15,0,0,1,1.61.23c.58-.37.31-1.56.76-2.07.31,0,.49.55.63.75a5,5,0,0,1-.72,1,35.86,35.86,0,0,1-3.43,3.65c.07.19.13.41.37.4a3.81,3.81,0,0,0,1.71-.37c.56-.51.77-1.48,1.25-2.08.22-.37.71-1.19,1-1.53s.32-.56.61-.1c.12.42-.25.84-.42,1.19a12.5,12.5,0,0,0-1.17,3.14c-.18.6,0,.62.55.55.39-.09.79-.75,1-1a10.08,10.08,0,0,1,1.35-1.8s.4.68.48.8.29.44.41.58l1,1.48a1.88,1.88,0,0,1,.35.34,2.25,2.25,0,0,0,.58.08c.12,0,.21-.62.2-.71a3.58,3.58,0,0,0-.43-1.41C37,25.56,36.47,24.91,36.27,24.55Zm-4.39-9.43a.4.4,0,0,1,.49.27.86.86,0,0,1-.17.53c-.05.1-.21.21-.31.11a2.37,2.37,0,0,1-.07-.61A.44.44,0,0,1,31.88,15.12Zm.92,4.31c-.08-.18,0-.4.2-.38s.39-.28.56-.15a2.68,2.68,0,0,1,.34,1,.71.71,0,0,1-.18.49c0,.06-.14.15-.23.11C33.2,20.24,33.05,19.72,32.8,19.43Zm1.13,4.71c-.18.29-.6.85-.82,1.12-.08.1-.35.51-.5.54l0-.05c.25-.76.77-1.53,1.06-2.28.17-.07.28.17.34.28S34,24,33.93,24.14Zm0-3c.06-.42.53-.79.73-1.15.1-.2.28-.61.54-.62.07.19-.12.46-.24.6a2.59,2.59,0,0,1-.31.65C34.55,21,34.43,21.37,34,21.17Zm1.3,1.31a.5.5,0,0,1-.19.13l0,0c-.13-.06-.52-.57-.43-.75.21.07.62.15.74.35A.75.75,0,0,1,35.25,22.48Z"/><path class="cls-1" d="M438.21,87.66l2.43-4.38h-1l-1.87,3.54-1.84-3.54h-1l2.44,4.38v3h.88v-3m-7.45-.12h2a2.46,2.46,0,0,1-.67,2,2,2,0,0,1-1.34.48c-1.44,0-2.15-1-2.15-3s.77-2.91,2.11-3a1.83,1.83,0,0,1,1.94,1.56h.85a2.67,2.67,0,0,0-2.75-2.41c-1.88.11-2.91,1.38-3.07,3.82a4.25,4.25,0,0,0,1,3.09,2.84,2.84,0,0,0,4.13-.28l.21.92h.56V86.69h-2.82ZM426.38,87a5.15,5.15,0,0,0-.84-2.85,2.8,2.8,0,0,0-2.29-1,2.87,2.87,0,0,0-2.12.81A4.67,4.67,0,0,0,420.07,87a5.2,5.2,0,0,0,.74,2.65,2.87,2.87,0,0,0,2.44,1.12,2.84,2.84,0,0,0,2.32-1A4.74,4.74,0,0,0,426.38,87Zm-.88,0q-.13,2.8-2.25,3c-1.44-.08-2.19-1.07-2.26-3s.82-3,2.26-3C424.66,84,425.41,85.05,425.5,87Zm-9.74-3.7h-.88v7.35H419v-.88h-3.28Zm-2.4,3.7a5.15,5.15,0,0,0-.84-2.85,2.8,2.8,0,0,0-2.3-1,2.85,2.85,0,0,0-2.11.81A4.62,4.62,0,0,0,407.05,87a5.1,5.1,0,0,0,.74,2.65,3.16,3.16,0,0,0,4.76.08A4.74,4.74,0,0,0,413.36,87Zm-.88,0c-.09,1.87-.85,2.86-2.26,3q-2.14-.12-2.25-3c.07-2,.82-3,2.25-3C411.63,84,412.39,85.05,412.48,87Zm-7.8,2.25h0l-3.24-6h-1.06v7.35h.85V84.69h0l3.28,5.94h1V83.28h-.85Zm-7-2.94h-3.39v-3h-.88v7.35h.88V87.22h3.39v3.41h.88V83.28h-.88Zm-5.86-.84a2.53,2.53,0,0,0-2.65-2.37,2.66,2.66,0,0,0-2.15,1,4.41,4.41,0,0,0-.88,2.89,5,5,0,0,0,.71,2.77,2.78,2.78,0,0,0,2.18,1c1.65,0,2.6-1,2.86-2.85H391c-.23,1.34-.84,2-1.83,2-1.43,0-2.15-1-2.15-3s.75-2.89,2.11-3a1.72,1.72,0,0,1,1.8,1.52Zm-7,4.3H380.9V87.3h3.52v-.89H380.9V84.13h3.8v-.85H380v7.35h4.76Zm-11.36-5.62h2.18v6.5h.85v-6.5h2.18v-.85h-5.21Zm-7.55,0h1.62q1.93.07,2,2.85c-.05,1.82-.69,2.77-1.91,2.85h-1.69ZM365,90.63h2.61a2.26,2.26,0,0,0,2.18-1.32,4.78,4.78,0,0,0,.57-2.45,4.18,4.18,0,0,0-.64-2.45,2.35,2.35,0,0,0-2.08-1.13H365Zm-2.72-1.4h0l-3.25-6h-1v7.35h.84V84.69h0l3.28,5.94h1V83.28h-.84Zm-9.49-1.61,1-3.25h0l1,3.25Zm2.32.88.64,2.13h.95l-2.33-7.35h-1l-2.44,7.35h.89l.67-2.13Zm-7.26,1.25H344V87.3h3.53v-.89H344V84.13h3.81v-.85h-4.69v7.35h4.76Zm-6.46-4.3a2.51,2.51,0,0,0-2.64-2.37,2.66,2.66,0,0,0-2.15,1,4.41,4.41,0,0,0-.88,2.89,5,5,0,0,0,.7,2.77,2.78,2.78,0,0,0,2.19,1q2.46-.07,2.85-2.85h-.84c-.24,1.34-.85,2-1.84,2-1.43,0-2.15-1-2.15-3s.76-2.89,2.12-3a1.73,1.73,0,0,1,1.8,1.52Zm-8.08,3.78h0l-3.24-6H329v7.35h.85V84.69h0l3.28,5.94h1V83.28h-.85Zm-5.93.52h-3.88V87.3H327v-.89h-3.53V84.13h3.81v-.85h-4.69v7.35h4.76Zm-6.84-6.47h-.89v7.35h.89Zm-2.62,2.17a2.53,2.53,0,0,0-2.65-2.37,2.67,2.67,0,0,0-2.15,1,4.47,4.47,0,0,0-.88,2.89,5,5,0,0,0,.71,2.77,2.78,2.78,0,0,0,2.18,1c1.65,0,2.6-1,2.86-2.85h-.84c-.24,1.34-.85,2-1.84,2-1.43,0-2.15-1-2.15-3s.75-2.89,2.11-3a1.72,1.72,0,0,1,1.8,1.52Zm-7.16,0a2.19,2.19,0,0,0-2.51-2.33,2.14,2.14,0,0,0-1.48.48,2.25,2.25,0,0,0-.77,1.77,1.75,1.75,0,0,0,1.37,1.77l1.34.32a2.41,2.41,0,0,1,1.13.48,1.14,1.14,0,0,1,.28.84c0,.8-.6,1.22-1.73,1.25a1.59,1.59,0,0,1-1.76-1.73h-.85a2.2,2.2,0,0,0,.68,1.85,2.45,2.45,0,0,0,1.93.64,3.43,3.43,0,0,0,1.84-.48,1.92,1.92,0,0,0,.7-1.65,1.87,1.87,0,0,0-1.44-2l-1.84-.48a.83.83,0,0,1-.77-.92c0-.83.48-1.26,1.44-1.28s1.58.54,1.63,1.48ZM299,87.3h3.17v-.89H299V84.13h3.6v-.85h-4.48v7.35H299ZM296.53,87a5.07,5.07,0,0,0-.85-2.85,2.77,2.77,0,0,0-2.29-1,2.86,2.86,0,0,0-2.11.81A4.62,4.62,0,0,0,290.22,87a5.1,5.1,0,0,0,.74,2.65,3.16,3.16,0,0,0,4.76.08A4.74,4.74,0,0,0,296.53,87Zm-.88,0c-.09,1.87-.85,2.86-2.26,3q-2.14-.12-2.25-3c.07-2,.82-3,2.25-3C294.8,84,295.56,85.05,295.65,87Zm-10.82.68,2.43-4.38h-1l-1.87,3.54-1.83-3.54h-1L284,87.66v3h.88Zm-9.28-3.53h2.18v6.5h.85v-6.5h2.19v-.85h-5.22Zm-1.45-.85h-.89v7.35h.89Zm-2.8,2.13a2.17,2.17,0,0,0-2.5-2.33,2.13,2.13,0,0,0-1.48.48,2.25,2.25,0,0,0-.77,1.77,1.74,1.74,0,0,0,1.37,1.77l1.34.32a2.46,2.46,0,0,1,1.13.48,1.14,1.14,0,0,1,.28.84c0,.8-.6,1.22-1.73,1.25a1.59,1.59,0,0,1-1.76-1.73h-.85a2.22,2.22,0,0,0,.67,1.85,2.49,2.49,0,0,0,1.94.64,3.43,3.43,0,0,0,1.84-.48,1.92,1.92,0,0,0,.7-1.65,1.87,1.87,0,0,0-1.44-2l-1.84-.48a.83.83,0,0,1-.77-.92c0-.83.48-1.26,1.44-1.28s1.58.54,1.62,1.48Zm-10.72-1.32h2.19c.77,0,1.16.41,1.16,1.24a1.14,1.14,0,0,1-1.31,1.28h-2Zm0,3.37h2.11q1.2,0,1.17,1.32a12.09,12.09,0,0,0,.14,1.85h1.09v-.16a.66.66,0,0,1-.31-.72l-.08-1.33c0-.77-.25-1.24-.77-1.4a1.94,1.94,0,0,0,.92-1.77,1.7,1.7,0,0,0-.67-1.57,2.41,2.41,0,0,0-1.49-.4h-3v7.35h.88ZM258,89.75h-3.87V87.3h3.52v-.89h-3.52V84.13h3.8v-.85h-4.68v7.35H258Zm-9-.21h0l-1.83-6.26h-1l2.36,7.35h1l2.36-7.35h-1Zm-4.31-6.26h-.88v7.35h.88Zm-3.7,6h0l-3.25-6h-1.06v7.35h.85V84.69h0l3.28,5.94h1V83.28h-.84Zm-7-6V87.9c0,1.34-.57,2-1.73,2s-1.59-.71-1.62-2V83.28h-.88v4.9a2.69,2.69,0,0,0,.74,2,2.62,2.62,0,0,0,1.73.56,2.55,2.55,0,0,0,1.9-.64,3.18,3.18,0,0,0,.74-2.09V83.28ZM223,87.54h2a2.46,2.46,0,0,1-.67,2,2,2,0,0,1-1.34.48c-1.44,0-2.15-1-2.15-3s.77-2.91,2.11-3a1.83,1.83,0,0,1,1.94,1.56h.85a2.66,2.66,0,0,0-2.75-2.41q-2.82.17-3.07,3.82a4.25,4.25,0,0,0,1,3.09,2.84,2.84,0,0,0,4.13-.28l.21.92h.56V86.69H223Zm-5.54,1.69h0l-3.24-6h-1.06v7.35H214V84.69h0l3.28,5.94h1V83.28h-.85ZM211.6,87a5.23,5.23,0,0,0-.85-2.85,2.78,2.78,0,0,0-2.29-1,2.89,2.89,0,0,0-2.12.81A4.61,4.61,0,0,0,205.29,87a5.1,5.1,0,0,0,.74,2.65,3.16,3.16,0,0,0,4.76.08A4.9,4.9,0,0,0,211.6,87Zm-.88,0c-.1,1.87-.85,2.86-2.26,3-1.43-.08-2.18-1.07-2.26-3,.08-2,.83-3,2.26-3C209.87,84,210.62,85.05,210.72,87Zm-7.84-.69H199.5v-3h-.88v7.35h.88V87.22h3.38v3.41h.88V83.28h-.88Zm-5.61,3.46h-4l4-5.62v-.85h-4.8v.85h3.67l-3.95,5.7v.8h5.08Zm-9.81-2.13,1-3.25h0l.95,3.25Zm2.33.88.63,2.13h1l-2.32-7.35h-1l-2.43,7.35h.88l.67-2.13Zm-6.36-5.22V87.9c0,1.34-.57,2-1.72,2s-1.6-.71-1.62-2V83.28h-.88v4.9a2.68,2.68,0,0,0,.73,2,2.64,2.64,0,0,0,1.73.56,2.58,2.58,0,0,0,1.91-.64,3.23,3.23,0,0,0,.74-2.09V83.28Zm-7,3h-3.39v-3h-.88v7.35h.88V87.22h3.39v3.41h.88V83.28h-.88Z"/><path class="cls-1" d="M386.71,57.22a14.18,14.18,0,0,1-6.31-3.16,23.88,23.88,0,0,1-3.6-4.18c-.57-.79-1.26-2.42-2.48-2-.7.54-.69,1-.24,1.75.22.65.72,1.92,1,2.55,1.31,2.84,2.78,6,4.11,8.81,2.63,2.39,2.84.52,5.58-.06,1.77-1.09,4.2-1.28,5.76-2.61C390.18,56.87,387.8,57.48,386.71,57.22Zm-124.06-24,1.15-.13c2.29-1.17,5.28-3.07,7.79-3.68,1.25-.35,3.17-.21,4-1.31,1.59-1.85.6-5.26-1.61-6.13-.39-.11-.62.19-.8.56.51,1-3.59,3.19-4.07,3.71a42.56,42.56,0,0,0-6.79,6.15c-.1.13-1.23.79-1,1.07C261.69,33.71,262.3,33.38,262.65,33.26Zm171.81-6.59c.15-2-1.52-4-3.29-4.68-.89-.47-2.25-1.15-3.25-.65-2.18,1.37-5,2.69-7.27,3.9-.5.5-1.74,2.07-2.39,1,2.58-3,4.56-3.16.4-6.3-1.07-.9-2.77-1.34-3,.51.24.76-.76,2.36-1.1,3-.25.26-.76.7-1.15.6-.64-.14-2.24-.44-2.89-.57-.82-.17-1.38,0-1.6.83s1.43,1.4,2,1.93c2.29,1.45-.09,2.27-1.13,3.42-1.4.64-1.33.32-2-.86-1.55-2.46-3.71-4.94-6.56-5.86-1-.11-1.74.47-1,1.37s2.4,2.48,3.14,3.33c.62,1.32,2.22,3.58,2.09,5l-.38.07c-1.13-1.35-3.42-4.18-5.38-3.42-.57,1,1.32,2.6,1.76,3.32.38.92,2.45,5.54,2.9,6.57,1.89,3.75,3.11.7,2.23-1.8.51-1.1,1.34.07,1.81.53.68.63,1.88,1.76,2.83,1a3,3,0,0,0,.61-2.87,14.81,14.81,0,0,1-1.51-3.22c-.87-1.17-.05-1.31.69-2.1.77-.33,2.52-2,3.39-1.41.2.42-.58,1.3-.8,1.6l-.8,1.81a7.78,7.78,0,0,0,.25,3,1.11,1.11,0,0,0,.55.72l.91.5c2.35.69,3.66.74,5.46-1.1,2.19-2,1.54-5.1-.09-7.28.42-.76,1.75-1.13,2.54-1.39,4.18-2.27,5.75-1.12,3,3-1.46,2.25-2.74,5.48-4.93,7.11-.94.38-2.83,1.35-3.72,1.85-2,1-4.71,2.18-6.68,3.15l-2.07,1c-.53.23-1.65.55-1,1.32,1.06.39,2.86,1.34,3.88.52a14.39,14.39,0,0,0,3.71-2.33,19.28,19.28,0,0,0,2.35-1.31c.76-.32,2.18-1.74,2.8-.61a13.73,13.73,0,0,1-3.09,5.94c-4.13,2.53-9,5.08-13.24,7.49-.74.36-2.64,1.32-3.35,1.68a13.72,13.72,0,0,0-3.65,1.48c0,1,2.34,2,3,2.55,1.18.54,3,1.94,4.4,1.6,2.59-2,5-5.21,7.47-7.37.94-.65,3.23-3.1,4.46-3.06.51.37.28,1.36.4,1.9a86.49,86.49,0,0,1-.25,12.15c-1.32,2.09-5,1.45-7.12,1.59-.29,0-.37.33-.46.55.87.85,3,1.09,4.12,1.62a26.31,26.31,0,0,0,4.55,1.73l.87.17a1.43,1.43,0,0,0,.91-.12l.74-.38c1.39-1.11,1.34-3.37,1.26-5-.14-.8-.86-9.1-.86-9.1a73.24,73.24,0,0,1,.08-7.42,4.93,4.93,0,0,1,1.26-.81,1.16,1.16,0,0,1,1.52.79c.11.66-.66,3.27.65,2.83a11.58,11.58,0,0,1,4.2-2.16c.72-.59,2.4-1.57,1.56-2.64-1.49-1.26-3.66-2.67-5.69-2.32-.44.08-1.34.49-1.54-.16,1.16-1.6,3.54-3,5.05-4.28.31-.26.79-.79.73-1.24-.06-1-1.59-1.89-2.28-2.54-.22-.11-.93-.45-1-.69a18.19,18.19,0,0,1,5.89-4.88C432,29.79,434.67,29.09,434.46,26.67Zm-16.35,7.5a6.84,6.84,0,0,1-1.67-.37,1.57,1.57,0,0,1-.37-1.81c.24-.28.82-1.26,1.29-1.17.61-.31,1,.55,1.19,1C418.66,32.59,419,33.67,418.11,34.17ZM274.35,43.54a27.3,27.3,0,0,0-2.12,2c-.88,0-.31-1.17-.23-1.62l.51-2.25a19.36,19.36,0,0,1,2.32-4.61c.09-.82-.72-1.72-1.25-2.26a4.14,4.14,0,0,0-2.85-1.94c-1.17.36-1.44,1.9-1.77,2.92-3.09,4.26-8.92,6.31-13,9.41A4.55,4.55,0,0,0,258.67,47a5.54,5.54,0,0,0,1,.07c3.2.08,6.29-5.33,8.51-6.17.42.05.09,3,.09,3s-.12,1.29-.18,2a1.79,1.79,0,0,0,0,.24c0,.61-.07,3.26-.11,3.43a3.17,3.17,0,0,1-.87,1.05.82.82,0,0,1-.56-.09c0-.22.29-.32.33-.64s-.24-2.55-1.34-1.89c-1.07,1.94-3.62,3.57-3.57,6,.46,1,.19,2.59,1.16,3.3.86.09,2-1.42,2.57-1.88.23-.21,1.57-1.72,1.93-1.63.4.55.17,1.82.25,2.48.27.55,1.24.8,1.69,1.16a2.54,2.54,0,0,0,2-.7c.45-.45-.05-1.19-.07-1.74a18.52,18.52,0,0,0,0-3.57c-.06-1.81,2-3.6,2.95-5A42.72,42.72,0,0,0,277,42.26a1.76,1.76,0,0,0-.1-1.42C276,41.15,275,42.89,274.35,43.54Zm70.34,9.77c-5.49,1-8.36-1-12.32-4.43.15-1.27,1.87-3.53,2.46-4.7l.79-.84c.07-.19.2-1.19.41-1.3-.43-1.26-2-1.93-3.16-2.3-.44-.07-1,.23-1.41.2-.2-1.37.74-3.52,1.38-4.71s1.39-3.7,2.79-4.49a19.5,19.5,0,0,0,2.73-1.8,1,1,0,0,0,.29-1.1l-1.07-1.34a3.51,3.51,0,0,1-.91-.32c-.26-1.72-2.46-2.68-3.81-3.41l-.78-.16-.71.4a9.67,9.67,0,0,0-.05,2.58l-.44,1.84-.52,2-1.08,1.05c-2.81,1.58-5.69,4.11-8.62,5.53-.06,1.29,2.65,1.57,3.64,1.65,1.41-.38,3-2.43,4.28-3.07.09,1.34-1,3.68-1.3,5.06-.17.38-.8,1.49-.64,1.93a2.33,2.33,0,0,0,.53,1.16c.2.33.65.82,1.08.83a13.49,13.49,0,0,0,1.8-1.21l.49.18c.35,1-1.24,3.1-1.61,4-.61-.19-1.42-1.31-2.11-1.42-.76-.3-1.95-1.21-2.76-.61-.23,1,1.06,2.28,1.53,3,.29.5.94,1.52,1.28,2,.51.48-.41,1.57-.55,2.07-.79,1-2.89,3.89-4,4.54s-3.3,2.39-4.19.76c0-7.38.21-15.87,2.22-23,.68-.69,2.18-2,2.95-2.6l1.05-.88,0-.78c-.44-.34-1.14-2.21-1.84-1.05l-.3-.17c1-1.2-2.85-3.77-3.77-4.25-.41,0-1.11.62-1.4.87L317,26.49a32.71,32.71,0,0,1-.69,4.54l-3.66,2.48a3,3,0,0,0-1.84.65c-.1.31.86,1.53,1,1.78.4.4,1.41,1.59,2.08,1.49l.55-.14c.22-.3.52-.86,1-.7a19.18,19.18,0,0,0-.51,3.5c-.4,1.89-2.78,3.6-3.93,5-1.07,1.3-3.28,3.87-4.4,5.13a3.2,3.2,0,0,1-1.62,1.07c-2.46,1.65-2,1.64-.12,3.54a8.47,8.47,0,0,0,1.74.5.48.48,0,0,0,.33-.06,17.19,17.19,0,0,0,3.41-3.12,2.76,2.76,0,0,0,.47-.79A10.66,10.66,0,0,1,312,49c.65-1,1.55-2.93,2.32-3.88l.31.09c-.1.67-.44,3.43-.53,4.16-.24,1,.48,7.87-.89,8.31-.49,0-1.51,0-2,0-1.06-.25-1.94-.64-2.85.24l0,.43a48.33,48.33,0,0,1,5.79,3l.73.55a.79.79,0,0,0,.85.6,3.82,3.82,0,0,0,2.35-3.25l.27-.09c1.59,2,1.9,1.69,4,.52a39.15,39.15,0,0,0,7.22-6.92c1.12.7,2.43,2.61,3.28,3.6.43.61,1.06,1.78,1.93,1.74,2.22.14,4.79-1.13,6.77-2,1.07-.68,3.94-1.38,4.44-2.6C345.65,53.09,345.2,53.23,344.69,53.31ZM292.3,36.05c0-.53-.1-1.09-.51-1.17-.49.08-.36,1.65-.42,2-.47,1.32-1.11,3.1-2.37,3.88-.26-.08-.28-.63-.29-.83,0-1.79.49-4.24.67-6.09a2.36,2.36,0,0,1,.1-.53c1.42-4.93,1.32-8.39-4.59-9.53-1.69,1.16-.95,3.59-.59,5.23a18.79,18.79,0,0,1,.34,4c.23,3.24-.21,7.58,0,10.84,0,.32-.08,1.31-.42,1.49s-2.36,1.68-2.8,1.82l-.2-.12c-.08-.55.62-1.24.81-1.74l.06-1.3c0-1.81-2.24-3.16-1.92-5,.69-1.66,1.66-3.73,1.22-5.57-.52-1.5-5.6-6.45-5.73-2.7.28,2.1,2,4.22,3.26,5.86.44,1.28-.58,2.8-.71,4,.35,1.12.61,2.7.91,3.83a5.23,5.23,0,0,1,0,3.45c-.41.9-1.59,2.43-1.51,3.45.64,1.3,2.31,1,3.41.56l1.93-1.48c.18-.16,1.2-1.36,1.5-1.23.05,5-.1,11.88-.09,16.91.06,1.23-.38,2.42,1.36,2.41a3.56,3.56,0,0,0,1.91-2.13c1.1-4,.8-10.82.9-12.12,0-2,.18-5,.13-7a3,3,0,0,1,1.72-3c.64-.76,4-3.1,3.81-4.27a10.87,10.87,0,0,0-1.26-2.32A3.12,3.12,0,0,1,292.3,36.05ZM210,39.53a2.84,2.84,0,0,0-2.71-.58c-1.64.75-3.78,2.21-5.51,2.75-.78-.49,1.92-3,2.08-3.45.57-.54,1.64-.75,2.25-1.25s1.87-1.19,1.72-2.1a3,3,0,0,0-1.9-1.14c-.67-.6-1.71-1.57-2.44-2.1-.72-.19-1.14.19-1.5.77l-.07,1.26a6.8,6.8,0,0,1-.76,2.19,5.45,5.45,0,0,1-2.78,1.69c-.73.18-1.33-1.08-1.76-1.5-.12-.14-.85-.58-.69-.84l1.54-1.58c1.7-2.1,1.78-2,4.41-2.47a20.93,20.93,0,0,0,4.29-2.31,3.24,3.24,0,0,0,1-3.34c-1.09-1.07-3-4-4.67-4.24-1.75,1-3,3.28-3.62,5.12s-1.44,3.71-3.87,3.17a5.84,5.84,0,0,1,.53-1.79,10.32,10.32,0,0,1,.26-2.11,8,8,0,0,0-.06-2.28,21.39,21.39,0,0,0-4.56-3c-1.28-.25-1.94-.31-2,1.28.15.64,2.46,3.34,3,4.39.26.89,1.28,2.88,2,3.18v.36c-.35.47-2.48.31-3,.34-1.53,0-3.29,0-4.8.05-1-.23-2.81,0-3.88-.07-2.28,1.17,1,3.39,1.91,4.41a2,2,0,0,0,2.54,0l2.72-.92c1.27-.14,5.6-1.93,6.39-.76a18.59,18.59,0,0,1-1.28,2.14c-.4.25-.94-.19-1.29-.35s-.83-.39-1.1-.05-.95.76-.89,1.33c.27,1.09.87,2.51.61,3.66l-.33.18a17.58,17.58,0,0,0-2-1.43c-.55.21-.67,1.24-1.26,1.42-1.26-.9-2.57-2.4-3.91-3.25-.57-.49-1.43-1.39-2-.35-.15,1.52,1,3.38,1.24,4.87-.15.68-1.34,1-1.89,1.23l-.07.46a34,34,0,0,1,4,3.63c2.29.08,3.75-3.72,6-4.27.87.54.32,2.4.35,3.22-.93.66-2.71.91-3.79,1.32a126.62,126.62,0,0,1-16.21,3.66c-.18.64-.41,1.36.27,1.77,1.34.77,3.78,2.29,5.4,2.18,2.49-.36,4.85-2.65,7.3-3.39,1.29-.63,4.16-2,5.5-2.41,1.31-.79,1.94-1,1.87.83-.45,1.38-2.24,1.87-3.37,2.52a40.79,40.79,0,0,0-9,6.45c-1.63,1.32-1.22,1.69.48,2.53,1.24.49,3.58-.59,4.79-.88,1.8-.61,5.18-2.38,7.06-2.44,0,0-.15,2.6-.15,3.11s0,1.73.05,2.35c0,.91-.1,5.11-.1,5.86a8,8,0,0,0,.36,1.6,8.56,8.56,0,0,0,1.42,1.28c.39.17,1.74-1.31,1.89-1.56a11.72,11.72,0,0,0,1.42-4.68c.24-1.37-.1-4.23,0-5.57,0-.66.11-3.51.16-4.1,1.78-1.22,4.66-1.55,6.58-2.55,2-1.47.21-2.15-1.09-2.94a32.06,32.06,0,0,1-3-2c0-.59.32-.49,1.2-1,1.35-.64,2.82-1.24,4-1.76,1.73-1,4.82-1.74,6.19-3.14A3.85,3.85,0,0,0,210,39.53Zm-7.83-13.29a1.46,1.46,0,0,1,.71-.72,1.33,1.33,0,0,1,.84,1.66,3,3,0,0,1-1.44,1.15c-.33.17-1,.2-1.07-.26C201.12,27.76,202,26.51,202.14,26.24ZM192.6,53.16c0,.47-.5.81-.87,1-1,.44-3.25,1.21-4.35,1.54-.42.13-1.91.75-2.36.56v-.18c2.1-1.64,5-2.78,7.15-4.3C192.78,51.88,192.63,52.75,192.6,53.16Zm4.76-14.06c.1-.65.66-1.15,1.28-.68.57.12,1.56,0,1.8.65a8.77,8.77,0,0,1-.86,3.3,2.48,2.48,0,0,1-1.43,1c-.25.07-.65.16-.82-.11C197,42.05,197.51,40.35,197.36,39.1ZM198.46,52a1.77,1.77,0,0,1-.8,0v-.12c-.25-.41-.35-2.55.21-2.88.44.6,1.42,1.58,1.38,2.34A2.58,2.58,0,0,1,198.46,52Zm3.84-7.33a8.82,8.82,0,0,1-2.05,1.22c-1,.8-2,1.52-3,.1,1-1.06,2.93-1.21,4.15-1.84.65-.33,1.9-1.12,2.64-.68C203.9,44.17,202.89,44.54,202.3,44.71Zm177.91-3c.77-.33,2.46-1,3.24-1.3l.52-.86c0-1.65-2.39-2.59-3.88-2.2a4,4,0,0,0-2,1.67,26.71,26.71,0,0,1-3.23,2.08c-.63-.16,0-3.46-.08-3.85.22-1,.79-3.66.94-4.68a2.75,2.75,0,0,0,.39-1.8c-.25-1.6-2.72-3-3.84-4-.42-.31-2-1.78-2.57-1.64L369,26l-.06,1a12.79,12.79,0,0,0,.48,2.67,62,62,0,0,1-.7,14.59c-2.88,1.64-6.83,4.3-10,5.42-1.23.34-3.8.24-4.53,1.46,0,.77,1.47,1.55,2,1.9l1.62,1.23c.89.56,2.28,1.49,3.37,1,1.75-1.36,3.8-3.72,5.81-4.64.66.75-.41,2.15-.72,2.81-.33,1.25-3.64,4.36-4.52,5.28a38.36,38.36,0,0,1-5.65,3c-.49.28-2,.52-2,1.25,0,.55,3.18.33,3.39.43a15.92,15.92,0,0,0,4.39-.7c6.6-2.26,9.37-10.19,11.19-16.28.53-.79,1.92-1.33,2.63-2ZM246.79,29.67c-.56-.06-2.33.08-2.92.08a15.4,15.4,0,0,0-3.36,1.76c-.91.57-2.69,1.78-3.56,2.41-.43.25-1.22,1.23-1.56.38a23.39,23.39,0,0,1,.23-3.82c.19-1.46,1.53-3.47-.09-4.49A17.75,17.75,0,0,0,233,24.5c-.38-.2-1.19-.77-1.68-.47-.68.65-2.45,2-2.64,3,.27,1.47,1.36,3,1.77,4.48.1,2.07.63,5,.54,7.05-.14,0-5,5-5.2,4.49a12.3,12.3,0,0,1-1.66-3.85,6.88,6.88,0,0,0-.65-1.5,3.34,3.34,0,0,1-.48-1.21c-1.35-.69-1.66.65-2.1,1.61a21.6,21.6,0,0,0-1,3.32c-.48,1.74-1.63,3.94-.88,5.74,1.27,1.19,3.48,3.56,5.37,2.73a49.63,49.63,0,0,1,5.54-6.74c2-2.84.58,10.66.63,12.86a4.44,4.44,0,0,1-.06.89c-.42,2.68-1.16,5.78-.32,8.38.11,1.27,1.37,2.79,2.24,3.69.72.54,1.45.06,2.06-.39,1-1.88.95-5.41.59-7.47-.06-2.19-.6-13.74-.11-14.32.24-.25.48-.38.81-.2a8.31,8.31,0,0,0,1.32,0c1.24-.55,3.06-1.46,4.36-1.87.55,0,1.56-1.36,1.91-1.72a1.55,1.55,0,0,0,.06-.64l-.48-.54c-1.66-1.17-2.37-1.36-1.17-3.4a13.49,13.49,0,0,1,5.39-4.09C249.45,32.94,249.68,30.37,246.79,29.67Zm-8,9.47c-.21,1.09-.48,2.59-1.51,3.2-.79.39-2.35,1.83-2.45.1a16.74,16.74,0,0,0,0-3.32c.36-1.24,2.23-2.29,3.21-3,.28-.18,1-.74,1.39-.63C239.83,36.46,239,38.16,238.81,39.14Z"/></svg>